<svg width="42" height="43" viewBox="0 0 42 43" fill="none" xmlns="http://www.w3.org/2000/svg">
<rect x="0.75" y="1.25" width="40.5" height="40.5" rx="7.25" stroke="#D6AE29" stroke-width="1.5"/>
<path fill-rule="evenodd" clip-rule="evenodd" d="M29.4481 28.8117L26.008 26.8257C25.3395 26.4398 24.477 26.6697 24.0913 27.3388L23.9555 27.5743C23.6118 28.1705 23.083 28.5505 22.4089 28.6886C21.7375 28.8262 21.0972 28.6822 20.549 28.2709C19.4238 27.4268 18.3609 26.4948 17.3664 25.5003C16.3722 24.5061 15.4402 23.4433 14.5963 22.3182C14.185 21.7699 14.0406 21.1295 14.1781 20.4579C14.3162 19.7839 14.697 19.2559 15.2928 18.912L15.5281 18.7763C15.8544 18.588 16.0828 18.2867 16.1804 17.9232C16.2775 17.5612 16.2293 17.1843 16.0419 16.8596L14.0557 13.4196C13.703 12.8087 12.9752 12.5663 12.3204 12.8176L12.2777 12.834C11.6028 13.0929 9.74286 13.7722 9.24302 14.2721C7.76487 15.7503 8.39733 18.4244 9.05678 20.1261C10.2117 23.1064 12.4025 25.9749 14.6475 28.2196C16.8923 30.4642 19.7607 32.6556 22.7406 33.8104C23.7745 34.2111 24.938 34.5274 26.0542 34.5274C26.9883 34.5274 27.9181 34.3012 28.5951 33.6242C29.0716 33.1477 29.7783 31.2295 30.0373 30.5781L30.054 30.5362C30.3125 29.8859 30.0522 29.1604 29.4481 28.8117ZM28.3885 15.3169C28.5472 15.3738 28.6844 15.4784 28.7815 15.6163C28.8785 15.7542 28.9306 15.9187 28.9306 16.0874V20.0044H29.0831C29.5348 20.0044 29.9015 20.3712 29.9015 20.8229C29.9015 21.275 29.5353 21.6413 29.0831 21.6413H28.9306V22.5474C28.9306 22.9995 28.5639 23.3656 28.1121 23.3656C27.6602 23.3656 27.294 22.9995 27.294 22.5474V21.6413H24.2149C24.0598 21.6413 23.9079 21.5973 23.7769 21.5143C23.6459 21.4314 23.5411 21.3129 23.4748 21.1727C23.4086 21.0325 23.3836 20.8763 23.4027 20.7224C23.4218 20.5685 23.4842 20.4232 23.5827 20.3033L27.48 15.5671C27.5872 15.4369 27.7321 15.3431 27.8946 15.2983C28.0572 15.2535 28.2297 15.26 28.3885 15.3169ZM27.294 20.0045H25.9485L27.294 18.3698V20.0045ZM21.7469 18.3885C21.8973 17.8377 21.809 17.4275 21.483 17.1695C21.1039 16.8699 20.4727 16.8167 20.0456 17.0493C19.7382 17.2168 19.6081 17.4991 19.6475 17.9129C19.6911 18.3629 19.3615 18.763 18.9115 18.8059C18.4613 18.8496 18.062 18.5195 18.0185 18.07C17.915 16.9946 18.3684 16.0984 19.2624 15.6115C20.2702 15.0633 21.6012 15.1757 22.4988 15.8863C23.3496 16.5593 23.6512 17.6289 23.3259 18.8197C23.1045 19.6311 22.3381 20.2286 21.5276 20.8617C21.1816 21.1314 20.8139 21.4184 20.4804 21.7289H22.8586C23.3105 21.7289 23.6768 22.0957 23.6768 22.5474C23.6768 22.9995 23.3105 23.3656 22.8586 23.3656H18.8143C18.6757 23.3656 18.5393 23.3304 18.4179 23.2633C18.2966 23.1962 18.1943 23.0994 18.1206 22.9819C18.047 22.8644 18.0045 22.7301 17.997 22.5916C17.9896 22.4531 18.0174 22.315 18.0779 22.1903C18.6348 21.0429 19.6803 20.2269 20.5203 19.5713C21.0318 19.1718 21.6685 18.675 21.7469 18.3885ZM34.1176 19.5918C34.1176 22.4388 33.0087 25.1152 30.9956 27.1285C30.9196 27.2046 30.8294 27.2649 30.73 27.3061C30.6307 27.3472 30.5243 27.3684 30.4167 27.3684C30.3093 27.3684 30.2028 27.3472 30.1035 27.3061C30.0043 27.2649 29.9141 27.2046 29.8382 27.1285C29.5184 26.8088 29.5184 26.2905 29.8382 25.9708C31.5419 24.2671 32.4807 22.0013 32.4807 19.5918C32.4807 14.6167 28.4336 10.5695 23.4584 10.5695C21.0486 10.5695 18.7832 11.5081 17.0792 13.2119C16.7595 13.5316 16.2414 13.5316 15.9217 13.2119C15.602 12.8922 15.602 12.3741 15.9217 12.0544C17.9351 10.0416 20.6114 8.93262 23.4584 8.93262C29.3357 8.93267 34.1176 13.7143 34.1176 19.5918Z" fill="#D6AE29"/>
</svg>
