<svg width="42" height="43" viewBox="0 0 42 43" fill="none" xmlns="http://www.w3.org/2000/svg">
<rect x="0.75" y="1.25" width="40.5" height="40.5" rx="7.25" stroke="#D6AE29" stroke-width="1.5"/>
<path d="M34.2471 11.1562L35.7154 9.20237C35.8014 9.08795 35.853 8.95275 35.8645 8.81171C35.876 8.67067 35.847 8.5293 35.7807 8.40323C35.7143 8.27716 35.6132 8.17132 35.4886 8.09739C35.3639 8.02347 35.2206 7.98436 35.0744 7.98437H29.5391V7.875C29.5391 7.67194 29.4557 7.4772 29.3073 7.33362C29.159 7.19004 28.9577 7.10938 28.7479 7.10938C28.5381 7.10938 28.3369 7.19004 28.1885 7.33362C28.0401 7.4772 27.9568 7.67194 27.9568 7.875V18.4844H26.9396C26.7298 18.4844 26.5285 18.565 26.3802 18.7086C26.2318 18.8522 26.1484 19.0469 26.1484 19.25C26.1484 19.4531 26.2318 19.6478 26.3802 19.7914C26.5285 19.935 26.7298 20.0156 26.9396 20.0156H30.5562C30.7661 20.0156 30.9673 19.935 31.1157 19.7914C31.264 19.6478 31.3474 19.4531 31.3474 19.25C31.3474 19.0469 31.264 18.8522 31.1157 18.7086C30.9673 18.565 30.7661 18.4844 30.5562 18.4844H29.5391V14.3281H35.0744C35.2206 14.3281 35.3639 14.289 35.4886 14.2151C35.6132 14.1412 35.7143 14.0353 35.7807 13.9093C35.847 13.7832 35.876 13.6418 35.8645 13.5008C35.853 13.3598 35.8014 13.2245 35.7154 13.1101L34.2471 11.1562Z" fill="#D6AE29"/>
<path d="M29.1979 23.2969H24.225C23.3557 23.2969 22.5221 22.9627 21.9074 22.3679C21.2927 21.773 20.9474 20.9662 20.9474 20.125C20.9474 19.2838 21.2927 18.477 21.9074 17.8821C22.5221 17.2873 23.3557 16.9531 24.225 16.9531H25.5812C25.7911 16.9531 25.9923 16.8725 26.1407 16.7289C26.289 16.5853 26.3724 16.3906 26.3724 16.1875C26.3724 15.9844 26.289 15.7897 26.1407 15.6461C25.9923 15.5025 25.7911 15.4219 25.5812 15.4219H24.225C22.9361 15.4219 21.6999 15.9174 20.7885 16.7994C19.8771 17.6814 19.3651 18.8777 19.3651 20.125C19.3651 21.3723 19.8771 22.5686 20.7885 23.4506C21.6999 24.3326 22.9361 24.8281 24.225 24.8281H29.1979C30.0672 24.8281 30.9009 25.1623 31.5155 25.7571C32.1302 26.352 32.4755 27.1588 32.4755 28C32.4755 28.8412 32.1302 29.648 31.5155 30.2429C30.9009 30.8377 30.0672 31.1719 29.1979 31.1719H19.2521C19.0423 31.1719 18.841 31.2525 18.6927 31.3961C18.5443 31.5397 18.4609 31.7344 18.4609 31.9375C18.4609 32.1406 18.5443 32.3353 18.6927 32.4789C18.841 32.6225 19.0423 32.7031 19.2521 32.7031H29.1979C30.4868 32.7031 31.723 32.2076 32.6344 31.3256C33.5458 30.4436 34.0578 29.2473 34.0578 28C34.0578 26.7527 33.5458 25.5564 32.6344 24.6744C31.723 23.7924 30.4868 23.2969 29.1979 23.2969Z" fill="#D6AE29"/>
<path d="M12.7482 26.4031C13.1851 26.4031 13.5393 26.0603 13.5393 25.6375C13.5393 25.2146 13.1851 24.8718 12.7482 24.8718C12.3112 24.8718 11.957 25.2146 11.957 25.6375C11.957 26.0603 12.3112 26.4031 12.7482 26.4031Z" fill="#D6AE29"/>
<path d="M12.7449 20.2344C11.7416 20.2347 10.757 20.4971 9.89497 20.9938C9.0329 21.4905 8.3253 22.2031 7.8468 23.0564C7.3683 23.9098 7.13663 24.8724 7.17622 25.8425C7.21581 26.8127 7.52519 27.7545 8.07175 28.5687L11.2883 33.3594H9.12826C8.91844 33.3594 8.71721 33.44 8.56884 33.5836C8.42047 33.7272 8.33712 33.9219 8.33712 34.125C8.33712 34.3281 8.42047 34.5228 8.56884 34.6664C8.71721 34.81 8.91844 34.8906 9.12826 34.8906H16.3616C16.5714 34.8906 16.7727 34.81 16.921 34.6664C17.0694 34.5228 17.1527 34.3281 17.1527 34.125C17.1527 33.9219 17.0694 33.7272 16.921 33.5836C16.7727 33.44 16.5714 33.3594 16.3616 33.3594H14.2038L17.4208 28.5687C17.9675 27.7544 18.2769 26.8123 18.3164 25.8419C18.3559 24.8715 18.124 23.9088 17.6451 23.0553C17.1663 22.2018 16.4583 21.4893 15.5959 20.9928C14.7334 20.4963 13.7484 20.2343 12.7449 20.2344ZM12.7449 27.9344C12.2755 27.9344 11.8166 27.7997 11.4263 27.5473C11.036 27.2949 10.7318 26.9362 10.5522 26.5165C10.3725 26.0968 10.3255 25.635 10.4171 25.1894C10.5087 24.7439 10.7347 24.3346 11.0667 24.0134C11.3986 23.6921 11.8215 23.4734 12.2819 23.3848C12.7423 23.2961 13.2195 23.3416 13.6532 23.5155C14.0869 23.6893 14.4576 23.9837 14.7184 24.3614C14.9792 24.7391 15.1184 25.1832 15.1184 25.6375C15.1177 26.2465 14.8674 26.8303 14.4224 27.2609C13.9775 27.6915 13.3742 27.9337 12.7449 27.9344Z" fill="#D6AE29"/>
</svg>
