<svg width="42" height="43" viewBox="0 0 42 43" fill="none" xmlns="http://www.w3.org/2000/svg">
<rect x="0.75" y="1.25" width="40.5" height="40.5" rx="7.25" stroke="#D6AE29" stroke-width="1.5"/>
<path d="M35.1673 21.0218C35.1673 27.5288 30.3677 32.9359 24.1229 33.8892C24.1756 33.6004 24.1903 33.3014 24.1549 32.9983L24.0688 32.2621C26.2859 31.8843 28.2877 30.867 29.8743 29.4039C29.7791 29.3246 29.6842 29.2219 29.5907 29.0855C29.1693 28.4707 29.7203 27.8606 29.7203 27.3229C29.7203 26.7955 28.657 26.8389 28.6181 26.4896C28.4838 25.2798 29.3605 25.2633 29.8279 24.7959C30.2953 24.3285 29.3659 23.2659 28.7656 23.3345C28.1612 23.399 26.4599 23.0553 26.6154 21.7537C26.8048 20.1684 24.5956 20.3083 24.2793 19.5683C23.8181 18.4897 24.5847 17.1668 25.5846 16.8662C27.0009 16.4405 28.3962 15.2851 28.2872 13.9989C28.1637 12.5422 27.5044 11.2284 26.4184 10.448C25.2635 9.97965 24.0392 9.70517 22.7948 9.63566C21.657 9.68066 20.6566 9.93353 20.7023 10.4545C20.8142 11.731 24.4443 12.0626 23.8351 13.2559C23.5175 13.878 21.134 14.756 21.5792 15.6819C21.8687 16.2839 22.5813 15.7679 22.3152 16.9238C22.1928 17.4557 21.7265 18.455 21.0093 18.5195C20.2759 18.5879 19.6652 16.6451 17.669 16.5814C16.7253 16.5512 15.3958 18.0538 16.5247 19.1198C17.2083 19.7653 18.4912 18.3439 18.8698 19.4543C19.1366 20.2367 18.8338 21.8804 20.0791 22.5674C20.533 22.8178 21.2289 23.0361 21.9171 23.3858C20.8956 23.5944 19.6404 23.9837 18.1582 24.5546L16.9094 24.2251C17.4322 23.7899 18.2816 23.4836 18.0679 22.5327C17.754 21.1356 15.3282 21.6625 13.6558 19.9902C13.1428 19.4772 12.0485 17.7738 12.053 15.7273C11.2194 17.3108 10.7449 19.1115 10.7449 21.0218C10.7449 21.6098 10.7898 22.1876 10.876 22.7519C10.8563 22.7516 10.8369 22.7482 10.8173 22.7482C10.2906 22.7482 9.77407 22.8588 9.29537 23.068C9.1877 22.3913 9.13347 21.7071 9.13319 21.0219C9.13319 13.8443 14.9727 8.00464 22.1502 8.00464C29.3278 8.00455 35.1673 13.8442 35.1673 21.0218ZM25.4029 24.8158L22.2238 26.2772L22.2731 25.5845L24.3326 24.6547C24.0388 24.6337 23.7345 24.6257 23.4306 24.6257C22.2927 24.6257 20.3701 25.2017 18.2438 26.0458L11.424 24.2469C11.1087 24.1637 10.7796 24.1462 10.4573 24.1954C10.1349 24.2446 9.82608 24.3595 9.54995 24.533L9.21463 24.7437C8.88727 24.9493 8.8838 25.4252 9.2081 25.6357L13.3076 28.2953C12.3283 28.7962 11.3992 29.3048 10.5801 29.7906L8.47648 28.6769C8.30672 28.587 8.11942 28.5352 7.92761 28.525C7.73579 28.5149 7.54406 28.5466 7.36574 28.618L7.16662 28.6978C6.86968 28.8166 6.74528 29.1698 6.90222 29.4485L8.06107 31.5074L8.06157 31.5072C7.62435 31.8834 7.37519 32.1953 7.37519 32.4112C7.37519 33.0573 8.17028 33.2188 8.87111 33.2188C10.1211 33.2188 26.6288 29.4391 26.6288 26.0149C26.6288 25.3367 26.165 24.9976 25.4029 24.8158ZM18.4428 31.5015L22.0754 30.2218C22.2354 30.1654 22.4063 30.2721 22.4261 30.4406L22.7445 33.1635C22.7833 33.4953 22.7165 33.8308 22.5535 34.1224C22.3906 34.414 22.1398 34.6467 21.8369 34.7875L21.4963 34.9459C21.3927 34.994 21.2763 35.0073 21.1645 34.9839C21.0527 34.9604 20.9515 34.9014 20.876 34.8157L18.3321 31.9259C18.2083 31.7851 18.266 31.5638 18.4428 31.5015Z" fill="#D6AE29"/>
</svg>
