<svg width="19" height="18" viewBox="0 0 19 18" fill="none" xmlns="http://www.w3.org/2000/svg">
<g id="bed-double">
<path id="Vector" d="M16.834 13.125H1.83398" stroke="white" stroke-linecap="round" stroke-linejoin="round"/>
<path id="Vector_2" d="M16.834 15.75V12C16.834 10.5858 16.834 9.8787 16.3946 9.43935C15.9553 9 15.2482 9 13.834 9H4.83398C3.41977 9 2.71266 9 2.27333 9.43935C1.83398 9.8787 1.83398 10.5858 1.83398 12V15.75" stroke="white" stroke-linecap="round" stroke-linejoin="round"/>
<path id="Vector_3" d="M8.58398 9V7.66005C8.58398 7.37454 8.54108 7.27906 8.32126 7.16653C7.86361 6.93219 7.30797 6.75 6.70898 6.75C6.11 6.75 5.5544 6.93219 5.09667 7.16653C4.87689 7.27906 4.83398 7.37454 4.83398 7.66005V9" stroke="white" stroke-linecap="round"/>
<path id="Vector_4" d="M13.834 9V7.66005C13.834 7.37454 13.7911 7.27906 13.5713 7.16653C13.1136 6.93219 12.558 6.75 11.959 6.75C11.36 6.75 10.8044 6.93219 10.3467 7.16653C10.1269 7.27906 10.084 7.37454 10.084 7.66005V9" stroke="white" stroke-linecap="round"/>
<path id="Vector_5" d="M16.084 9V5.52043C16.084 5.0017 16.084 4.74233 15.9399 4.4974C15.7958 4.25246 15.5905 4.12568 15.1798 3.87212C13.5242 2.84983 11.5085 2.25 9.33398 2.25C7.15949 2.25 5.14384 2.84983 3.48817 3.87212C3.07751 4.12568 2.87219 4.25246 2.72808 4.4974C2.58398 4.74233 2.58398 5.0017 2.58398 5.52043V9" stroke="white" stroke-linecap="round"/>
</g>
</svg>
