<svg width="16" height="18" viewBox="0 0 16 18" fill="none" xmlns="http://www.w3.org/2000/svg">
<g id="Group">
<path id="Vector" d="M0.552956 3.87228H8.70616C8.9608 5.04842 10.0082 5.9326 11.2594 5.9326C12.5106 5.9326 13.5581 5.04842 13.8127 3.87228H15.4477C15.5943 3.87228 15.735 3.81403 15.8387 3.71033C15.9424 3.60663 16.0006 3.46598 16.0006 3.31933C16.0006 3.17267 15.9424 3.03203 15.8387 2.92833C15.735 2.82463 15.5943 2.76637 15.4477 2.76637H13.8127C13.5581 1.59023 12.5106 0.706055 11.2594 0.706055C10.0082 0.706055 8.9608 1.59023 8.70616 2.76637H0.552956C0.406303 2.76637 0.265657 2.82463 0.161957 2.92833C0.0582578 3.03203 0 3.17267 0 3.31933C0 3.46598 0.0582578 3.60663 0.161957 3.71033C0.265657 3.81403 0.406303 3.87228 0.552956 3.87228ZM11.2594 1.81197C12.0907 1.81197 12.7668 2.48823 12.7668 3.31933C12.7668 4.15042 12.0905 4.82669 11.2594 4.82669C10.4283 4.82669 9.75208 4.15042 9.75208 3.31933C9.75208 2.48823 10.4282 1.81197 11.2594 1.81197ZM15.4477 8.44745H7.29446C7.03983 7.27131 5.99239 6.38713 4.74119 6.38713C3.48998 6.38713 2.44255 7.27131 2.18791 8.44745H0.552956C0.406303 8.44745 0.265657 8.5057 0.161957 8.6094C0.0582578 8.7131 0 8.85375 0 9.0004C0 9.14706 0.0582578 9.2877 0.161957 9.3914C0.265657 9.4951 0.406303 9.55336 0.552956 9.55336H2.18791C2.44255 10.7295 3.48998 11.6137 4.74119 11.6137C5.99239 11.6137 7.03983 10.7295 7.29446 9.55336H15.4477C15.5943 9.55336 15.735 9.4951 15.8387 9.3914C15.9424 9.2877 16.0006 9.14706 16.0006 9.0004C16.0006 8.85375 15.9424 8.7131 15.8387 8.6094C15.735 8.5057 15.5943 8.44745 15.4477 8.44745ZM4.74119 10.5078C3.90996 10.5078 3.23383 9.8315 3.23383 9.0004C3.23383 8.16931 3.91009 7.49304 4.74119 7.49304C5.57228 7.49304 6.24855 8.16917 6.24855 9.0004C6.24855 9.83163 5.57242 10.5078 4.74119 10.5078ZM15.4477 14.1285H13.8127C13.5581 12.9524 12.5106 12.0682 11.2594 12.0682C10.0082 12.0682 8.9608 12.9524 8.70616 14.1285H0.552956C0.406303 14.1285 0.265657 14.1868 0.161957 14.2905C0.0582578 14.3942 0 14.5348 0 14.6815C0 14.8281 0.0582578 14.9688 0.161957 15.0725C0.265657 15.1762 0.406303 15.2344 0.552956 15.2344H8.70616C8.9608 16.4106 10.0082 17.2948 11.2594 17.2948C12.5106 17.2948 13.5581 16.4106 13.8127 15.2344H15.4477C15.5943 15.2344 15.735 15.1762 15.8387 15.0725C15.9424 14.9688 16.0006 14.8281 16.0006 14.6815C16.0006 14.5348 15.9424 14.3942 15.8387 14.2905C15.735 14.1868 15.5943 14.1285 15.4477 14.1285ZM11.2594 16.1888C10.4282 16.1888 9.75208 15.5126 9.75208 14.6815C9.75208 13.8504 10.4283 13.1741 11.2594 13.1741C12.0905 13.1741 12.7668 13.8504 12.7668 14.6815C12.7668 15.5126 12.0907 16.1888 11.2594 16.1888Z" fill="#0068EF"/>
</g>
</svg>
