<svg width="16" height="16" viewBox="0 0 16 16" fill="none" xmlns="http://www.w3.org/2000/svg">
<g id="hotel 1">
<path id="Vector" d="M11.4616 1H4.12826C3.11748 1 2.29492 1.78517 2.29492 2.75V15H6.5727V11.5H4.73937V10.3333H10.8505V11.5H9.01714V15H13.2949V2.75C13.2949 1.78517 12.4724 1 11.4616 1ZM5.96159 9.16667H4.73937V8H5.96159V9.16667ZM5.96159 6.83333H4.73937V5.66667H5.96159V6.83333ZM5.96159 4.5H4.73937V3.33333H5.96159V4.5ZM8.40603 9.16667H7.18381V8H8.40603V9.16667ZM8.40603 6.83333H7.18381V5.66667H8.40603V6.83333ZM8.40603 4.5H7.18381V3.33333H8.40603V4.5ZM10.8505 9.16667H9.62825V8H10.8505V9.16667ZM10.8505 6.83333H9.62825V5.66667H10.8505V6.83333ZM10.8505 4.5H9.62825V3.33333H10.8505V4.5Z" fill="#D6AE29"/>
</g>
</svg>
