<svg width="13" height="12" viewBox="0 0 13 12" fill="none" xmlns="http://www.w3.org/2000/svg">
<g id="icons/Loading/Line">
<g id="Shape">
<path d="M6.19922 1C5.92308 1 5.69922 1.22386 5.69922 1.5V3C5.69922 3.27614 5.92308 3.5 6.19922 3.5C6.47536 3.5 6.69922 3.27614 6.69922 3V1.5C6.69922 1.22386 6.47536 1 6.19922 1Z" fill="#FFA23A"/>
<path d="M6.19922 8.5C5.92308 8.5 5.69922 8.72386 5.69922 9V10.5C5.69922 10.7761 5.92308 11 6.19922 11C6.47536 11 6.69922 10.7761 6.69922 10.5V9C6.69922 8.72386 6.47536 8.5 6.19922 8.5Z" fill="#FFA23A"/>
<path d="M10.6992 5.5C10.9754 5.5 11.1992 5.72386 11.1992 6C11.1992 6.27614 10.9754 6.5 10.6992 6.5H9.19922C8.92308 6.5 8.69922 6.27614 8.69922 6C8.69922 5.72386 8.92308 5.5 9.19922 5.5H10.6992Z" fill="#FFA23A"/>
<path d="M3.69922 6C3.69922 5.72386 3.47536 5.5 3.19922 5.5H1.69922C1.42308 5.5 1.19922 5.72386 1.19922 6C1.19922 6.27614 1.42308 6.5 1.69922 6.5H3.19922C3.47536 6.5 3.69922 6.27614 3.69922 6Z" fill="#FFA23A"/>
<path d="M9.02767 2.46452C9.22294 2.26925 9.53952 2.26925 9.73478 2.46452C9.93004 2.65978 9.93004 2.97636 9.73478 3.17162L8.67412 4.23228C8.47886 4.42755 8.16228 4.42755 7.96701 4.23228C7.77175 4.03702 7.77175 3.72044 7.96701 3.52518L9.02767 2.46452Z" fill="#FFA23A"/>
<path d="M4.43143 7.76774C4.23617 7.57248 3.91959 7.57248 3.72433 7.76774L2.66367 8.8284C2.46841 9.02366 2.46841 9.34024 2.66367 9.53551C2.85893 9.73077 3.17551 9.73077 3.37077 9.53551L4.43143 8.47485C4.6267 8.27958 4.6267 7.963 4.43143 7.76774Z" fill="#FFA23A"/>
<path d="M9.73477 8.82845C9.93003 9.02372 9.93003 9.3403 9.73477 9.53556C9.5395 9.73082 9.22292 9.73082 9.02766 9.53556L7.967 8.4749C7.77174 8.27964 7.77174 7.96306 7.967 7.76779C8.16226 7.57253 8.47884 7.57253 8.67411 7.76779L9.73477 8.82845Z" fill="#FFA23A"/>
<path d="M4.43148 4.23222C4.62674 4.03695 4.62674 3.72037 4.43148 3.52511L3.37082 2.46445C3.17556 2.26919 2.85898 2.26919 2.66371 2.46445C2.46845 2.65971 2.46845 2.97629 2.66371 3.17156L3.72437 4.23222C3.91964 4.42748 4.23622 4.42748 4.43148 4.23222Z" fill="#FFA23A"/>
</g>
</g>
</svg>
