<svg width="16" height="16" viewBox="0 0 16 16" fill="none" xmlns="http://www.w3.org/2000/svg">
<g id="refund">
<g id="Group">
<path id="Vector" d="M1 6.84457V9.49557C1 9.92642 1.17115 10.3396 1.47581 10.6443C1.78046 10.9489 2.19366 11.1201 2.6245 11.1201H8.476C8.90684 11.1201 9.32004 10.9489 9.62469 10.6443C9.92935 10.3396 10.1005 9.92642 10.1005 9.49557V6.84457H1ZM8.1265 9.54357H6.171C6.03839 9.54357 5.91121 9.4909 5.81745 9.39713C5.72368 9.30336 5.671 9.17618 5.671 9.04357C5.671 8.91096 5.72368 8.78379 5.81745 8.69002C5.91121 8.59625 6.03839 8.54357 6.171 8.54357H8.1265C8.25911 8.54357 8.38628 8.59625 8.48005 8.69002C8.57382 8.78379 8.6265 8.91096 8.6265 9.04357C8.6265 9.17618 8.57382 9.30336 8.48005 9.39713C8.38628 9.4909 8.25911 9.54357 8.1265 9.54357ZM7.503 0.955573C7.56183 0.984722 7.61434 1.02518 7.65753 1.07464C7.70071 1.1241 7.73372 1.18159 7.75466 1.24382C7.7756 1.30605 7.78407 1.3718 7.77958 1.4373C7.7751 1.50281 7.75774 1.56678 7.7285 1.62557L7.437 2.21357L8.025 2.50557C8.14375 2.56452 8.23422 2.66822 8.27651 2.79387C8.3188 2.91952 8.30944 3.05682 8.2505 3.17557C8.19156 3.29432 8.08785 3.3848 7.9622 3.42708C7.83655 3.46937 7.69925 3.46002 7.5805 3.40107L6.431 2.83057C6.38716 2.80882 6.34803 2.77864 6.31586 2.74176C6.28369 2.70488 6.2591 2.66202 6.24349 2.61564C6.22789 2.56925 6.22158 2.52024 6.22493 2.47141C6.22828 2.42259 6.24121 2.3749 6.263 2.33107L6.8335 1.18107C6.86265 1.12224 6.90311 1.06973 6.95257 1.02655C7.00203 0.983365 7.05952 0.950358 7.12175 0.929414C7.18398 0.90847 7.24972 0.9 7.31523 0.904489C7.38073 0.908978 7.44471 0.926337 7.5035 0.955573H7.503Z" fill="#D6AE29"/>
<path id="Vector_2" d="M8.8015 11.6202H2.3005C1.82314 11.6196 1.36548 11.4298 1.02794 11.0922C0.690394 10.7547 0.500529 10.297 0.5 9.81966V5.91866C0.500529 5.4413 0.690394 4.98365 1.02794 4.6461C1.36548 4.30856 1.82314 4.11869 2.3005 4.11816H8.8015C9.27886 4.11869 9.73652 4.30856 10.0741 4.6461C10.4116 4.98365 10.6015 5.4413 10.602 5.91866V9.81966C10.6015 10.297 10.4116 10.7547 10.0741 11.0922C9.73652 11.4298 9.27886 11.6196 8.8015 11.6202ZM2.3005 5.11866C1.859 5.11866 1.5 5.47766 1.5 5.91916V9.82016C1.5 10.2612 1.859 10.6207 2.3005 10.6207H8.8015C9.243 10.6207 9.602 10.2617 9.602 9.82016V5.91916C9.602 5.47816 9.243 5.11866 8.8015 5.11866H2.3005Z" fill="#D6AE29"/>
<path id="Vector_3" d="M0.998047 6.34473H10.1V7.34473H0.998047V6.34473Z" fill="#D6AE29"/>
<path id="Vector_4" d="M8.99928 14.5C7.29235 14.5039 5.65314 13.8326 4.43928 12.6325C3.98885 12.1892 3.60533 11.6827 3.30078 11.129L4.17678 10.647C4.43488 11.1157 4.7596 11.5445 5.14078 11.92C6.16795 12.9357 7.55521 13.5039 8.99978 13.5005C12.0323 13.5005 14.4998 11.033 14.4998 8.00048C14.4998 4.96798 12.0323 2.50048 8.99978 2.50048C8.41928 2.50048 7.84778 2.59048 7.30228 2.76748L6.99378 1.81648C7.64174 1.60668 8.3187 1.5002 8.99978 1.50098C12.5838 1.50098 15.4998 4.41698 15.4998 8.00098C15.4998 11.585 12.5838 14.501 8.99978 14.501L8.99928 14.5Z" fill="#D6AE29"/>
</g>
</g>
</svg>
