<svg width="16" height="16" viewBox="0 0 16 16" fill="none" xmlns="http://www.w3.org/2000/svg">
<g id="travel" clip-path="url(#clip0_3826_10864)">
<g id="Black">
<path id="Vector" d="M11.357 0.0579205C11.2038 0.150925 11.1546 0.260342 11.1655 0.495589C11.171 0.615947 11.1956 0.739041 11.223 0.799221C11.2503 0.851194 11.4938 1.12747 11.7673 1.40922L12.2624 1.92075L12.0956 2.41859C11.7318 3.50456 11.688 3.69057 11.7728 3.85469C11.8248 3.9559 12.0737 4.16106 12.1421 4.16106C12.2187 4.16106 12.3226 4.01335 12.6809 3.39788C12.8423 3.1216 13.001 2.86447 13.0338 2.82617L13.0913 2.75779L13.4332 3.05321C13.6192 3.21734 13.7751 3.36505 13.7806 3.3842C13.7861 3.40335 13.745 3.51276 13.6931 3.63039C13.6383 3.74527 13.5946 3.86563 13.5946 3.89846C13.5946 3.96137 13.983 4.35254 14.0459 4.35254C14.0924 4.35254 14.1116 4.32518 14.2894 4.01608C14.593 3.49088 14.6587 3.42797 15.2003 3.11066C15.3972 2.9985 15.4984 2.92191 15.5039 2.88635C15.5066 2.85353 15.441 2.76326 15.3234 2.63469C15.1045 2.40218 15.0827 2.39671 14.7818 2.53348C14.6669 2.58545 14.5629 2.62922 14.552 2.62922C14.5274 2.62922 13.9119 1.91801 13.9256 1.90707C13.994 1.85236 14.2675 1.6855 14.6368 1.4694C15.244 1.11927 15.3179 1.06182 15.3179 0.963346C15.3179 0.905902 15.2796 0.851194 15.1565 0.733571C14.9924 0.574916 14.9596 0.563974 14.7571 0.577651C14.6587 0.583122 14.0322 0.774602 13.4742 0.966082L13.0694 1.10559L12.5715 0.610476C12.2816 0.320521 12.0299 0.0934811 11.9615 0.0606556C11.8029 -0.0186715 11.4856 -0.0186715 11.357 0.0579205Z" fill="#D6AE29"/>
<path id="Vector_2" d="M7.18112 2.75489C7.13735 2.76036 6.98964 2.77951 6.85287 2.79592C5.40036 2.97919 3.97247 3.82717 3.08619 5.03623C2.90018 5.29336 2.59108 5.80215 2.61022 5.8213C2.6157 5.82677 2.94395 5.75565 3.34058 5.66538C4.32534 5.4356 4.34448 5.43834 4.99278 5.91157C5.23076 6.08664 5.43865 6.21794 5.49063 6.22888C5.57816 6.24529 6.03771 6.17964 6.1991 6.12767C6.2456 6.11399 6.31126 6.07296 6.34134 6.04013C6.37417 6.00457 6.59574 5.57238 6.83646 5.07453C7.31789 4.0761 7.39448 3.96121 7.67623 3.81897C7.82121 3.74511 7.86224 3.7369 8.09749 3.7369C8.23973 3.7369 8.45583 3.74785 8.57619 3.76152C8.7704 3.77794 8.80596 3.7752 8.87982 3.7287C8.95641 3.67946 9.42964 3.04758 9.40502 3.02569C9.37767 2.99834 8.85794 2.86704 8.57619 2.8178C8.26435 2.76583 7.39722 2.7248 7.18112 2.75489Z" fill="#D6AE29"/>
<path id="Vector_3" d="M9.72187 3.60536C9.33618 4.16065 9.23223 4.25366 8.89304 4.34119C8.73165 4.38222 8.69609 4.38222 8.39519 4.33845C8.02865 4.28648 7.9247 4.30289 7.81802 4.43146C7.78246 4.47249 7.56362 4.90195 7.33111 5.38886C6.86609 6.36267 6.79497 6.46935 6.51869 6.61706C6.33542 6.7128 5.84851 6.81401 5.56403 6.81401C5.31237 6.81401 5.16465 6.75384 4.81999 6.50218C4.24008 6.08366 4.2729 6.1028 4.1334 6.1028C3.96107 6.10554 2.32528 6.49671 2.29793 6.54321C2.26784 6.58971 2.14474 7.04653 2.09551 7.29271C1.97788 7.87536 1.96694 8.7589 2.07362 9.35796C2.51129 11.8144 4.45344 13.6526 6.96183 13.9836C7.32838 14.0301 8.30766 14 8.65232 13.9289C9.73282 13.7073 10.548 13.3134 11.3385 12.6323C12.1619 11.9238 12.8102 10.8816 13.0864 9.82025C13.2287 9.26769 13.2533 9.05706 13.2506 8.37321C13.2506 7.7085 13.2287 7.50334 13.1029 7.00276C12.9716 6.48303 12.7117 5.86209 12.4464 5.43262C12.0251 4.7433 11.3905 4.095 10.7176 3.65733C10.455 3.48774 10.0419 3.25796 9.99542 3.25796C9.979 3.25796 9.85591 3.41388 9.72187 3.60536ZM8.62497 7.28724C8.98057 7.42949 9.26232 7.52523 9.31977 7.52523C9.37174 7.52523 9.60151 7.4924 9.83129 7.4541C10.0802 7.41307 10.2936 7.38845 10.3702 7.3994C10.6382 7.42949 10.9227 7.63191 11.0294 7.87262C11.1279 8.09693 11.1716 8.70419 11.1033 8.91209C11.0869 8.96953 10.92 9.28137 10.734 9.60415L10.4003 10.1923L10.3291 11.0402C10.2361 12.1262 10.2799 12.0277 9.5769 12.7526C9.15017 13.193 9.03255 13.2997 8.91219 13.3517C8.60856 13.4857 8.23927 13.4119 8.0095 13.1711C7.8399 12.9961 7.36667 12.2192 7.33385 12.0633C7.31196 11.9648 7.3147 11.7487 7.34479 11.2509C7.40223 10.3236 7.3995 10.2989 7.31743 10.2196C7.25725 10.1567 7.2299 10.1512 6.99739 10.1512C6.65273 10.1512 6.52143 10.1129 5.96066 9.84213C5.14824 9.45097 5.07438 9.31419 5.19748 8.40056C5.26313 7.91366 5.31784 7.74679 5.46555 7.57446C5.63788 7.38025 5.75824 7.34195 6.72932 7.1833C7.92196 6.98635 7.86452 6.98361 8.62497 7.28724Z" fill="#D6AE29"/>
<path id="Vector_4" d="M6.85293 7.76062C6.04051 7.89192 5.94477 7.9138 5.89553 7.97125C5.84903 8.02322 5.82715 8.1299 5.77518 8.49918C5.69858 9.08183 5.69585 9.07362 6.01589 9.22681C6.71616 9.56053 6.68334 9.54959 6.97329 9.54959C7.39455 9.54959 7.638 9.65353 7.82401 9.91066C7.9854 10.1322 7.99634 10.2252 7.94984 11.0021C7.88419 12.0416 7.86504 11.9075 8.15773 12.3753C8.30544 12.6078 8.43675 12.7856 8.47504 12.802C8.5571 12.8403 8.64464 12.8376 8.71576 12.7965C8.7732 12.761 9.62666 11.872 9.65948 11.8145C9.67042 11.7954 9.71145 11.3987 9.75249 10.9337C9.79352 10.4714 9.84275 10.0447 9.8619 9.98999C9.88105 9.93528 10.0452 9.63165 10.2284 9.31708L10.5622 8.74264L10.5458 8.45542C10.5266 8.16273 10.4883 8.0369 10.409 8.00681C10.3269 7.97672 10.1792 7.9904 9.74428 8.06152C9.21361 8.15179 9.22455 8.15452 8.43675 7.83995C8.11397 7.71138 7.82675 7.60744 7.80213 7.61017C7.77751 7.61291 7.35078 7.67856 6.85293 7.76062Z" fill="#D6AE29"/>
<path id="Vector_5" d="M14.8757 3.65708C14.6596 3.77197 14.6951 3.92242 15.0918 4.55704C15.1957 4.7239 15.4446 4.70749 15.5322 4.52695C15.5896 4.40386 15.5568 4.30538 15.3489 3.95251C15.2176 3.7282 15.1656 3.66803 15.0972 3.64341C14.9878 3.60511 14.9659 3.60511 14.8757 3.65708Z" fill="#D6AE29"/>
<path id="Vector_6" d="M15.5445 5.22714C15.5116 5.24081 15.4624 5.28458 15.4378 5.32561C15.394 5.39126 15.3913 5.41588 15.4268 5.63472C15.446 5.76328 15.4706 6.07238 15.4788 6.31584L15.4952 6.76445L15.5718 6.8301C15.6785 6.92037 15.8426 6.92037 15.9329 6.82736C15.9985 6.76445 16.0013 6.74803 16.0013 6.37055C16.0013 5.98212 15.9466 5.50068 15.8891 5.3557C15.8372 5.22987 15.6812 5.17243 15.5445 5.22714Z" fill="#D6AE29"/>
<path id="Vector_7" d="M15.3623 7.62409C15.324 7.66513 15.2912 7.70889 15.2912 7.72257C15.2912 7.79095 15.056 8.33257 14.9356 8.54593C14.8344 8.72374 14.7988 8.814 14.7988 8.89333C14.7988 9.13131 15.0806 9.22432 15.2502 9.04104C15.3377 8.9453 15.655 8.29701 15.7426 8.03714C15.7891 7.8949 15.8082 7.79369 15.7973 7.74172C15.7562 7.55844 15.4991 7.48732 15.3623 7.62409Z" fill="#D6AE29"/>
<path id="Vector_8" d="M14.216 9.54903C14.175 9.56271 14.0765 9.6311 13.9972 9.70222C13.8303 9.85266 13.5485 10.0551 13.3078 10.1946C13.2121 10.252 13.1218 10.3259 13.1054 10.3615C13.0562 10.4709 13.0698 10.5858 13.141 10.6569C13.2504 10.7663 13.3297 10.769 13.5239 10.6733C13.8248 10.5256 14.4348 10.0633 14.5169 9.92105C14.5935 9.78975 14.5251 9.60101 14.3856 9.55177C14.3364 9.53536 14.2981 9.52168 14.2953 9.52441C14.2926 9.52441 14.2598 9.53536 14.216 9.54903Z" fill="#D6AE29"/>
</g>
</g>
<defs>
<clipPath id="clip0_3826_10864">
<rect width="16" height="16" fill="white"/>
</clipPath>
</defs>
</svg>
