<svg width="19" height="18" viewBox="0 0 19 18" fill="none" xmlns="http://www.w3.org/2000/svg">
<g id="wallet-02">
<path id="Vector" d="M12.666 10.5C12.666 11.1213 13.1697 11.625 13.791 11.625C14.4123 11.625 14.916 11.1213 14.916 10.5C14.916 9.8787 14.4123 9.375 13.791 9.375C13.1697 9.375 12.666 9.8787 12.666 10.5Z" stroke="white" stroke-width="1.125"/>
<path id="Vector_2" d="M14.841 6C14.8902 5.75767 14.916 5.50685 14.916 5.25C14.916 3.17893 13.2371 1.5 11.166 1.5C9.09497 1.5 7.41602 3.17893 7.41602 5.25C7.41602 5.50685 7.44184 5.75767 7.49103 6" stroke="white" stroke-width="1.125"/>
<path id="Vector_3" d="M5.91602 5.99493H12.666C14.7873 5.99493 15.848 5.99493 16.507 6.65426C17.166 7.31359 17.166 8.37473 17.166 10.4971V11.9978C17.166 14.1202 17.166 15.1813 16.507 15.8407C15.848 16.5 14.7873 16.5 12.666 16.5H8.16602C5.33759 16.5 3.92338 16.5 3.04469 15.6209C2.16602 14.7418 2.16602 13.3269 2.16602 10.4971V8.9964C2.16602 6.16658 2.16602 4.75169 3.04469 3.87258C3.75201 3.16493 4.80634 3.02692 6.66602 3H8.16602" stroke="white" stroke-width="1.125" stroke-linecap="round"/>
</g>
</svg>
