<svg width="18" height="18" viewBox="0 0 18 18" fill="none" xmlns="http://www.w3.org/2000/svg">
<g id="manager">
<path id="Vector" d="M15 16.5V12.75C15 11.3358 15 10.6287 14.5606 10.1894C14.1213 9.75 13.4142 9.75 12 9.75L9 16.5L6 9.75C4.58579 9.75 3.87868 9.75 3.43934 10.1894C3 10.6287 3 11.3358 3 12.75V16.5" stroke="white" stroke-width="1.125" stroke-linecap="round" stroke-linejoin="round"/>
<path id="Vector_2" d="M9 11.25L8.625 14.25L9 15.375L9.375 14.25L9 11.25ZM9 11.25L8.25 9.75H9.75L9 11.25Z" stroke="white" stroke-width="1.125" stroke-linecap="round" stroke-linejoin="round"/>
<path id="Vector_3" d="M11.625 4.875V4.125C11.625 2.67526 10.4497 1.5 9 1.5C7.55025 1.5 6.375 2.67526 6.375 4.125V4.875C6.375 6.32475 7.55025 7.49998 9 7.49998C10.4497 7.49998 11.625 6.32475 11.625 4.875Z" stroke="white" stroke-width="1.125" stroke-linecap="round" stroke-linejoin="round"/>
</g>
</svg>
