<svg width="18" height="18" viewBox="0 0 18 18" fill="none" xmlns="http://www.w3.org/2000/svg">
<g id="Frame">
<g id="Group">
<path id="Vector" d="M16.5423 3.18493C16.307 2.94915 15.9251 2.94874 15.6897 3.18393L8.45552 10.399L5.84546 7.56421C5.61993 7.3194 5.23862 7.30352 4.9934 7.52902C4.74837 7.75455 4.73268 8.13605 4.95821 8.38108L7.9934 11.6774C8.04838 11.7371 8.11489 11.7852 8.18891 11.8186C8.26294 11.852 8.34295 11.8701 8.42415 11.8717C8.42855 11.8719 8.4328 11.8719 8.43702 11.8719C8.5966 11.8719 8.74966 11.8086 8.86274 11.6961L16.5411 4.03777C16.7771 3.80261 16.7775 3.42071 16.5423 3.18493Z" fill="white"/>
<path id="Vector_2" d="M16.397 8.39697C16.0639 8.39697 15.794 8.66691 15.794 9C15.794 12.7463 12.7463 15.794 9 15.794C5.25387 15.794 2.20603 12.7463 2.20603 9C2.20603 5.25387 5.25387 2.20603 9 2.20603C9.33306 2.20603 9.60303 1.93609 9.60303 1.60303C9.60303 1.26994 9.33306 1 9 1C4.58875 1 1 4.58875 1 9C1 13.4111 4.58875 17 9 17C13.4111 17 17 13.4111 17 9C17 8.66694 16.7301 8.39697 16.397 8.39697Z" fill="white"/>
</g>
</g>
</svg>
