<svg width="16" height="16" viewBox="0 0 16 16" fill="none" xmlns="http://www.w3.org/2000/svg">
<g id="Frame">
<g id="Group">
<path id="Vector" d="M10.5592 14.8307H5.43924C4.92699 14.8233 4.43641 14.6228 4.06561 14.2693C3.6948 13.9158 3.47111 13.4354 3.43924 12.9241L2.83258 3.6974C2.82947 3.6305 2.83965 3.56365 2.86254 3.50072C2.88542 3.43778 2.92056 3.38 2.96591 3.33073C3.01264 3.27966 3.0692 3.23858 3.13222 3.20993C3.19523 3.18129 3.26338 3.16569 3.33258 3.16406H12.6659C12.7345 3.16391 12.8023 3.17786 12.8653 3.20505C12.9282 3.23223 12.9849 3.27207 13.0318 3.32209C13.0787 3.37211 13.1148 3.43124 13.1379 3.4958C13.1609 3.56037 13.1705 3.62899 13.1659 3.6974L12.5859 12.9241C12.5537 13.4399 12.3263 13.9242 11.9498 14.2784C11.5733 14.6325 11.0761 14.83 10.5592 14.8307ZM3.89258 4.16406L4.40591 12.8641C4.42287 13.1264 4.53918 13.3724 4.73116 13.552C4.92314 13.7316 5.17636 13.8313 5.43924 13.8307H10.5592C10.8217 13.8297 11.074 13.7295 11.2656 13.5502C11.4573 13.3709 11.5741 13.1258 11.5926 12.8641L12.1326 4.1974L3.89258 4.16406Z" fill="#777980"/>
<path id="Vector_2" d="M14 4.16406H2C1.86739 4.16406 1.74021 4.11138 1.64645 4.01762C1.55268 3.92385 1.5 3.79667 1.5 3.66406C1.5 3.53145 1.55268 3.40428 1.64645 3.31051C1.74021 3.21674 1.86739 3.16406 2 3.16406H14C14.1326 3.16406 14.2598 3.21674 14.3536 3.31051C14.4473 3.40428 14.5 3.53145 14.5 3.66406C14.5 3.79667 14.4473 3.92385 14.3536 4.01762C14.2598 4.11138 14.1326 4.16406 14 4.16406Z" fill="#777980"/>
<path id="Vector_3" d="M10 4.16406H6C5.86793 4.16234 5.74175 4.1091 5.64836 4.01571C5.55496 3.92231 5.50173 3.79613 5.5 3.66406V2.46406C5.50845 2.12194 5.64813 1.79617 5.89012 1.55418C6.13211 1.31219 6.45788 1.17251 6.8 1.16406H9.2C9.54781 1.17276 9.87845 1.31707 10.1213 1.56618C10.3642 1.81529 10.5001 2.14947 10.5 2.4974V3.66406C10.4983 3.79613 10.445 3.92231 10.3516 4.01571C10.2582 4.1091 10.1321 4.16234 10 4.16406ZM6.5 3.16406H9.5V2.4974C9.5 2.41783 9.46839 2.34152 9.41213 2.28526C9.35587 2.229 9.27957 2.1974 9.2 2.1974H6.8C6.72043 2.1974 6.64413 2.229 6.58787 2.28526C6.53161 2.34152 6.5 2.41783 6.5 2.4974V3.16406ZM10 12.1641C9.86793 12.1623 9.74175 12.1091 9.64836 12.0157C9.55496 11.9223 9.50173 11.7961 9.5 11.6641V6.33073C9.5 6.19812 9.55268 6.07094 9.64645 5.97718C9.74022 5.88341 9.86739 5.83073 10 5.83073C10.1326 5.83073 10.2598 5.88341 10.3536 5.97718C10.4473 6.07094 10.5 6.19812 10.5 6.33073V11.6641C10.4983 11.7961 10.445 11.9223 10.3516 12.0157C10.2582 12.1091 10.1321 12.1623 10 12.1641ZM6 12.1641C5.86793 12.1623 5.74175 12.1091 5.64836 12.0157C5.55496 11.9223 5.50173 11.7961 5.5 11.6641V6.33073C5.5 6.19812 5.55268 6.07094 5.64645 5.97718C5.74022 5.88341 5.86739 5.83073 6 5.83073C6.13261 5.83073 6.25978 5.88341 6.35355 5.97718C6.44732 6.07094 6.5 6.19812 6.5 6.33073V11.6641C6.49827 11.7961 6.44504 11.9223 6.35164 12.0157C6.25825 12.1091 6.13207 12.1623 6 12.1641ZM8 12.1641C7.86793 12.1623 7.74175 12.1091 7.64836 12.0157C7.55496 11.9223 7.50173 11.7961 7.5 11.6641V6.33073C7.5 6.19812 7.55268 6.07094 7.64645 5.97718C7.74022 5.88341 7.86739 5.83073 8 5.83073C8.13261 5.83073 8.25978 5.88341 8.35355 5.97718C8.44732 6.07094 8.5 6.19812 8.5 6.33073V11.6641C8.49827 11.7961 8.44504 11.9223 8.35164 12.0157C8.25825 12.1091 8.13207 12.1623 8 12.1641Z" fill="#777980"/>
</g>
</g>
</svg>
