<svg width="12" height="12" viewBox="0 0 12 12" fill="none" xmlns="http://www.w3.org/2000/svg">
<g id="Group">
<path id="Vector" d="M0.786484 2.41167H6.49373C6.67197 3.23497 7.40518 3.85389 8.28102 3.85389C9.15686 3.85389 9.89007 3.23497 10.0683 2.41167H11.2128C11.3154 2.41167 11.4139 2.37089 11.4865 2.2983C11.5591 2.22571 11.5999 2.12726 11.5999 2.0246C11.5999 1.92195 11.5591 1.82349 11.4865 1.7509C11.4139 1.67831 11.3154 1.63753 11.2128 1.63753H10.0683C9.89007 0.814237 9.15686 0.195312 8.28102 0.195312C7.40518 0.195312 6.67197 0.814237 6.49373 1.63753H0.786484C0.683826 1.63753 0.585374 1.67831 0.512784 1.7509C0.440195 1.82349 0.399414 1.92195 0.399414 2.0246C0.399414 2.12726 0.440195 2.22571 0.512784 2.2983C0.585374 2.37089 0.683826 2.41167 0.786484 2.41167ZM8.28102 0.969452C8.86288 0.969452 9.33617 1.44284 9.33617 2.0246C9.33617 2.60637 8.86279 3.07975 8.28102 3.07975C7.69926 3.07975 7.22587 2.60637 7.22587 2.0246C7.22587 1.44284 7.69916 0.969452 8.28102 0.969452ZM11.2128 5.61429H5.50554C5.32729 4.79099 4.59409 4.17207 3.71825 4.17207C2.8424 4.17207 2.1092 4.79099 1.93095 5.61429H0.786484C0.683826 5.61429 0.585374 5.65507 0.512784 5.72766C0.440195 5.80025 0.399414 5.8987 0.399414 6.00136C0.399414 6.10401 0.440195 6.20247 0.512784 6.27506C0.585374 6.34765 0.683826 6.38843 0.786484 6.38843H1.93095C2.1092 7.21172 2.8424 7.83065 3.71825 7.83065C4.59409 7.83065 5.32729 7.21172 5.50554 6.38843H11.2128C11.3154 6.38843 11.4139 6.34765 11.4865 6.27506C11.5591 6.20247 11.5999 6.10401 11.5999 6.00136C11.5999 5.8987 11.5591 5.80025 11.4865 5.72766C11.4139 5.65507 11.3154 5.61429 11.2128 5.61429ZM3.71825 7.05651C3.13638 7.05651 2.66309 6.58312 2.66309 6.00136C2.66309 5.41959 3.13648 4.9462 3.71825 4.9462C4.30001 4.9462 4.7734 5.41949 4.7734 6.00136C4.7734 6.58322 4.30011 7.05651 3.71825 7.05651ZM11.2128 9.59104H10.0683C9.89007 8.76774 9.15686 8.14882 8.28102 8.14882C7.40518 8.14882 6.67197 8.76774 6.49373 9.59104H0.786484C0.683826 9.59104 0.585374 9.63182 0.512784 9.70441C0.440195 9.777 0.399414 9.87545 0.399414 9.97811C0.399414 10.0808 0.440195 10.1792 0.512784 10.2518C0.585374 10.3244 0.683826 10.3652 0.786484 10.3652H6.49373C6.67197 11.1885 7.40518 11.8074 8.28102 11.8074C9.15686 11.8074 9.89007 11.1885 10.0683 10.3652H11.2128C11.3154 10.3652 11.4139 10.3244 11.4865 10.2518C11.5591 10.1792 11.5999 10.0808 11.5999 9.97811C11.5999 9.87545 11.5591 9.777 11.4865 9.70441C11.4139 9.63182 11.3154 9.59104 11.2128 9.59104ZM8.28102 11.0333C7.69916 11.0333 7.22587 10.5599 7.22587 9.97811C7.22587 9.39634 7.69926 8.92296 8.28102 8.92296C8.86279 8.92296 9.33617 9.39634 9.33617 9.97811C9.33617 10.5599 8.86288 11.0333 8.28102 11.0333Z" fill="#0068EF"/>
</g>
</svg>
