<svg width="18" height="18" viewBox="0 0 18 18" fill="none" xmlns="http://www.w3.org/2000/svg">
<g id="question">
<path id="Vector" d="M16.5 5.46252C16.5 7.4437 14.8208 9.05006 12.75 9.05006C12.5065 9.05036 12.2637 9.02785 12.0245 8.98293C11.8523 8.9506 11.7662 8.93448 11.7062 8.94363C11.6461 8.95278 11.5609 8.99808 11.3905 9.08868C10.9087 9.34488 10.3469 9.4354 9.80662 9.3349C10.012 9.0823 10.1522 8.77923 10.2141 8.45433C10.2516 8.25558 10.1587 8.06253 10.0195 7.92123C9.38745 7.27933 9 6.41441 9 5.46252C9 3.48133 10.6791 1.875 12.75 1.875C14.8208 1.875 16.5 3.48133 16.5 5.46252Z" stroke="white" stroke-width="1.125" stroke-linejoin="round"/>
<path id="Vector_2" d="M11.6191 5.625H11.6252M13.8691 5.625H13.8752" stroke="white" stroke-width="1.125" stroke-linecap="round"/>
<path id="Vector_3" d="M5.62642 16.1228H3.53863C3.29616 16.1228 3.05266 16.0887 2.82995 15.993C2.10499 15.6815 1.73718 15.2702 1.56577 15.0129C1.46823 14.8666 1.48213 14.68 1.58795 14.5395C2.42787 13.4239 4.37884 12.7501 5.62999 12.75C6.88113 12.7501 8.82855 13.4239 9.66848 14.5395C9.7743 14.68 9.78818 14.8666 9.69068 15.0129C9.51923 15.2702 9.15143 15.6815 8.42648 15.993C8.20373 16.0887 7.96027 16.1228 7.7178 16.1228H5.62642Z" stroke="white" stroke-width="1.125" stroke-linecap="round" stroke-linejoin="round"/>
<path id="Vector_4" d="M7.71402 8.84121C7.71402 9.98969 6.78093 10.9207 5.62995 10.9207C4.47896 10.9207 3.5459 9.98969 3.5459 8.84121C3.5459 7.69274 4.47896 6.76172 5.62995 6.76172C6.78093 6.76172 7.71402 7.69274 7.71402 8.84121Z" stroke="white" stroke-width="1.125" stroke-linecap="round" stroke-linejoin="round"/>
</g>
</svg>
