<svg width="18" height="18" viewBox="0 0 18 18" fill="none" xmlns="http://www.w3.org/2000/svg">
<g id="anonymous">
<path id="Vector" d="M5.25 11.25C4.00736 11.25 3 12.2573 3 13.5C3 14.7426 4.00736 15.75 5.25 15.75C6.49264 15.75 7.5 14.7426 7.5 13.5C7.5 12.2573 6.49264 11.25 5.25 11.25Z" stroke="white" stroke-width="1.125" stroke-linecap="round" stroke-linejoin="round"/>
<path id="Vector_2" d="M12.75 11.25C11.5073 11.25 10.5 12.2573 10.5 13.5C10.5 14.7426 11.5073 15.75 12.75 15.75C13.9927 15.75 15 14.7426 15 13.5C15 12.2573 13.9927 11.25 12.75 11.25Z" stroke="white" stroke-width="1.125" stroke-linecap="round" stroke-linejoin="round"/>
<path id="Vector_3" d="M10.5 12.75H7.5" stroke="white" stroke-width="1.125" stroke-linecap="round" stroke-linejoin="round"/>
<path id="Vector_4" d="M16.5 9.75C14.6576 8.82938 11.9801 8.25 9 8.25C6.01994 8.25 3.34244 8.82938 1.5 9.75" stroke="white" stroke-width="1.125" stroke-linecap="round" stroke-linejoin="round"/>
<path id="Vector_5" d="M14.25 8.62502L13.4569 3.53434C13.2951 2.49614 12.1674 1.93359 11.257 2.43689L10.7957 2.69186C9.67643 3.31059 8.32357 3.31059 7.2043 2.69186L6.74305 2.43689C5.83257 1.93359 4.70488 2.49615 4.54313 3.53434L3.75 8.62502" stroke="white" stroke-width="1.125" stroke-linecap="round" stroke-linejoin="round"/>
</g>
</svg>
