<svg width="18" height="18" viewBox="0 0 18 18" fill="none" xmlns="http://www.w3.org/2000/svg">
<g clip-path="url(#clip0_5471_33156)">
<path d="M18 8.99991C18 10.1797 17.7676 11.348 17.3161 12.438C16.8646 13.5281 16.2028 14.5185 15.3686 15.3527C14.5343 16.187 13.5439 16.8488 12.4539 17.3003C11.3639 17.7518 10.1956 17.9842 9.01575 17.9842C7.83592 17.9842 6.66765 17.7518 5.57763 17.3003C4.48761 16.8488 3.49719 16.187 2.66293 15.3527C1.82866 14.5185 1.16689 13.5281 0.715385 12.438C0.263884 11.348 0.0315 10.1797 0.0315 8.99991C0.0315 8.84078 0.0947141 8.68817 0.207236 8.57565C0.319758 8.46313 0.47237 8.39991 0.6315 8.39991C0.79063 8.39991 0.943242 8.46313 1.05576 8.57565C1.16829 8.68817 1.2315 8.84078 1.2315 8.99991C1.23345 10.9114 1.93793 12.7554 3.21093 14.1813C4.48392 15.6071 6.23662 16.5153 8.13562 16.7331C10.0346 16.9509 11.9474 16.4631 13.5102 15.3624C15.0729 14.2618 16.1766 12.6251 16.6112 10.7637C17.0458 8.90233 16.7811 6.94613 15.8674 5.26723C14.9537 3.58832 13.4547 2.30384 11.6556 1.65812C9.85654 1.01241 7.88288 1.05051 6.11007 1.76519C4.33726 2.47986 2.88899 3.82124 2.04075 5.53416H3.29535C3.45448 5.53416 3.60709 5.59738 3.71961 5.7099C3.83214 5.82242 3.89535 5.97503 3.89535 6.13416C3.89535 6.29329 3.83214 6.4459 3.71961 6.55843C3.60709 6.67095 3.45448 6.73416 3.29535 6.73416H0.6C0.44087 6.73416 0.288258 6.67095 0.175736 6.55843C0.0632141 6.4459 0 6.29329 0 6.13416V3.26856C0 3.10943 0.0632141 2.95682 0.175736 2.8443C0.288258 2.73178 0.44087 2.66856 0.6 2.66856C0.75913 2.66856 0.911742 2.73178 1.02426 2.8443C1.13679 2.95682 1.2 3.10943 1.2 3.26856V4.56201C2.17708 2.83332 3.6995 1.47717 5.52921 0.705638C7.35891 -0.0658892 9.39272 -0.209289 11.3126 0.297862C13.2324 0.805014 14.9301 1.93412 16.1401 3.50861C17.3501 5.08311 18.0041 7.0142 18 8.99991ZM8.4 11.927V9.55146C7.0323 9.32856 6 8.35896 6 7.19991C6 6.04086 7.0323 5.07141 8.4 4.84821V4.19991C8.4 4.04078 8.46321 3.88817 8.57574 3.77565C8.68826 3.66313 8.84087 3.59991 9 3.59991C9.15913 3.59991 9.31174 3.66313 9.42426 3.77565C9.53679 3.88817 9.6 4.04078 9.6 4.19991V4.84821C10.9677 5.07141 12 6.04086 12 7.19991C12 7.35904 11.9368 7.51165 11.8243 7.62418C11.7117 7.7367 11.5591 7.79991 11.4 7.79991C11.2409 7.79991 11.0883 7.7367 10.9757 7.62418C10.8632 7.51165 10.8 7.35904 10.8 7.19991C10.8 6.68901 10.2909 6.24186 9.6 6.07281V8.44821C10.9677 8.67141 12 9.64086 12 10.7999C12 11.959 10.9677 12.9284 9.6 13.1515V13.7999C9.6 13.959 9.53679 14.1117 9.42426 14.2242C9.31174 14.3367 9.15913 14.3999 9 14.3999C8.84087 14.3999 8.68826 14.3367 8.57574 14.2242C8.46321 14.1117 8.4 13.959 8.4 13.7999V13.1515C7.0323 12.9286 6 11.959 6 10.7999C6 10.6408 6.06321 10.4882 6.17574 10.3756C6.28826 10.2631 6.44087 10.1999 6.6 10.1999C6.75913 10.1999 6.91174 10.2631 7.02426 10.3756C7.13679 10.4882 7.2 10.6408 7.2 10.7999C7.2 11.3108 7.7091 11.758 8.4 11.927ZM9.6 9.67281V11.927C10.2909 11.758 10.8 11.3108 10.8 10.7999C10.8 10.289 10.2909 9.84186 9.6 9.67281ZM8.4 8.32701V6.07281C7.7091 6.24186 7.2 6.68901 7.2 7.19991C7.2 7.71081 7.7091 8.15796 8.4 8.32701Z" fill="white"/>
</g>
<defs>
<clipPath id="clip0_5471_33156">
<rect width="18" height="18" fill="white"/>
</clipPath>
</defs>
</svg>
