<svg width="19" height="18" viewBox="0 0 19 18" fill="none" xmlns="http://www.w3.org/2000/svg">
<path d="M15.666 12.5625H11.916C11.7668 12.5625 11.6238 12.5032 11.5183 12.3977C11.4128 12.2923 11.3535 12.1492 11.3535 12C11.3535 11.8508 11.4128 11.7077 11.5183 11.6023C11.6238 11.4968 11.7668 11.4375 11.916 11.4375H15.666C15.9145 11.4371 16.1528 11.3382 16.3285 11.1625C16.5042 10.9867 16.6031 10.7485 16.6035 10.5V3C16.6031 2.75148 16.5042 2.51325 16.3285 2.33753C16.1528 2.1618 15.9145 2.0629 15.666 2.0625H3.66602C3.4175 2.0629 3.17927 2.1618 3.00354 2.33753C2.82781 2.51325 2.72891 2.75148 2.72852 3V10.5C2.72891 10.7485 2.82781 10.9867 3.00354 11.1625C3.17927 11.3382 3.4175 11.4371 3.66602 11.4375H9.66602C9.8152 11.4375 9.95827 11.4968 10.0638 11.6023C10.1693 11.7077 10.2285 11.8508 10.2285 12C10.2285 12.1492 10.1693 12.2923 10.0638 12.3977C9.95827 12.5032 9.8152 12.5625 9.66602 12.5625H3.66602C3.11913 12.5621 2.59475 12.3447 2.20805 11.958C1.82134 11.5713 1.60391 11.0469 1.60352 10.5V3C1.60391 2.45311 1.82134 1.92874 2.20805 1.54203C2.59475 1.15532 3.11913 0.937897 3.66602 0.9375H15.666C16.2129 0.937897 16.7373 1.15532 17.124 1.54203C17.5107 1.92874 17.7281 2.45311 17.7285 3V10.5C17.7281 11.0469 17.5107 11.5713 17.124 11.958C16.7373 12.3447 16.2129 12.5621 15.666 12.5625ZM9.66602 17.0625C9.59213 17.0627 9.51895 17.0482 9.45072 17.0199C9.38248 16.9915 9.32055 16.9499 9.26852 16.8975L7.01852 14.6475C6.91916 14.5409 6.86506 14.3998 6.86763 14.2541C6.87021 14.1084 6.92924 13.9693 7.0323 13.8663C7.13536 13.7632 7.2744 13.7042 7.42012 13.7016C7.56585 13.699 7.70688 13.7531 7.81352 13.8525L9.66602 15.7042L11.5185 13.8525C11.6251 13.7531 11.7662 13.699 11.9119 13.7016C12.0576 13.7042 12.1967 13.7632 12.2997 13.8663C12.4028 13.9693 12.4618 14.1084 12.4644 14.2541C12.467 14.3998 12.4129 14.5409 12.3135 14.6475L10.0635 16.8975C10.0115 16.9499 9.94955 16.9915 9.88131 17.0199C9.81308 17.0482 9.7399 17.0627 9.66602 17.0625Z" fill="white"/>
<path d="M9.66602 16.3125C9.51683 16.3125 9.37376 16.2532 9.26827 16.1477C9.16278 16.0423 9.10352 15.8992 9.10352 15.75V9C9.10352 8.85082 9.16278 8.70774 9.26827 8.60225C9.37376 8.49676 9.51683 8.4375 9.66602 8.4375C9.8152 8.4375 9.95827 8.49676 10.0638 8.60225C10.1693 8.70774 10.2285 8.85082 10.2285 9V15.75C10.2285 15.8992 10.1693 16.0423 10.0638 16.1477C9.95827 16.2532 9.8152 16.3125 9.66602 16.3125ZM17.166 5.8125H2.16602C2.01683 5.8125 1.87376 5.75324 1.76827 5.64775C1.66278 5.54226 1.60352 5.39918 1.60352 5.25C1.60352 5.10082 1.66278 4.95774 1.76827 4.85225C1.87376 4.74676 2.01683 4.6875 2.16602 4.6875H17.166C17.3152 4.6875 17.4583 4.74676 17.5638 4.85225C17.6693 4.95774 17.7285 5.10082 17.7285 5.25C17.7285 5.39918 17.6693 5.54226 17.5638 5.64775C17.4583 5.75324 17.3152 5.8125 17.166 5.8125ZM6.66602 8.4375H4.41602C4.26683 8.4375 4.12376 8.37824 4.01827 8.27275C3.91278 8.16726 3.85352 8.02418 3.85352 7.875C3.85352 7.72582 3.91278 7.58274 4.01827 7.47725C4.12376 7.37176 4.26683 7.3125 4.41602 7.3125H6.66602C6.8152 7.3125 6.95827 7.37176 7.06376 7.47725C7.16925 7.58274 7.22852 7.72582 7.22852 7.875C7.22852 8.02418 7.16925 8.16726 7.06376 8.27275C6.95827 8.37824 6.8152 8.4375 6.66602 8.4375ZM5.91602 10.3125H4.41602C4.26683 10.3125 4.12376 10.2532 4.01827 10.1477C3.91278 10.0423 3.85352 9.89918 3.85352 9.75C3.85352 9.60082 3.91278 9.45774 4.01827 9.35225C4.12376 9.24676 4.26683 9.1875 4.41602 9.1875H5.91602C6.0652 9.1875 6.20827 9.24676 6.31376 9.35225C6.41925 9.45774 6.47852 9.60082 6.47852 9.75C6.47852 9.89918 6.41925 10.0423 6.31376 10.1477C6.20827 10.2532 6.0652 10.3125 5.91602 10.3125Z" fill="white"/>
</svg>
