<svg width="30" height="20" viewBox="0 0 30 20" fill="none" xmlns="http://www.w3.org/2000/svg">
<path d="M27.8914 0.900146H7.13302C6.88981 0.900146 6.69263 1.09726 6.69263 1.34054C6.69263 1.58381 6.88981 1.78093 7.13302 1.78093H27.8914C28.5684 1.78093 29.1192 2.33171 29.1192 3.00873V12.3856C29.1192 13.0626 28.5684 13.6134 27.8914 13.6134H26.8368V10.744C26.8368 10.6272 26.7904 10.5152 26.7078 10.4326C26.6252 10.35 26.5132 10.3036 26.3964 10.3036H3.60345C3.48665 10.3036 3.37463 10.35 3.29204 10.4326C3.20945 10.5152 3.16306 10.6272 3.16306 10.744V13.6134H2.10859C1.43156 13.6134 0.88078 13.0626 0.88078 12.3856V3.00873C0.88078 2.33171 1.43156 1.78093 2.10859 1.78093H5.37146C5.61468 1.78093 5.81185 1.58381 5.81185 1.34054C5.81185 1.09726 5.61468 0.900146 5.37146 0.900146H2.10859C0.945898 0.900146 0 1.84604 0 3.00873V12.3856C0 13.5483 0.945898 14.4942 2.10859 14.4942H6.69281C6.80961 14.4942 6.92162 14.4478 7.00421 14.3652C7.0868 14.2826 7.1332 14.1706 7.1332 14.0538C7.1332 13.937 7.0868 13.825 7.00421 13.7424C6.92162 13.6598 6.80961 13.6134 6.69281 13.6134H4.04383V12.8392H21.5456C21.6624 12.8392 21.7744 12.7928 21.857 12.7102C21.9396 12.6277 21.986 12.5156 21.986 12.3988C21.986 12.282 21.9396 12.17 21.857 12.0874C21.7744 12.0049 21.6624 11.9585 21.5456 11.9585H4.04383V11.1843H25.956V11.9585H23.3071C23.1903 11.9585 23.0783 12.0049 22.9957 12.0874C22.9131 12.17 22.8667 12.282 22.8667 12.3988C22.8667 12.5156 22.9131 12.6277 22.9957 12.7102C23.0783 12.7928 23.1903 12.8392 23.3071 12.8392H25.956V13.6134H8.45431C8.33751 13.6134 8.2255 13.6598 8.14291 13.7424C8.06032 13.825 8.01392 13.937 8.01392 14.0538C8.01392 14.1706 8.06032 14.2826 8.14291 14.3652C8.2255 14.4478 8.33751 14.4942 8.45431 14.4942H27.8914C29.054 14.4942 29.9999 13.5483 29.9999 12.3856V3.00873C29.9999 1.8461 29.054 0.900146 27.8914 0.900146Z" fill="#D6AE29"/>
<path d="M26.3957 4.48014C26.5125 4.48014 26.6245 4.43375 26.7071 4.35116C26.7897 4.26857 26.8361 4.15655 26.8361 4.03976C26.8361 3.92296 26.7897 3.81094 26.7071 3.72835C26.6245 3.64576 26.5125 3.59937 26.3957 3.59937H25.0933C24.9765 3.59937 24.8645 3.64576 24.7819 3.72835C24.6993 3.81094 24.6529 3.92296 24.6529 4.03976C24.6529 4.15655 24.6993 4.26857 24.7819 4.35116C24.8645 4.43375 24.9765 4.48014 25.0933 4.48014H26.3957ZM23.0839 4.48014C23.2007 4.48014 23.3127 4.43375 23.3953 4.35116C23.4779 4.26857 23.5243 4.15655 23.5243 4.03976C23.5243 3.92296 23.4779 3.81094 23.3953 3.72835C23.3127 3.64576 23.2007 3.59937 23.0839 3.59937H14.7484C14.6316 3.59937 14.5196 3.64576 14.437 3.72835C14.3544 3.81094 14.308 3.92296 14.308 4.03976C14.308 4.15655 14.3544 4.26857 14.437 4.35116C14.5196 4.43375 14.6316 4.48014 14.7484 4.48014H23.0839ZM8.28344 15.6717C8.16664 15.6717 8.05463 15.7181 7.97204 15.8007C7.88945 15.8833 7.84305 15.9953 7.84305 16.1121C7.84305 16.1252 7.8289 17.4308 6.6072 18.2991C6.53103 18.3532 6.47404 18.4302 6.44449 18.5188C6.41493 18.6075 6.41433 18.7032 6.44279 18.7922C6.47124 18.8812 6.52726 18.9589 6.60276 19.0139C6.67825 19.069 6.7693 19.0986 6.86274 19.0985C6.95409 19.0985 7.04316 19.07 7.11752 19.017C8.70563 17.8882 8.72389 16.1841 8.72389 16.1121C8.72388 16.0542 8.71248 15.997 8.69035 15.9435C8.66821 15.8901 8.63576 15.8416 8.59486 15.8007C8.55396 15.7598 8.50541 15.7274 8.45198 15.7052C8.39854 15.6831 8.34127 15.6717 8.28344 15.6717ZM11.4367 15.6717C11.3199 15.6717 11.2079 15.7181 11.1253 15.8007C11.0427 15.8833 10.9963 15.9953 10.9963 16.1121V18.6581C10.9963 18.7749 11.0427 18.8869 11.1253 18.9695C11.2079 19.052 11.3199 19.0984 11.4367 19.0984C11.5535 19.0984 11.6655 19.052 11.7481 18.9695C11.8307 18.8869 11.8771 18.7749 11.8771 18.6581V16.1121C11.8771 15.9953 11.8307 15.8833 11.7481 15.8007C11.6655 15.7181 11.5535 15.6717 11.4367 15.6717ZM15.1231 15.6717C15.0063 15.6717 14.8943 15.7181 14.8117 15.8007C14.7291 15.8833 14.6827 15.9953 14.6827 16.1121V18.6581C14.6827 18.7749 14.7291 18.8869 14.8117 18.9695C14.8943 19.052 15.0063 19.0984 15.1231 19.0984C15.2399 19.0984 15.3519 19.052 15.4345 18.9695C15.5171 18.8869 15.5635 18.7749 15.5635 18.6581V16.1121C15.5635 15.9953 15.5171 15.8833 15.4345 15.8007C15.3519 15.7181 15.2399 15.6717 15.1231 15.6717ZM23.3913 18.2991C22.1861 17.4425 22.1561 16.1687 22.1555 16.1101C22.155 15.9937 22.1083 15.8822 22.0258 15.8C21.9433 15.7179 21.8315 15.6717 21.7151 15.6717C21.5983 15.6717 21.4863 15.7181 21.4037 15.8007C21.3211 15.8833 21.2747 15.9953 21.2747 16.1121C21.2747 16.1841 21.293 17.8883 22.8811 19.0171C22.9282 19.0506 22.9815 19.0745 23.0379 19.0874C23.0942 19.1004 23.1526 19.102 23.2097 19.0924C23.2667 19.0828 23.3213 19.062 23.3703 19.0312C23.4193 19.0005 23.4617 18.9604 23.4952 18.9132C23.5629 18.818 23.5899 18.6998 23.5704 18.5847C23.551 18.4695 23.4865 18.3668 23.3913 18.2991ZM18.5618 15.6717C18.445 15.6717 18.333 15.7181 18.2504 15.8007C18.1678 15.8833 18.1214 15.9953 18.1214 16.1121V18.6581C18.1214 18.7749 18.1678 18.8869 18.2504 18.9695C18.333 19.052 18.445 19.0984 18.5618 19.0984C18.6786 19.0984 18.7906 19.052 18.8732 18.9695C18.9558 18.8869 19.0022 18.7749 19.0022 18.6581V16.1121C19.0022 15.9953 18.9558 15.8833 18.8732 15.8007C18.7906 15.7181 18.6786 15.6717 18.5618 15.6717Z" fill="#D6AE29"/>
</svg>
