<svg width="16" height="16" viewBox="0 0 16 16" fill="none" xmlns="http://www.w3.org/2000/svg">
<path d="M10.9506 3.07006L11.6106 2.41007C12.1574 1.86331 13.0439 1.86331 13.5906 2.41007C14.1373 2.95683 14.1373 3.84329 13.5906 4.39005L12.9306 5.05004M10.9506 3.07006L6.51104 7.5096C6.1727 7.848 5.93268 8.27187 5.81663 8.73607L5.33398 10.6667L7.26458 10.184C7.72878 10.068 8.15265 9.82793 8.49105 9.4896L12.9306 5.05004M10.9506 3.07006L12.9306 5.05004" stroke="#777980" stroke-linejoin="round"/>
<path d="M12.6666 8.9987C12.6666 11.1904 12.6666 12.2862 12.0613 13.0238C11.9505 13.1588 11.8267 13.2826 11.6917 13.3934C10.9541 13.9987 9.85827 13.9987 7.6666 13.9987H7.33333C4.81917 13.9987 3.56211 13.9987 2.78106 13.2176C2.00002 12.4366 2 11.1795 2 8.66536V8.33203C2 6.14038 2 5.04456 2.60529 4.30699C2.71611 4.17196 2.83993 4.04814 2.97496 3.93732C3.71253 3.33203 4.80835 3.33203 7 3.33203" stroke="#777980" stroke-linecap="round" stroke-linejoin="round"/>
</svg>
