<svg width="34" height="25" viewBox="0 0 34 25" fill="none" xmlns="http://www.w3.org/2000/svg">
<path d="M2.24997 0.640625H31.125C32.2635 0.640625 33.1875 1.56458 33.1875 2.70411V22.2979C33.1875 23.4364 32.2635 24.3603 31.125 24.3603H2.24997C1.11044 24.3605 0.1875 23.4364 0.1875 22.298V2.70411C0.1875 1.56458 1.11146 0.640625 2.24997 0.640625Z" fill="#26A6D1"/>
<path d="M5.50878 8.89062L2.25 16.1022H6.15122L6.63486 14.9524H7.74035L8.22399 16.1022H12.5181V15.2246L12.9008 16.1022H15.122L15.5047 15.2061V16.1022H24.4353L25.5213 14.9822L26.5381 16.1022L31.1251 16.1115L27.856 12.5165L31.1251 8.89062H26.6092L25.5521 9.98989L24.5673 8.89062H14.8519L14.0177 10.752L13.1639 8.89062H9.27077V9.73835L8.83769 8.89062H5.50878ZM6.26365 9.91468H8.16528L10.3268 14.8049V9.91468H12.41L14.0795 13.4209L15.6182 9.91468H17.691V15.0895H16.4298L16.4195 11.0345L14.5807 15.0895H13.4525L11.6035 11.0345V15.0895H9.00882L8.51693 13.9293H5.85941L5.36853 15.0884H3.97836L6.26365 9.91468ZM18.8449 9.91468H23.9733L25.5418 11.609L27.1609 9.91468H28.7295L26.3463 12.5155L28.7295 15.0864H27.0898L25.5213 13.3724L23.8939 15.0864H18.8449V9.91468ZM7.18873 10.7902L6.31319 12.8569H8.06326L7.18873 10.7902ZM20.1113 10.9861V11.9308H22.9091V12.9837H20.1113V14.015H23.2494L24.7076 12.496L23.3113 10.9852H20.1113V10.9861Z" fill="white"/>
</svg>
