<svg width="32" height="32" viewBox="0 0 32 32" fill="none" xmlns="http://www.w3.org/2000/svg">
<path d="M27.2057 0H7.21312C5.08637 0 3.35612 1.73025 3.35612 3.857V4.60019C3.35612 4.72451 3.40551 4.84374 3.49342 4.93164C3.58133 5.01955 3.70055 5.06894 3.82487 5.06894C3.9492 5.06894 4.06842 5.01955 4.15633 4.93164C4.24424 4.84374 4.29362 4.72451 4.29362 4.60019V3.857C4.29362 2.24719 5.60331 0.9375 7.21312 0.9375H27.2057C28.8155 0.9375 30.1251 2.24719 30.1251 3.857V28.1431C30.1251 29.7529 28.8154 31.0625 27.2057 31.0625H7.21312C5.60331 31.0625 4.29369 29.7529 4.29369 28.1431V6.69431C4.29369 6.56999 4.2443 6.45076 4.15639 6.36286C4.06849 6.27495 3.94926 6.22556 3.82494 6.22556C3.70062 6.22556 3.58139 6.27495 3.49348 6.36286C3.40557 6.45076 3.35619 6.56999 3.35619 6.69431V11.3906H3.29419C1.99475 11.3906 0.9375 12.4478 0.9375 13.7473V18.2528C0.9375 19.5522 1.99469 20.6094 3.29419 20.6094H3.35619V28.1431C3.35619 30.2698 5.08644 32 7.21312 32H27.2057C29.3324 32 31.0626 30.2698 31.0626 28.1431V3.857C31.0626 1.73025 29.3324 0 27.2057 0ZM3.35619 19.6719H3.29419C2.51163 19.6719 1.875 19.0353 1.875 18.2528V13.7473C1.875 12.9648 2.51163 12.3281 3.29419 12.3281H3.35619V19.6719Z" fill="#D6AE29"/>
<path d="M25.89 2.9198H8.52777C7.28583 2.9198 6.27539 3.93024 6.27539 5.17217V26.8279C6.27539 28.0698 7.28583 29.0802 8.52777 29.0802H25.89C27.132 29.0802 28.1424 28.0698 28.1424 26.8279V5.17217C28.1424 3.93024 27.132 2.9198 25.89 2.9198ZM20.4143 6.92805C20.4143 5.67749 21.4317 4.66011 22.6823 4.66011C23.9328 4.66011 24.9502 5.67749 24.9502 6.92805C24.9502 7.61424 24.6372 8.26368 24.1065 8.69293H21.2593C20.7274 8.26374 20.4143 7.61774 20.4143 6.92805ZM21.764 3.8573C20.9994 4.08636 20.3538 4.59324 19.9456 5.26086C19.5374 4.59324 18.8918 4.08636 18.1271 3.8573H21.764ZM19.4768 6.92805C19.4768 7.62149 19.1695 8.25974 18.632 8.69293H15.786C15.254 8.26374 14.941 7.61774 14.941 6.92805C14.941 5.67749 15.9583 4.66011 17.2089 4.66011C18.4595 4.66011 19.4768 5.67749 19.4768 6.92805ZM16.2906 3.8573C15.526 4.08636 14.8804 4.59324 14.4722 5.26086C14.064 4.59324 13.4184 4.08636 12.6538 3.8573H16.2906ZM14.0035 6.92805C14.0035 7.61436 13.6904 8.2638 13.1596 8.69293H10.3126C9.78064 8.26374 9.46758 7.61774 9.46758 6.92805C9.46758 5.67749 10.485 4.66011 11.7355 4.66011C12.9861 4.66011 14.0035 5.67749 14.0035 6.92805ZM8.52783 3.8573H10.8173C9.49602 4.25317 8.53014 5.47961 8.53014 6.92805C8.53024 7.55568 8.71488 8.16942 9.06108 8.69293H7.21302V5.17217C7.21302 4.44711 7.80283 3.8573 8.52783 3.8573ZM17.5365 28.1428H10.3635V20.4383C10.3635 19.8599 10.834 19.3894 11.4124 19.3894H12.4324C13.0107 19.3894 13.4813 19.8599 13.4813 20.4383V26.6011C13.4805 26.6631 13.4921 26.7247 13.5154 26.7822C13.5386 26.8396 13.573 26.892 13.6166 26.9361C13.6602 26.9802 13.7121 27.0152 13.7694 27.0391C13.8266 27.063 13.888 27.0753 13.95 27.0753C14.012 27.0753 14.0734 27.063 14.1306 27.0391C14.1878 27.0152 14.2398 26.9802 14.2833 26.9361C14.3269 26.892 14.3614 26.8396 14.3846 26.7822C14.4078 26.7247 14.4194 26.6631 14.4187 26.6011V20.4383C14.4187 19.8599 14.8892 19.3894 15.4676 19.3894H16.4876C17.066 19.3894 17.5365 19.8599 17.5365 20.4383V28.1428ZM24.0543 27.2384C24.0543 27.7371 23.6486 28.1427 23.15 28.1427H19.3783C18.8796 28.1427 18.474 27.7371 18.474 27.2384V21.9206C18.4744 21.2394 18.6471 20.5694 18.976 19.9729L19.7638 18.5459C20.4771 17.3276 20.3825 15.6318 20.3825 15.6318H22.1458C22.1458 15.6318 22.0876 17.4847 22.7645 18.5459L23.5523 19.9729C23.8812 20.5694 24.0538 21.2394 24.0543 21.9206V27.2384ZM19.7438 14.1969C19.7438 13.9227 19.967 13.6995 20.2412 13.6995H22.2871C22.5614 13.6995 22.7845 13.9227 22.7845 14.1969C22.7845 14.4712 22.5614 14.6943 22.2871 14.6943H20.2412C19.967 14.6943 19.7438 14.4712 19.7438 14.1969ZM27.2049 26.8279C27.2049 27.5529 26.615 28.1427 25.89 28.1427H24.7536C24.91 27.867 24.9921 27.5554 24.9918 27.2384V21.9206C24.9913 21.081 24.7784 20.2551 24.3731 19.5197L23.5853 18.0927C23.2564 17.4962 23.0838 16.8262 23.0833 16.145V15.39C23.4681 15.1324 23.7221 14.6938 23.7221 14.1969C23.7221 13.4057 23.0784 12.762 22.2872 12.762H20.2413C19.4501 12.762 18.8064 13.4057 18.8064 14.1969C18.8064 14.6938 19.0603 15.1324 19.4451 15.39V16.145C19.4447 16.8262 19.272 17.4962 18.9432 18.0927L18.2016 19.4359C17.8564 18.8478 17.2176 18.4519 16.4878 18.4519H15.4678C14.8596 18.4519 14.3148 18.7268 13.9501 19.1586C13.5855 18.7268 13.0406 18.4519 12.4325 18.4519H11.4125C10.3173 18.4519 9.42614 19.343 9.42614 20.4382V28.1427H8.52795C7.80277 28.1427 7.21295 27.5529 7.21295 26.8279V11.8202H25.6965C25.9553 11.8202 26.1652 11.6104 26.1652 11.3515C26.1652 11.0925 25.9553 10.8827 25.6965 10.8827H7.21295V9.63043H27.2049V26.8279ZM27.2049 8.69293H25.3561C25.6975 8.1753 25.8878 7.56305 25.8878 6.92805C25.8878 5.47961 24.9219 4.25317 23.6006 3.8573H25.89C26.615 3.8573 27.2049 4.44711 27.2049 5.17217V8.69293Z" fill="#D6AE29"/>
<path d="M13.0197 6.45935H11.459C11.2001 6.45935 10.9902 6.66916 10.9902 6.9281C10.9902 7.18704 11.2001 7.39685 11.459 7.39685H13.0197C13.1441 7.39685 13.2633 7.34746 13.3512 7.25956C13.4391 7.17165 13.4885 7.05242 13.4885 6.9281C13.4885 6.80378 13.4391 6.68455 13.3512 6.59664C13.2633 6.50874 13.1441 6.45935 13.0197 6.45935ZM18.4931 6.45935H16.9324C16.6735 6.45935 16.4636 6.66916 16.4636 6.9281C16.4636 7.18704 16.6735 7.39685 16.9324 7.39685H18.4931C18.6174 7.39685 18.7367 7.34746 18.8246 7.25956C18.9125 7.17165 18.9619 7.05242 18.9619 6.9281C18.9619 6.80378 18.9125 6.68455 18.8246 6.59664C18.7367 6.50874 18.6174 6.45935 18.4931 6.45935ZM23.9665 6.45935H22.4057C22.1469 6.45935 21.937 6.66916 21.937 6.9281C21.937 7.18704 22.1469 7.39685 22.4057 7.39685H23.9665C24.0908 7.39685 24.21 7.34746 24.2979 7.25956C24.3858 7.17165 24.4352 7.05242 24.4352 6.9281C24.4352 6.80378 24.3858 6.68455 24.2979 6.59664C24.21 6.50874 24.0908 6.45935 23.9665 6.45935Z" fill="#D6AE29"/>
</svg>
