<svg width="30" height="28" viewBox="0 0 30 28" fill="none" xmlns="http://www.w3.org/2000/svg">
<path d="M28.5006 14.9998H28.0006V4.49961C28.0006 1.99953 26.0006 -0.000488281 23.5005 -0.000488281C21.2874 -0.000488281 19.6957 1.64052 19.5176 4.04497C18.3557 4.26458 17.5004 5.26527 17.5004 6.49963C17.5004 6.79964 17.7004 6.99962 18.0004 6.99962H22.0005C22.3005 6.99962 22.5005 6.79964 22.5005 6.49963C22.5005 5.27892 21.6641 4.28656 20.5219 4.05229C20.6713 2.46343 21.6256 0.999494 23.5005 0.999494C25.4506 0.999494 27.0006 2.54951 27.0006 4.49955V14.9998H11.9519C11.7257 13.8466 10.7286 12.9998 9.50024 12.9998C9.00025 12.3997 8.30022 11.9997 7.50022 11.9997C6.55022 11.9997 5.70018 12.5497 5.30015 13.3497C4.90012 13.1498 4.45011 12.9998 4.0001 12.9998C2.77178 12.9998 1.77461 13.8466 1.54843 14.9998H1.50003C0.649994 14.9998 0 15.6498 0 16.4998C0 17.3498 0.649994 17.9998 1.50003 17.9998H2.10092L3.45007 23.35C3.8501 24.9 5.25011 26 6.85017 26H7.25019L6.6002 27.3001C6.4502 27.5501 6.55022 27.8501 6.80018 27.9501C6.85017 28.0001 6.95019 28.0001 7.00017 28.0001C7.20015 28.0001 7.35016 27.9 7.45018 27.75L8.32518 26H22.2005L23.0505 27.7001C23.1505 27.9 23.3005 28.0001 23.5005 28.0001C23.6005 28.0001 23.6505 28.0001 23.7005 27.9001C23.9005 27.8 24.0005 27.5 23.9005 27.2501L23.2742 25.9974C24.8222 25.9424 26.1609 24.8612 26.5506 23.4L27.9123 17.9998H28.5006C29.3506 17.9998 30.0006 17.3498 30.0006 16.4998C30.0006 15.6498 29.3506 14.9998 28.5006 14.9998ZM21.4505 5.99964H18.6004C18.8004 5.39963 19.4004 4.9996 20.0504 4.9996C20.7005 4.9996 21.2505 5.39963 21.4505 5.99964ZM4.0001 13.9998C4.45011 13.9998 4.85014 14.1998 5.20013 14.5498C5.30015 14.6998 5.50014 14.7498 5.70012 14.6998C5.90011 14.6498 6.00013 14.4998 6.05011 14.2998C6.20011 13.5498 6.80013 12.9998 7.55014 12.9998C8.10017 12.9998 8.60016 13.2498 8.85019 13.7498C8.95021 13.9498 9.20018 14.0498 9.40022 13.9998H9.55022C10.2002 13.9998 10.7502 14.3998 10.9502 14.9998H2.60004C2.80008 14.3998 3.35005 13.9998 4.0001 13.9998ZM25.6505 23.1C25.3505 24.2 24.3505 25.0001 23.2005 25.0001H6.90015C5.7501 25.0001 4.75012 24.2001 4.45011 23.1L3.15007 17.9999H26.8506L25.6505 23.1ZM28.5006 16.9999H1.50003C1.20003 16.9999 1.00004 16.7999 1.00004 16.4999C1.00004 16.1999 1.20003 15.9999 1.50003 15.9999H28.5006C28.8006 15.9999 29.0006 16.1999 29.0006 16.4999C29.0006 16.7999 28.8006 16.9999 28.5006 16.9999Z" fill="#D6AE29"/>
<path d="M18 9.24976C18.3 9.24976 18.5 9.04978 18.5 8.74977V8.49975C18.5 8.19974 18.3 7.99976 18 7.99976C17.7 7.99976 17.5 8.19974 17.5 8.49975V8.74977C17.5 9.04978 17.7 9.24976 18 9.24976ZM18 11.5499C18.3 11.5499 18.5 11.2998 18.5 11.0499V10.4998C18.5 10.1998 18.3 9.99984 18 9.99984C17.7 9.99984 17.5 10.1998 17.5 10.4998V11.0499C17.5 11.3498 17.7 11.5499 18 11.5499ZM18 13.4999C18.3 13.4999 18.5 13.2999 18.5 12.9999V12.7499C18.5 12.4499 18.3 12.2499 18 12.2499C17.7 12.2499 17.5 12.4499 17.5 12.7499V12.9999C17.5 13.2998 17.7 13.4999 18 13.4999ZM20 9.24976C20.3 9.24976 20.5 9.04978 20.5 8.74977V8.49975C20.5 8.19974 20.3 7.99976 20 7.99976C19.7 7.99976 19.5 8.19974 19.5 8.49975V8.74977C19.5 9.04978 19.7 9.24976 20 9.24976ZM19.5 11.0498C19.5 11.3498 19.7 11.5498 20 11.5498C20.3 11.5498 20.5 11.2998 20.5 11.0498V10.4998C20.5 10.1998 20.3 9.99978 20 9.99978C19.7 9.99978 19.5 10.1998 19.5 10.4998V11.0498ZM19.5 12.9998C19.5 13.2998 19.7 13.4998 20 13.4998C20.3 13.4998 20.5 13.2998 20.5 12.9998V12.7498C20.5 12.4498 20.3 12.2498 20 12.2498C19.7 12.2498 19.5 12.4498 19.5 12.7498V12.9998ZM22.0001 9.24976C22.3001 9.24976 22.5001 9.04978 22.5001 8.74977V8.49975C22.5001 8.19974 22.3001 7.99976 22.0001 7.99976C21.7001 7.99976 21.5001 8.19974 21.5001 8.49975V8.74977C21.5 9.04978 21.7001 9.24976 22.0001 9.24976ZM21.5 11.0498C21.5 11.3498 21.7 11.5498 22 11.5498C22.3 11.5498 22.5001 11.2998 22.5001 11.0498V10.4998C22.5001 10.1998 22.3001 9.99978 22.0001 9.99978C21.7001 9.99978 21.5001 10.1998 21.5001 10.4998L21.5 11.0498ZM21.5 12.9998C21.5 13.2998 21.7 13.4998 22 13.4998C22.3 13.4998 22.5 13.2998 22.5 12.9998V12.7498C22.5 12.4498 22.3 12.2498 22 12.2498C21.7 12.2498 21.5 12.4498 21.5 12.7498V12.9998Z" fill="#D6AE29"/>
</svg>
