<svg width="30" height="26" viewBox="0 0 30 26" fill="none" xmlns="http://www.w3.org/2000/svg">
<path d="M27.2789 12.7522V3.90344C27.2789 1.75104 25.5278 0 23.3754 0H6.50916C4.35677 0 2.60573 1.7511 2.60573 3.90344V12.8663C1.56318 13.9563 0.921875 15.4331 0.921875 17.0568V23.7664C0.921875 24.9981 1.92389 26.0001 3.15559 26.0001C4.38723 26.0001 5.38925 24.9981 5.38925 23.7664V23.0735H24.6076V23.7664C24.6076 24.9981 25.6097 26.0001 26.8413 26.0001C28.0729 26.0001 29.075 24.9981 29.075 23.7664V17.0568C29.075 15.3756 28.3874 13.852 27.2789 12.7522ZM6.50916 1.09973H23.3754C24.9214 1.09973 26.1791 2.35749 26.1791 3.90344V11.8868C25.8402 11.678 25.4814 11.5031 25.1081 11.3649V9.53636C25.1081 7.91536 23.7893 6.59656 22.1683 6.59656H17.3884C16.4044 6.59656 15.5323 7.08303 14.9985 7.8276C14.4646 7.08303 13.5926 6.59656 12.6085 6.59656H7.82867C6.20767 6.59656 4.88888 7.9153 4.88888 9.53636V11.3649C4.47394 11.5185 4.07711 11.7173 3.70551 11.9575V3.90344C3.70546 2.35749 4.96316 1.09973 6.50916 1.09973ZM6.9887 10.99C6.64806 10.99 6.31396 11.0187 5.98849 11.0729V9.53636C5.98849 8.52175 6.81395 7.69629 7.82856 7.69629H12.6084C13.623 7.69629 14.4485 8.52175 14.4485 9.53636V10.99H6.9887V10.99ZM15.5483 9.53631C15.5483 8.5217 16.3737 7.69624 17.3883 7.69624H22.1682C23.1828 7.69624 24.0083 8.5217 24.0083 9.53631V11.0728C23.6777 11.0177 23.3432 10.99 23.0081 10.9899H15.5483V9.53631ZM6.9887 12.0897H23.0081C25.747 12.0897 27.9752 14.3179 27.9752 17.0568V18.6881H22.4602C22.1566 18.6881 21.9104 18.9343 21.9104 19.238C21.9104 19.5416 22.1566 19.7878 22.4602 19.7878H27.9752V21.9738H2.0216V19.7878H16.9616C17.2653 19.7878 17.5115 19.5416 17.5115 19.238C17.5115 18.9343 17.2653 18.6881 16.9616 18.6881H2.0216V17.0568C2.0216 14.3179 4.24982 12.0897 6.9887 12.0897ZM4.28952 23.7664C4.28952 24.3917 3.78084 24.9004 3.15559 24.9004C2.53034 24.9004 2.0216 24.3917 2.0216 23.7664V23.0735H4.28952V23.7664ZM26.8412 24.9004C26.216 24.9004 25.7073 24.3917 25.7073 23.7664V23.0735H27.9752V23.7664C27.9752 24.3917 27.4665 24.9004 26.8412 24.9004Z" fill="#D6AE29"/>
</svg>
