<svg width="32" height="32" viewBox="0 0 32 32" fill="none" xmlns="http://www.w3.org/2000/svg">
<path d="M23.5 25.5C22.397 25.5 21.5 26.397 21.5 27.5C21.5 28.603 22.397 29.5 23.5 29.5C24.603 29.5 25.5 28.603 25.5 27.5C25.5 26.397 24.603 25.5 23.5 25.5ZM23.5 28.5C22.9485 28.5 22.5 28.0515 22.5 27.5C22.5 26.9485 22.9485 26.5 23.5 26.5C24.0515 26.5 24.5 26.9485 24.5 27.5C24.5 28.0515 24.0515 28.5 23.5 28.5ZM8.5 25.5C7.397 25.5 6.5 26.397 6.5 27.5C6.5 28.603 7.397 29.5 8.5 29.5C9.603 29.5 10.5 28.603 10.5 27.5C10.5 26.397 9.603 25.5 8.5 25.5ZM8.5 28.5C7.9485 28.5 7.5 28.0515 7.5 27.5C7.5 26.9485 7.9485 26.5 8.5 26.5C9.0515 26.5 9.5 26.9485 9.5 27.5C9.5 28.0515 9.0515 28.5 8.5 28.5ZM18.8575 15.3535C18.673 15.0901 18.4278 14.875 18.1426 14.7264C17.8574 14.5778 17.5406 14.5002 17.219 14.5H11.781C11.4595 14.5001 11.1427 14.5778 10.8576 14.7263C10.5724 14.8749 10.3273 15.09 10.143 15.3535L7.091 19.7135C7.03848 19.7884 7.00757 19.8763 7.00166 19.9676C6.99575 20.0588 7.01507 20.15 7.0575 20.231C7.1425 20.3965 7.3135 20.5 7.5 20.5H21.5C21.5915 20.5002 21.6814 20.4753 21.7597 20.4279C21.838 20.3805 21.9018 20.3126 21.9441 20.2314C21.9864 20.1502 22.0056 20.059 21.9996 19.9677C21.9936 19.8763 21.9626 19.7884 21.91 19.7135L18.8575 15.3535ZM10.962 15.9265C11.0542 15.7948 11.1768 15.6874 11.3194 15.6131C11.4619 15.5389 11.6203 15.5001 11.781 15.5H14V19.5H8.4605L10.962 15.9265ZM15 19.5V15.5H17.219C17.5445 15.5 17.851 15.6595 18.038 15.9265L20.5395 19.5H15ZM14 21.5H16V22.5H14V21.5ZM7 21.5H9V22.5H7V21.5Z" fill="#D6AE29"/>
<path d="M30 13.5C30.827 13.5 31.5 12.827 31.5 12V2C31.5 1.173 30.827 0.5 30 0.5H23C22.173 0.5 21.5 1.173 21.5 2V12C21.5 12.827 22.173 13.5 23 13.5H25V19.203L24.284 19.05L20.297 13.866C19.969 13.4423 19.5487 13.099 19.0679 12.8622C18.5872 12.6255 18.0588 12.5016 17.523 12.5H11.477C10.9411 12.5017 10.4126 12.6256 9.93185 12.8623C9.45106 13.099 9.03061 13.4423 8.7025 13.866L4.674 19.104L0.7765 21.0525C0.607 21.1375 0.5 21.3105 0.5 21.5V26.5C0.5 27.327 1.173 28 2 28H4.5345C4.782 29.97 6.464 31.5 8.5 31.5C10.536 31.5 12.218 29.97 12.4655 28H19.535C19.7825 29.97 21.4645 31.5 23.5005 31.5C25.5365 31.5 27.2185 29.97 27.466 28H30C30.827 28 31.5 27.327 31.5 26.5V23.021C31.4972 22.3354 31.2607 21.6712 30.8297 21.138C30.3987 20.6048 29.7988 20.2344 29.129 20.088L28 19.846V13.5H30ZM22.5 12V2C22.5 1.7245 22.724 1.5 23 1.5H30C30.276 1.5 30.5 1.7245 30.5 2V12C30.5 12.2755 30.276 12.5 30 12.5H23C22.724 12.5 22.5 12.2755 22.5 12ZM2.5 21.309V25H1.5V21.809L2.5 21.309ZM8.5 30.5C6.8455 30.5 5.5 29.1545 5.5 27.5C5.5 25.8455 6.8455 24.5 8.5 24.5C10.1545 24.5 11.5 25.8455 11.5 27.5C11.5 29.1545 10.1545 30.5 8.5 30.5ZM23.5 30.5C21.8455 30.5 20.5 29.1545 20.5 27.5C20.5 25.8455 21.8455 24.5 23.5 24.5C25.1545 24.5 26.5 25.8455 26.5 27.5C26.5 29.1545 25.1545 30.5 23.5 30.5ZM30.5 23.021V24H29.5V23H30.498C30.498 23.007 30.5 23.014 30.5 23.021ZM30.2125 22H29C28.8674 22 28.7402 22.0527 28.6464 22.1464C28.5527 22.2402 28.5 22.3674 28.5 22.5V24.5C28.5 24.6326 28.5527 24.7598 28.6464 24.8536C28.7402 24.9473 28.8674 25 29 25H30.5V26.5C30.5 26.6326 30.4473 26.7598 30.3536 26.8536C30.2598 26.9473 30.1326 27 30 27H27.4655C27.218 25.03 25.536 23.5 23.5 23.5C21.464 23.5 19.782 25.03 19.5345 27H12.4655C12.218 25.03 10.536 23.5 8.5 23.5C6.464 23.5 4.782 25.03 4.5345 27H2C1.86739 27 1.74021 26.9473 1.64645 26.8536C1.55268 26.7598 1.5 26.6326 1.5 26.5V26H3C3.13261 26 3.25979 25.9473 3.35355 25.8536C3.44732 25.7598 3.5 25.6326 3.5 25.5V20.809L5.2235 19.947C5.291 19.9135 5.35 19.8645 5.3965 19.8045L9.4955 14.4755C9.72978 14.1728 10.0301 13.9277 10.3734 13.7586C10.7168 13.5896 11.0943 13.5011 11.477 13.5H17.523C18.294 13.5 19.0345 13.8645 19.5045 14.476L23.6035 19.805C23.676 19.899 23.7795 19.964 23.895 19.989L28.919 21.0655C29.474 21.1845 29.934 21.535 30.2125 22ZM27 19.6315L26 19.417V13.5H27V19.6315Z" fill="#D6AE29"/>
<path d="M27 3.5H24.5C24.3674 3.5 24.2402 3.55268 24.1464 3.64645C24.0527 3.74021 24 3.86739 24 4V10H25V7.5H27C28.103 7.5 29 6.603 29 5.5C29 4.397 28.103 3.5 27 3.5ZM27 6.5H25V4.5H27C27.5515 4.5 28 4.9485 28 5.5C28 6.0515 27.5515 6.5 27 6.5Z" fill="#D6AE29"/>
</svg>
