<svg width="32" height="32" viewBox="0 0 32 32" fill="none" xmlns="http://www.w3.org/2000/svg">
<g clip-path="url(#clip0_7021_5638)">
<path d="M30.9333 4.26667H29.7685C29.6586 3.95578 29.4553 3.68645 29.1865 3.49551C28.9177 3.30458 28.5964 3.20137 28.2667 3.2H26.1333C25.709 3.2 25.302 3.36857 25.002 3.66863C24.7019 3.96869 24.5333 4.37565 24.5333 4.8V10.1333C24.5347 10.4631 24.6379 10.7843 24.8288 11.0532C25.0198 11.322 25.2891 11.5253 25.6 11.6352V22.9333C25.6 23.0748 25.5438 23.2104 25.4438 23.3105C25.3438 23.4105 25.2081 23.4667 25.0667 23.4667C24.9252 23.4667 24.7896 23.4105 24.6895 23.3105C24.5895 23.2104 24.5333 23.0748 24.5333 22.9333V18.6667C24.5333 18.1009 24.3086 17.5583 23.9085 17.1582C23.5084 16.7581 22.9658 16.5333 22.4 16.5333H20.2667V2.13333C20.2667 1.56754 20.0419 1.02492 19.6418 0.624839C19.2418 0.224761 18.6991 0 18.1333 0L4.26667 0C3.70087 0 3.15825 0.224761 2.75817 0.624839C2.35809 1.02492 2.13333 1.56754 2.13333 2.13333V27.7333H1.6C1.17565 27.7333 0.768687 27.9019 0.468629 28.202C0.168571 28.502 0 28.909 0 29.3333L0 30.4C0 30.8243 0.168571 31.2313 0.468629 31.5314C0.768687 31.8314 1.17565 32 1.6 32H20.8C21.2243 32 21.6313 31.8314 21.9314 31.5314C22.2314 31.2313 22.4 30.8243 22.4 30.4V29.3333C22.4 28.909 22.2314 28.502 21.9314 28.202C21.6313 27.9019 21.2243 27.7333 20.8 27.7333H20.2667V19.7333H21.3333V22.9333C21.3333 23.9235 21.7267 24.8731 22.4268 25.5732C23.1269 26.2733 24.0765 26.6667 25.0667 26.6667C26.0568 26.6667 27.0064 26.2733 27.7065 25.5732C28.4067 24.8731 28.8 23.9235 28.8 22.9333V11.6352C29.1109 11.5253 29.3802 11.322 29.5712 11.0532C29.7621 10.7843 29.8653 10.4631 29.8667 10.1333V7.46667H30.9333C31.2162 7.46667 31.4875 7.35429 31.6876 7.15425C31.8876 6.95421 32 6.6829 32 6.4V5.33333C32 5.05044 31.8876 4.77913 31.6876 4.57909C31.4875 4.37905 31.2162 4.26667 30.9333 4.26667ZM4.26667 1.06667H18.1333C18.4162 1.06667 18.6875 1.17905 18.8876 1.37909C19.0876 1.57912 19.2 1.85044 19.2 2.13333V14.4H3.2V2.13333C3.2 1.85044 3.31238 1.57912 3.51242 1.37909C3.71246 1.17905 3.98377 1.06667 4.26667 1.06667ZM21.3333 29.3333V30.4C21.3333 30.5415 21.2771 30.6771 21.1771 30.7771C21.0771 30.8771 20.9414 30.9333 20.8 30.9333H1.6C1.45855 30.9333 1.3229 30.8771 1.22288 30.7771C1.12286 30.6771 1.06667 30.5415 1.06667 30.4V29.3333C1.06667 29.1919 1.12286 29.0562 1.22288 28.9562C1.3229 28.8562 1.45855 28.8 1.6 28.8H20.8C20.9414 28.8 21.0771 28.8562 21.1771 28.9562C21.2771 29.0562 21.3333 29.1919 21.3333 29.3333ZM3.2 27.7333V15.4667H19.2V27.7333H3.2ZM25.0667 25.6C24.3597 25.5992 23.6819 25.3179 23.182 24.818C22.6821 24.3181 22.4008 23.6403 22.4 22.9333V19.7333C22.4 19.4504 22.2876 19.1791 22.0876 18.9791C21.8875 18.779 21.6162 18.6667 21.3333 18.6667H20.2667V17.6H22.4C22.6829 17.6 22.9542 17.7124 23.1542 17.9124C23.3543 18.1125 23.4667 18.3838 23.4667 18.6667V22.9333C23.4667 23.3577 23.6352 23.7646 23.9353 24.0647C24.2354 24.3648 24.6423 24.5333 25.0667 24.5333C25.491 24.5333 25.898 24.3648 26.198 24.0647C26.4981 23.7646 26.6667 23.3577 26.6667 22.9333V11.7333H27.7333V22.9333C27.7325 23.6403 27.4513 24.3181 26.9514 24.818C26.4514 25.3179 25.7737 25.5992 25.0667 25.6ZM28.8 10.1333C28.8 10.2748 28.7438 10.4104 28.6438 10.5105C28.5438 10.6105 28.4081 10.6667 28.2667 10.6667H26.1333C25.9919 10.6667 25.8562 10.6105 25.7562 10.5105C25.6562 10.4104 25.6 10.2748 25.6 10.1333V4.8C25.6 4.65855 25.6562 4.5229 25.7562 4.42288C25.8562 4.32286 25.9919 4.26667 26.1333 4.26667H28.2667C28.4081 4.26667 28.5438 4.32286 28.6438 4.42288C28.7438 4.5229 28.8 4.65855 28.8 4.8V10.1333ZM30.9333 6.4H29.8667V5.33333H30.9333V6.4Z" fill="#D6AE29"/>
<path d="M16.533 19.7333C16.8494 19.7333 17.1588 19.6395 17.4219 19.4637C17.685 19.2879 17.8901 19.038 18.0112 18.7456C18.1323 18.4532 18.164 18.1315 18.1022 17.8212C18.0405 17.5108 17.8881 17.2257 17.6643 17.0019C17.4406 16.7782 17.1555 16.6258 16.8451 16.5641C16.5347 16.5023 16.213 16.534 15.9207 16.6551C15.6283 16.7762 15.3784 16.9813 15.2026 17.2444C15.0268 17.5075 14.933 17.8169 14.933 18.1333C14.933 18.5577 15.1015 18.9646 15.4016 19.2647C15.7017 19.5647 16.1086 19.7333 16.533 19.7333ZM16.533 17.6C16.6385 17.6 16.7416 17.6313 16.8293 17.6899C16.917 17.7485 16.9853 17.8318 17.0257 17.9292C17.0661 18.0267 17.0766 18.1339 17.0561 18.2374C17.0355 18.3408 16.9847 18.4358 16.9101 18.5104C16.8355 18.585 16.7405 18.6358 16.637 18.6564C16.5336 18.677 16.4263 18.6664 16.3289 18.626C16.2314 18.5857 16.1481 18.5173 16.0895 18.4296C16.0309 18.3419 15.9996 18.2388 15.9996 18.1333C15.9996 17.9919 16.0558 17.8562 16.1558 17.7562C16.2559 17.6562 16.3915 17.6 16.533 17.6ZM16.533 20.8C16.2165 20.8 15.9072 20.8938 15.6441 21.0696C15.3809 21.2454 15.1759 21.4953 15.0548 21.7877C14.9337 22.08 14.902 22.4018 14.9637 22.7121C15.0255 23.0225 15.1778 23.3076 15.4016 23.5313C15.6254 23.7551 15.9105 23.9075 16.2208 23.9692C16.5312 24.031 16.8529 23.9993 17.1453 23.8782C17.4376 23.7571 17.6875 23.552 17.8633 23.2889C18.0391 23.0258 18.133 22.7164 18.133 22.4C18.133 21.9756 17.9644 21.5687 17.6643 21.2686C17.3643 20.9685 16.9573 20.8 16.533 20.8ZM16.533 22.9333C16.4275 22.9333 16.3244 22.902 16.2367 22.8434C16.149 22.7848 16.0806 22.7015 16.0402 22.6041C15.9999 22.5066 15.9893 22.3994 16.0099 22.2959C16.0305 22.1925 16.0813 22.0974 16.1558 22.0229C16.2304 21.9483 16.3255 21.8975 16.4289 21.8769C16.5324 21.8563 16.6396 21.8669 16.7371 21.9072C16.8345 21.9476 16.9178 22.016 16.9764 22.1037C17.035 22.1914 17.0663 22.2945 17.0663 22.4C17.0663 22.5414 17.0101 22.6771 16.9101 22.7771C16.8101 22.8771 16.6744 22.9333 16.533 22.9333ZM11.6567 5.60798C11.7265 5.48688 11.746 5.34322 11.711 5.2079C11.676 5.07258 11.5892 4.95642 11.4694 4.88442C11.3496 4.81242 11.2063 4.79034 11.0704 4.82292C10.9344 4.8555 10.8167 4.94015 10.7426 5.05864L9.14257 7.72531C9.09396 7.80623 9.06769 7.8986 9.06645 7.99299C9.06522 8.08738 9.08905 8.1804 9.13553 8.26257C9.18201 8.34473 9.24946 8.41309 9.331 8.46065C9.41254 8.50822 9.50524 8.53329 9.59964 8.53331H11.8572L10.7426 10.392C10.705 10.452 10.6797 10.519 10.6683 10.5889C10.6569 10.6588 10.6595 10.7303 10.676 10.7992C10.6926 10.8681 10.7226 10.933 10.7645 10.9902C10.8064 11.0473 10.8592 11.0955 10.92 11.132C10.9807 11.1685 11.0481 11.1926 11.1182 11.2027C11.1883 11.2129 11.2598 11.209 11.3283 11.1912C11.3969 11.1735 11.4613 11.1422 11.5177 11.0993C11.574 11.0564 11.6213 11.0027 11.6567 10.9413L13.2567 8.27464C13.3053 8.19373 13.3316 8.10135 13.3328 8.00696C13.3341 7.91257 13.3102 7.81955 13.2637 7.73738C13.2173 7.65522 13.1498 7.58686 13.0683 7.5393C12.9867 7.49173 12.894 7.46666 12.7996 7.46664H10.542L11.6567 5.60798Z" fill="#D6AE29"/>
<path d="M11.2005 13.3333C12.6145 13.3317 13.9702 12.7693 14.97 11.7695C15.9699 10.7696 16.5323 9.41397 16.5339 7.99996C16.5362 7.17732 16.3462 6.36552 15.9792 5.62929C15.9483 5.56604 15.9053 5.50953 15.8525 5.463C15.7997 5.41646 15.7382 5.38084 15.6716 5.35818C15.605 5.33551 15.5345 5.32626 15.4643 5.33094C15.3941 5.33563 15.3255 5.35416 15.2625 5.38548C15.1995 5.41679 15.1433 5.46027 15.0971 5.51341C15.051 5.56654 15.0158 5.62828 14.9937 5.69506C14.9715 5.76185 14.9628 5.83237 14.968 5.90254C14.9732 5.97272 14.9922 6.04117 15.024 6.10396C15.3175 6.69277 15.4693 7.34205 15.4672 7.99996C15.4672 8.84383 15.217 9.66874 14.7481 10.3704C14.2793 11.072 13.6129 11.6189 12.8333 11.9418C12.0537 12.2648 11.1958 12.3493 10.3681 12.1846C9.54048 12.02 8.78024 11.6137 8.18353 11.0169C7.58683 10.4202 7.18047 9.66 7.01584 8.83234C6.85121 8.00469 6.9357 7.14681 7.25864 6.36718C7.58157 5.58755 8.12844 4.92118 8.83009 4.45236C9.53174 3.98353 10.3567 3.73329 11.2005 3.73329C11.342 3.73329 11.4776 3.6771 11.5776 3.57708C11.6777 3.47706 11.7339 3.34141 11.7339 3.19996C11.7339 3.05851 11.6777 2.92286 11.5776 2.82284C11.4776 2.72282 11.342 2.66663 11.2005 2.66663C9.78603 2.66663 8.42948 3.22853 7.42928 4.22872C6.42909 5.22892 5.86719 6.58547 5.86719 7.99996C5.86719 9.41445 6.42909 10.771 7.42928 11.7712C8.42948 12.7714 9.78603 13.3333 11.2005 13.3333Z" fill="#D6AE29"/>
</g>
<defs>
<clipPath id="clip0_7021_5638">
<rect width="32" height="32" fill="white"/>
</clipPath>
</defs>
</svg>
