<svg width="20" height="20" viewBox="0 0 20 20" fill="none" xmlns="http://www.w3.org/2000/svg">
<path d="M14.582 1.66797H6.66536C4.82442 1.66797 3.33203 3.16035 3.33203 5.0013V15.0013C3.33203 16.8423 4.82442 18.3346 6.66536 18.3346H14.582C16.423 18.3346 17.9154 16.8423 17.9154 15.0013V5.0013C17.9154 3.16035 16.423 1.66797 14.582 1.66797Z" stroke="#D6AE29" stroke-width="1.5"/>
<path d="M8.825 11.4493C8.30104 11.8003 6.92717 12.5171 7.76395 13.4139C8.17271 13.852 8.628 14.1653 9.20033 14.1653H12.4663C13.0387 14.1653 13.494 13.852 13.9027 13.4139C14.7395 12.5171 13.3657 11.8003 12.8417 11.4493C11.6129 10.6263 10.0537 10.6263 8.825 11.4493Z" stroke="#D6AE29" stroke-width="1.5"/>
<path d="M12.5013 7.4987C12.5013 8.4192 11.7551 9.16536 10.8346 9.16536C9.91414 9.16536 9.16797 8.4192 9.16797 7.4987C9.16797 6.57822 9.91414 5.83203 10.8346 5.83203C11.7551 5.83203 12.5013 6.57822 12.5013 7.4987Z" stroke="#D6AE29" stroke-width="1.5"/>
<path d="M4.16536 5H2.08203M4.16536 10H2.08203M4.16536 15H2.08203" stroke="#D6AE29" stroke-width="1.5" stroke-linecap="round" stroke-linejoin="round"/>
</svg>
