<svg width="38" height="25" viewBox="0 0 38 25" fill="none" xmlns="http://www.w3.org/2000/svg">
<rect x="0.472656" y="0.75" width="37" height="23.5" rx="2.75" fill="white"/>
<rect x="0.472656" y="0.75" width="37" height="23.5" rx="2.75" stroke="#D2D2D5" stroke-width="0.5"/>
<path d="M29.069 12.5695C29.069 7.78996 25.0795 4.48635 20.7084 4.48779H16.9468C12.5235 4.48621 8.88281 7.79092 8.88281 12.5695C8.88281 16.9412 12.5235 20.533 16.9468 20.5118H20.7084C25.0793 20.5328 29.069 16.94 29.069 12.5695Z" fill="#0079BE"/>
<path d="M16.9662 5.16479C12.9244 5.16609 9.6494 8.44883 9.64844 12.5004C9.6494 16.5512 12.9246 19.8335 16.9662 19.835C21.009 19.8337 24.285 16.5512 24.2855 12.5004C24.2849 8.44883 21.0091 5.16624 16.9662 5.16479Z" fill="white"/>
<path d="M12.3398 12.4806C12.3437 10.5007 13.5776 8.81246 15.3177 8.14165V16.8186C13.5776 16.148 12.3436 14.4606 12.3398 12.4806ZM18.6379 16.8207V8.14136C20.3786 8.81059 21.6146 10.4999 21.6177 12.4806C21.6146 14.462 20.3786 16.15 18.6379 16.8205V16.8207Z" fill="#0079BE"/>
</svg>
