<svg width="35" height="25" viewBox="0 0 35 25" fill="none" xmlns="http://www.w3.org/2000/svg">
<rect x="0.273438" y="0.75" width="34.2119" height="23.5" rx="2.75" fill="white"/>
<rect x="0.273438" y="0.75" width="34.2119" height="23.5" rx="2.75" stroke="#D2D2D5" stroke-width="0.5"/>
<path d="M20.9967 12.4865C20.9995 11.8332 20.7545 11.179 20.2616 10.686C19.7675 10.1919 19.1117 9.9472 18.457 9.95113C18.4539 9.95113 18.4508 9.95093 18.4476 9.95093C17.026 9.95093 15.8984 11.0782 15.8984 12.5002C15.8984 13.9081 17.0399 15.0493 18.4476 15.0493C19.8696 15.0493 20.997 13.9218 20.997 12.5002C20.997 12.4955 20.9967 12.4911 20.9967 12.4865Z" fill="#F26E21"/>
<path d="M15.4261 13.5791C15.0451 13.9605 14.6934 14.1095 14.3146 14.1176C13.3919 14.1093 12.7134 13.4259 12.7134 12.4516C12.7134 11.9612 12.8991 11.5592 13.1933 11.2158C13.4692 10.9539 13.8245 10.7847 14.2332 10.7847C14.6744 10.7847 15.0177 10.9318 15.4096 11.324V10.1964C15.0178 10.0004 14.6743 9.90234 14.2332 9.90234C13.61 9.94689 13.0224 10.1987 12.5717 10.5941C12.4418 10.711 12.3174 10.84 12.2118 10.9876C11.8826 11.4143 11.6836 11.9369 11.6836 12.5009C11.6836 13.9223 12.8115 15.0009 14.2332 15.0009C14.2401 15.0009 14.2469 15.0002 14.2536 15.0002C14.2632 15.0003 14.2726 15.0009 14.2821 15.0009C14.6742 15.0009 15.0177 14.903 15.4588 14.7069L15.4261 13.5791C15.4096 13.5956 15.4425 13.611 15.4261 13.6267V13.5791Z" fill="#070707"/>
<path d="M24.219 10.6046L23.1088 13.3343L21.834 10.0984H20.8047L22.8146 15.0499H23.3538L25.4619 10.0984H24.4326L24.219 10.6046Z" fill="#070707"/>
<path d="M25.8516 12.2555V14.9031H28.499H28.5478V14.1184H27.7145H26.832V13.2362V12.7951H28.499V11.9614H26.832V10.9319H28.5478V10.0984H25.8516V12.2555Z" fill="#070707"/>
<path d="M3.69326 10.0984H2.32031V14.9031H3.69319C4.42845 14.9031 4.96763 14.7068 5.40885 14.3636C5.94804 13.9224 6.29136 13.2362 6.29136 12.501C6.29143 11.0789 5.26174 10.0984 3.69326 10.0984ZM4.82072 13.7265C4.52655 13.9715 4.13435 14.1184 3.54601 14.1184H3.25184V10.9319H3.49692C4.08526 10.9319 4.47746 11.0299 4.7717 11.3239C5.11482 11.6179 5.31102 12.0594 5.31102 12.5008C5.36004 12.942 5.16397 13.432 4.82072 13.7265Z" fill="#070707"/>
<path d="M7.66583 10.0977H6.73438V14.9022H7.66583V10.0977Z" fill="#070707"/>
<path d="M10.0158 11.961C9.42764 11.765 9.28038 11.6178 9.28038 11.3728C9.28038 11.0786 9.57455 10.8335 9.96676 10.8335C10.2609 10.8335 10.506 10.9316 10.7512 11.2258L11.2415 10.5885C10.8492 10.2452 10.3592 10.0493 9.81984 10.0493C8.98621 10.0493 8.29984 10.6377 8.29984 11.4218C8.29984 12.1083 8.59428 12.4024 9.47659 12.7456C9.86879 12.8924 10.0159 12.9417 10.1141 13.0397C10.3099 13.1376 10.4081 13.3339 10.4081 13.5297C10.4081 13.922 10.1141 14.2162 9.67265 14.2162C9.23103 14.2162 8.83916 13.9711 8.64303 13.5789L8.05469 14.1672C8.49611 14.8045 9.03537 15.0986 9.72174 15.0986C10.7021 15.0986 11.3882 14.4613 11.3882 13.5297C11.3883 12.6965 11.0944 12.3533 10.0158 11.961Z" fill="#070707"/>
<path d="M31.1977 12.8928C31.9328 12.7459 32.3251 12.2555 32.3251 11.5203C32.3251 10.638 31.6877 10.0984 30.6093 10.0984H29.1875V14.9031H30.119V12.9909H30.2662L31.5895 14.9031H32.7173L31.1977 12.8928ZM30.413 12.3044H30.119V10.8338H30.413C31.0013 10.8338 31.3447 11.0789 31.3447 11.5694C31.3447 12.0595 31.0014 12.3044 30.413 12.3044Z" fill="#070707"/>
</svg>
