<svg width="18" height="12" viewBox="0 0 18 12" fill="none" xmlns="http://www.w3.org/2000/svg">
<path d="M16.0335 0H1.9668C1.13803 0 0.466797 0.6754 0.466797 1.5V10.5C0.466797 11.3295 1.14296 12 1.9668 12H16.0335C16.8553 12 17.5335 11.3323 17.5335 10.5V1.5C17.5335 0.676867 16.8649 0 16.0335 0ZM15.8234 1L10.0608 6.73223C9.77746 7.01557 9.4008 7.17157 9.00013 7.17157C8.59946 7.17157 8.2228 7.01553 7.93853 6.7313L2.17686 1H15.8234ZM1.4668 10.2965V1.70417L5.78806 6.00267L1.4668 10.2965ZM2.1775 11L6.49706 6.7079L7.23236 7.43933C7.70456 7.91153 8.33236 8.17157 9.00013 8.17157C9.6679 8.17157 10.2957 7.91153 10.767 7.44027L11.5032 6.7079L15.8228 11H2.1775ZM16.5335 10.2965L12.2122 6.00267L16.5335 1.70417V10.2965Z" fill="#4A4C56"/>
</svg>
