<svg width="30" height="24" viewBox="0 0 30 24" fill="none" xmlns="http://www.w3.org/2000/svg">
<path d="M28.771 3.56043H27.3638V2.39104C27.3638 1.46395 26.6096 0.709717 25.6825 0.709717H24.3414C23.4143 0.709717 22.6601 1.46395 22.6601 2.39104V7.20491H20.4126V5.9125C20.4126 4.97452 19.6495 4.2115 18.7116 4.2115C18.3569 4.2112 18.0111 4.32252 17.7232 4.52968C17.4492 3.95702 16.864 3.56043 16.1879 3.56043C15.5487 3.56043 14.9909 3.9148 14.7003 4.4374C14.4132 4.216 14.054 4.08361 13.6642 4.08361C13.0725 4.08361 12.551 4.38757 12.2462 4.84722C11.9486 4.59192 11.5624 4.43722 11.1405 4.43722C10.2025 4.43722 9.43948 5.20024 9.43948 6.13822V7.20502H7.34007V5.96531C7.34007 5.72272 7.14345 5.52616 6.90091 5.52616C6.65838 5.52616 6.46176 5.72272 6.46176 5.96531V16.1673C6.46176 16.6101 6.10153 16.9703 5.6588 16.9703H4.31744C3.87465 16.9703 3.51449 16.6101 3.51449 16.1673V2.39104C3.51449 1.94826 3.87471 1.58803 4.31744 1.58803H5.65863C6.10141 1.58803 6.46158 1.94826 6.46158 2.39104V4.09368C6.46158 4.33628 6.65821 4.53284 6.90074 4.53284C7.14327 4.53284 7.33989 4.33628 7.33989 4.09368V2.39104C7.33989 1.46395 6.58566 0.709717 5.65863 0.709717H4.31744C3.39035 0.709717 2.63617 1.46395 2.63617 2.39104V3.56043H1.22894C0.551288 3.56043 0 4.11172 0 4.78931V13.769C0 14.4466 0.551288 14.9979 1.22894 14.9979H2.63617V16.1673C2.63617 17.0943 3.39041 17.8486 4.31744 17.8486H5.65863C6.58572 17.8486 7.33989 17.0943 7.33989 16.1673V11.3534H8.84486V12.1553C8.84522 12.5685 8.98869 12.9687 9.25087 13.2881L10.6147 14.9462V22.8514C10.6147 23.094 10.8113 23.2906 11.0539 23.2906C11.2964 23.2906 11.493 23.094 11.493 22.8514V14.7888C11.493 14.687 11.4577 14.5884 11.393 14.5098L9.92916 12.73C9.79612 12.568 9.7233 12.3649 9.72311 12.1553V11.3534L18.0283 11.4042C18.2709 11.4042 18.4675 11.2076 18.4675 10.965C18.4675 10.7224 18.2709 10.5259 18.0283 10.5259H16.0302C15.6179 10.5259 15.2825 10.1905 15.2825 9.77831C15.2825 9.36609 15.6179 9.03069 16.0302 9.03069H19.8062C20.0656 9.03069 20.2767 9.24172 20.2767 9.50117V12.1553C20.2767 12.3644 20.2035 12.5685 20.0706 12.73L18.6068 14.5097C18.5421 14.5883 18.5068 14.687 18.5068 14.7887V15.947C18.5068 16.1896 18.7034 16.3862 18.9459 16.3862C19.1885 16.3862 19.3851 16.1896 19.3851 15.947V14.9461L20.7489 13.288C21.0111 12.9687 21.1546 12.5684 21.155 12.1553V11.3534H22.6599V16.1672C22.6599 17.0943 23.4142 17.8485 24.3412 17.8485H25.6824C26.6095 17.8485 27.3636 17.0943 27.3636 16.1672V14.9978H28.7709C29.4485 14.9978 29.9998 14.4465 29.9998 13.7689V4.78931C30 4.11172 29.4487 3.56043 28.771 3.56043ZM1.22894 14.1196C1.13598 14.1195 1.04686 14.0825 0.981129 14.0168C0.915398 13.951 0.878422 13.8619 0.878314 13.769V4.78931C0.878423 4.69636 0.9154 4.60724 0.981132 4.54152C1.04687 4.4758 1.13598 4.43884 1.22894 4.43875H2.63617V14.1196H1.22894ZM18.7115 5.08981C19.1652 5.08981 19.5342 5.45888 19.5342 5.9125V7.54751C19.5342 7.77938 19.4359 7.99756 19.2675 8.15243H18.1555C18.0716 8.07556 18.0046 7.9821 17.9586 7.87797C17.9127 7.77384 17.8889 7.66131 17.8888 7.54751V5.9125C17.8888 5.45888 18.2579 5.08981 18.7115 5.08981ZM15.3651 5.26143C15.3651 4.80781 15.7342 4.43875 16.1878 4.43875C16.6414 4.43875 17.0105 4.80781 17.0105 5.26143V7.54751C17.0105 7.77938 16.9121 7.99756 16.7438 8.15243H16.0302C15.909 8.15243 15.791 8.16619 15.6773 8.19149C15.5798 8.11481 15.5011 8.017 15.447 7.90544C15.3929 7.79388 15.3649 7.67149 15.3651 7.54751L15.3651 5.26143ZM12.8414 5.78456C12.8414 5.33094 13.2104 4.96187 13.664 4.96187C14.1177 4.96187 14.4868 5.33094 14.4868 5.78456V7.54745C14.4868 8.00113 14.1177 8.3702 13.664 8.3702C13.2104 8.3702 12.8414 8.00113 12.8414 7.54745V5.78456ZM10.3176 6.13817C10.3176 5.68455 10.6867 5.31548 11.1403 5.31548C11.5939 5.31548 11.963 5.68455 11.963 6.13817V7.54751C11.963 8.00119 11.5939 8.37025 11.1403 8.37025C10.6867 8.37025 10.3176 8.00119 10.3176 7.54751V6.13817ZM7.33995 8.08322H9.52625C9.75128 8.75941 10.3896 9.24851 11.1404 9.24851C11.6405 9.24851 12.0909 9.03139 12.4024 8.68662C12.7139 9.03133 13.164 9.24851 13.6641 9.24851C14.0264 9.24851 14.3617 9.13357 14.6379 8.93975C14.4848 9.19266 14.4041 9.4827 14.4044 9.77831C14.4044 10.0275 14.4609 10.2638 14.5616 10.475H7.33995V8.08322ZM21.1551 10.4751V9.50123C21.1551 8.91943 20.7848 8.42254 20.2676 8.23371C20.2892 8.18458 20.3085 8.13434 20.3255 8.08322H22.6601V10.4751H21.1551ZM29.1217 13.769C29.1216 13.8619 29.0846 13.951 29.0189 14.0168C28.9531 14.0825 28.864 14.1195 28.771 14.1196H27.3638V12.8505C27.3638 12.6079 27.1672 12.4113 26.9247 12.4113C26.6821 12.4113 26.4855 12.6079 26.4855 12.8505V16.1673C26.4855 16.6101 26.1253 16.9702 25.6825 16.9702H24.3414C23.8986 16.9702 23.5384 16.6101 23.5384 16.1673V2.39104C23.5384 1.94826 23.8986 1.58803 24.3414 1.58803H25.6825C26.1253 1.58803 26.4855 1.94826 26.4855 2.39104V10.9789C26.4855 11.2215 26.6821 11.4181 26.9247 11.4181C27.1672 11.4181 27.3638 11.2215 27.3638 10.9789V4.43875H28.771C28.864 4.43884 28.9531 4.4758 29.0189 4.54152C29.0846 4.60724 29.1216 4.69636 29.1217 4.78931V13.769Z" fill="#D6AE29"/>
<path d="M18.947 17.3796C18.8305 17.3796 18.7188 17.4259 18.6364 17.5083C18.5541 17.5906 18.5078 17.7023 18.5078 17.8188V22.8516C18.5078 23.0942 18.7044 23.2908 18.947 23.2908C19.1895 23.2908 19.3861 23.0942 19.3861 22.8516V17.8188C19.3861 17.5762 19.1896 17.3796 18.947 17.3796Z" fill="#D6AE29"/>
</svg>
