<svg width="30" height="32" viewBox="0 0 30 32" fill="none" xmlns="http://www.w3.org/2000/svg">
<path d="M10.3229 4.44871C9.77486 3.34068 9.34285 2.46598 10.2962 1.03532C10.5002 0.728627 10.4162 0.315305 10.1109 0.111301C9.80817 -0.091391 9.39216 -0.0100142 9.18685 0.296617C7.8055 2.36597 8.53883 3.84869 9.12816 5.03941C9.67886 6.15412 10.0775 6.95945 9.18685 8.29679C8.98153 8.60348 9.06553 9.0168 9.37085 9.22081C9.48053 9.29418 9.60959 9.33317 9.74155 9.33281C9.95624 9.33281 10.1669 9.22881 10.2949 9.03549C11.6136 7.05945 10.8989 5.61142 10.3229 4.44871ZM15.635 4.44871C15.0857 3.34068 14.6537 2.46598 15.607 1.03532C15.811 0.728627 15.727 0.315305 15.4217 0.111301C15.119 -0.091391 14.7017 -0.0100142 14.4976 0.296617C13.1176 2.36735 13.8509 3.85001 14.439 5.04072C14.9897 6.15543 15.3883 6.96076 14.4976 8.29679C14.2936 8.60348 14.3776 9.0168 14.683 9.22081C14.7921 9.29415 14.9208 9.33316 15.0523 9.33281C15.267 9.33281 15.4776 9.22881 15.607 9.03549C16.9257 7.05945 16.211 5.61142 15.635 4.44871ZM20.9458 4.44871C20.3965 3.34068 19.9645 2.46598 20.9178 1.03532C21.1218 0.728627 21.0378 0.315305 20.7325 0.111301C20.4298 -0.091391 20.0125 -0.0100142 19.8084 0.296617C18.4284 2.36735 19.1617 3.85001 19.7498 5.04072C20.3005 6.15543 20.6991 6.96076 19.8084 8.29679C19.6044 8.60348 19.6884 9.0168 19.9938 9.22081C20.1029 9.29415 20.2316 9.33316 20.3631 9.33281C20.5791 9.33281 20.7898 9.22881 20.9178 9.03549C22.2365 7.05945 21.5218 5.61142 20.9458 4.44871ZM26.3326 10.6662H3.66542C1.82669 10.6662 0.332031 12.1622 0.332031 13.9995V25.9998C0.332031 27.8371 1.82675 29.3332 3.66542 29.3332H26.3326C28.1713 29.3332 29.666 27.8371 29.666 25.9998V13.9995C29.666 12.1622 28.1713 10.6662 26.3326 10.6662ZM28.3326 25.9999C28.3326 27.1026 27.4353 27.9999 26.3326 27.9999H3.66542C2.5627 27.9999 1.66537 27.1026 1.66537 25.9999V13.9996C1.66537 12.8969 2.5627 11.9996 3.66542 11.9996H26.3326C27.4353 11.9996 28.3326 12.8969 28.3326 13.9996V25.9999Z" fill="#D6AE29"/>
<path d="M4.99873 13.333C4.63073 13.333 4.33203 13.6317 4.33203 13.9997V26C4.33203 26.368 4.63073 26.6667 4.99873 26.6667C5.36674 26.6667 5.66543 26.368 5.66543 26V13.9997C5.66543 13.6317 5.36674 13.333 4.99873 13.333ZM8.99882 13.333C8.63081 13.333 8.33212 13.6317 8.33212 13.9997V26C8.33212 26.368 8.63081 26.6667 8.99882 26.6667C9.36683 26.6667 9.66552 26.368 9.66552 26V13.9997C9.66552 13.6317 9.36683 13.333 8.99882 13.333ZM12.9989 13.333C12.6309 13.333 12.3322 13.6317 12.3322 13.9997V26C12.3322 26.368 12.6309 26.6667 12.9989 26.6667C13.3669 26.6667 13.6656 26.368 13.6656 26V13.9997C13.6656 13.6317 13.3669 13.333 12.9989 13.333ZM16.999 13.333C16.631 13.333 16.3323 13.6317 16.3323 13.9997V26C16.3323 26.368 16.631 26.6667 16.999 26.6667C17.367 26.6667 17.6657 26.368 17.6657 26V13.9997C17.6657 13.6317 17.367 13.333 16.999 13.333ZM20.9991 13.333C20.6311 13.333 20.3324 13.6317 20.3324 13.9997V26C20.3324 26.368 20.6311 26.6667 20.9991 26.6667C21.3671 26.6667 21.6658 26.368 21.6658 26V13.9997C21.6658 13.6317 21.3671 13.333 20.9991 13.333ZM24.9992 13.333C24.6312 13.333 24.3325 13.6317 24.3325 13.9997V26C24.3325 26.368 24.6312 26.6667 24.9992 26.6667C25.3672 26.6667 25.6659 26.368 25.6659 26V13.9997C25.6659 13.6317 25.3672 13.333 24.9992 13.333ZM6.33214 28C5.96413 28 5.66543 28.2987 5.66543 28.6667V31.3335C5.66543 31.7015 5.96413 32.0002 6.33214 32.0002C6.70014 32.0002 6.99884 31.7015 6.99884 31.3335V28.6667C6.99878 28.2986 6.70014 28 6.33214 28ZM23.6658 28C23.2978 28 22.9991 28.2987 22.9991 28.6667V31.3335C22.9991 31.7015 23.2978 32.0002 23.6658 32.0002C24.0338 32.0002 24.3325 31.7015 24.3325 31.3335V28.6667C24.3325 28.2986 24.0338 28 23.6658 28Z" fill="#D6AE29"/>
</svg>
