<svg width="20" height="20" viewBox="0 0 20 20" fill="none" xmlns="http://www.w3.org/2000/svg">
<path fill-rule="evenodd" clip-rule="evenodd" d="M9.99573 3.47702L10.0027 3.4734L10.01 3.47717L13.7212 5.7039L15.0027 6.476V15.6677C15.0027 16.1619 15.0014 16.4324 14.9855 16.6267L14.9836 16.6486L14.9617 16.6505C14.7673 16.6664 14.4969 16.6677 14.0027 16.6677H6.00271C5.50849 16.6677 5.23807 16.6664 5.04376 16.6505L5.02179 16.6486L5.01988 16.6267C5.004 16.4324 5.00271 16.1619 5.00271 15.6677V6.47602L6.27951 5.70675L9.99573 3.47702ZM5.42078 4.27834L1.24065 6.78642C0.846 7.02321 0.718029 7.53509 0.954819 7.92974C1.19161 8.32439 1.70349 8.45236 2.09814 8.21557L3.33604 7.47283V15.6677C3.33604 16.6011 3.33604 17.0679 3.5177 17.4244C3.67748 17.738 3.93245 17.9929 4.24606 18.1527C4.60257 18.3344 5.06929 18.3344 6.00271 18.3344H14.0027C14.9361 18.3344 15.4028 18.3344 15.7594 18.1527C16.073 17.9929 16.3279 17.738 16.4877 17.4244C16.6694 17.0679 16.6694 16.6011 16.6694 15.6677V7.4728L17.9073 8.21557C18.302 8.45236 18.8139 8.32439 19.0506 7.92974C19.2874 7.53509 19.1595 7.02321 18.7648 6.78642L14.5799 4.27545L11.3789 2.34688C11.1462 2.20667 10.9676 2.09907 10.8162 2.01816C10.7809 1.9984 10.745 1.98002 10.7087 1.96302C10.5827 1.90156 10.4736 1.86065 10.3614 1.83593C10.1251 1.78386 9.88031 1.78386 9.64403 1.83593C9.53157 1.86071 9.42211 1.90177 9.29574 1.96351C9.26007 1.98022 9.22485 1.99827 9.19015 2.01765C9.0386 2.09862 8.85975 2.20638 8.62654 2.34688L5.42078 4.27834Z" fill="#D6AE29"/>
<path fill-rule="evenodd" clip-rule="evenodd" d="M10.8333 16.6654V13.332C10.8333 12.8718 10.4602 12.4987 10 12.4987C9.53976 12.4987 9.16667 12.8718 9.16667 13.332V16.6654H10.8333ZM10 10.832C8.61929 10.832 7.5 11.9513 7.5 13.332V18.332H12.5V13.332C12.5 11.9513 11.3807 10.832 10 10.832Z" fill="#D6AE29"/>
</svg>
