<svg width="20" height="20" viewBox="0 0 20 20" fill="none" xmlns="http://www.w3.org/2000/svg">
<g clip-path="url(#clip0_5471_6637)">
<path d="M15.0016 15.4167L15.2327 14.2615C15.355 13.6505 15.6816 13.0873 15.7981 12.4752C15.8223 12.3483 15.8349 12.2173 15.8349 12.0833C15.8349 10.9327 14.9021 10 13.7516 10C12.601 10 11.6682 10.9327 11.6682 12.0833C11.6682 12.2173 11.6809 12.3483 11.7051 12.4752C11.8216 13.0873 12.1482 13.6505 12.2705 14.2615L12.5016 15.4167M15.0016 15.4167H12.5016M15.0016 15.4167L17.0818 15.9716C17.8138 16.1342 18.3346 16.7835 18.3346 17.5334C18.3346 17.9752 17.9765 18.3333 17.5347 18.3333H17.0818H10.418H9.96789C9.52614 18.3333 9.16797 17.9752 9.16797 17.5334C9.16797 16.7835 9.6888 16.1342 10.4208 15.9716L12.5016 15.4167" stroke="#D6AE29" stroke-width="1.5"/>
<path d="M14.168 7.5013V6.66797C14.168 4.31094 14.168 3.13244 13.4357 2.4002C12.7035 1.66797 11.525 1.66797 9.16797 1.66797H6.66797C4.31094 1.66797 3.13244 1.66797 2.4002 2.4002C1.66797 3.13244 1.66797 4.31094 1.66797 6.66797V13.3346C1.66797 15.6916 1.66797 16.8701 2.4002 17.6024C3.13244 18.3346 4.31094 18.3346 6.66797 18.3346" stroke="#D6AE29" stroke-width="1.5" stroke-linecap="round"/>
<path d="M5.83203 7.22222C5.83203 7.22222 6.35286 7.22222 6.8737 8.33333C6.8737 8.33333 8.52811 5.55556 9.9987 5" stroke="#D6AE29" stroke-width="1.5" stroke-linecap="round" stroke-linejoin="round"/>
<path d="M5 11.668H8.33333" stroke="#D6AE29" stroke-width="1.5" stroke-linecap="round"/>
<path d="M5 14.168H8.33333" stroke="#D6AE29" stroke-width="1.5" stroke-linecap="round"/>
</g>
<defs>
<clipPath id="clip0_5471_6637">
<rect width="20" height="20" fill="white"/>
</clipPath>
</defs>
</svg>
