<svg width="35" height="25" viewBox="0 0 35 25" fill="none" xmlns="http://www.w3.org/2000/svg">
<rect x="0.670099" y="0.681818" width="34.0711" height="23.6364" rx="2.81818" fill="white"/>
<rect x="0.670099" y="0.681818" width="34.0711" height="23.6364" rx="2.81818" stroke="#D2D2D5" stroke-width="0.363636"/>
<path d="M13.684 4.9248H10.0755C8.32238 4.9248 7.14453 6.10272 7.14453 7.8558V13.0986C7.14453 13.1012 7.1448 13.1038 7.14527 13.1064C7.28362 13.7637 7.97265 14.2593 8.74797 14.2593C9.60393 14.2593 10.2492 13.6579 10.2492 12.8603V10.2421H12.4552V12.8261C12.4552 14.2997 10.5583 14.9952 9.27666 15.0013C8.51856 14.9981 7.77566 14.7653 7.23835 14.3622C7.22712 14.3538 7.21185 14.3524 7.19921 14.3587C7.19921 14.3587 7.19908 14.3588 7.19894 14.3589C7.18838 14.3535 7.1758 14.3534 7.16518 14.3587C7.1526 14.3651 7.1446 14.378 7.1446 14.3922V20.1795C7.1446 20.2001 7.16128 20.2169 7.18206 20.2169H10.8928C12.2011 20.2169 13.7216 18.9813 13.7216 17.3881V4.96227C13.7215 4.94148 13.7049 4.9248 13.684 4.9248Z" fill="#0F549D"/>
<path d="M20.9354 4.9248H17.3609C15.5804 4.9248 14.4299 6.06196 14.4299 7.82197V10.7836C14.4299 10.7982 14.4382 10.8113 14.4513 10.8175C14.4645 10.8236 14.48 10.8216 14.4912 10.8123C14.8032 10.5522 15.3062 10.2422 15.931 10.2422H19.7745V10.9413C18.8413 10.737 17.9781 10.6439 17.565 10.6439C16.5869 10.6439 15.7912 11.4396 15.7912 12.4176L15.7915 12.4284L15.7912 12.4516C15.7912 13.4297 16.5869 14.2253 17.565 14.2253C18.0661 14.2253 18.9384 14.1438 19.7745 13.9619V14.593H15.931C15.3782 14.593 14.8543 14.3859 14.4936 14.025C14.4828 14.0142 14.4667 14.0111 14.4528 14.0169C14.4388 14.0227 14.4297 14.0364 14.4297 14.0515V20.1793C14.4297 20.1999 14.4464 20.2167 14.4671 20.2167H18.1435C19.452 20.2167 20.9726 18.9811 20.9726 17.3879V4.96227C20.9728 4.94148 20.9561 4.9248 20.9354 4.9248Z" fill="#B41F36"/>
<path d="M22.9023 14.1532C22.9023 14.1739 22.9192 14.1907 22.9398 14.1907H24.5397C24.9693 14.1907 25.3604 13.7995 25.3604 13.3702C25.3604 12.9409 24.9692 12.5498 24.5397 12.5498H22.9398C22.9192 12.5498 22.9023 12.5666 22.9023 12.5873V14.1532Z" fill="#329947"/>
<path d="M28.287 4.9248H24.7463C23.8038 4.9248 23.038 5.24353 22.5257 5.80451C22.5257 5.80451 21.7812 6.53066 21.7812 7.72835C21.7812 7.7726 21.7812 7.81464 21.7812 7.85573V8.92603V10.2047C21.7812 10.2253 21.7979 10.2422 21.8187 10.2422H26.1083C26.697 10.2422 27.1944 10.7396 27.1944 11.3283C27.1944 11.9169 26.697 12.4143 26.1083 12.4143C26.0876 12.4143 26.0709 12.431 26.0709 12.4518C26.0709 12.4725 26.0875 12.4892 26.1083 12.4892C26.7744 12.4892 27.2964 12.9513 27.2964 13.5412C27.2964 14.141 26.7856 14.5933 26.1083 14.5933H21.8187C21.798 14.5933 21.7812 14.6101 21.7812 14.6308V20.1796C21.7812 20.2003 21.7979 20.2171 21.8187 20.2171H25.4955C26.8038 20.2171 28.3245 18.9814 28.3245 17.3882V4.96227C28.3245 4.94148 28.3076 4.9248 28.287 4.9248Z" fill="#329947"/>
<path d="M22.9398 12.2505H24.5397C24.9661 12.2505 25.3262 11.8903 25.3262 11.464C25.3262 11.0346 24.9353 10.6436 24.506 10.6436H22.9398C22.9192 10.6436 22.9023 10.6603 22.9023 10.681V12.2131C22.9023 12.2337 22.9192 12.2505 22.9398 12.2505Z" fill="#329947"/>
</svg>
