<svg width="28" height="28" viewBox="0 0 28 28" fill="none" xmlns="http://www.w3.org/2000/svg">
<path d="M19.5704 3.44336C19.4616 3.44336 19.3573 3.48656 19.2804 3.56347C19.2035 3.64038 19.1603 3.74468 19.1603 3.85344V5.73983C19.1603 5.84859 19.2035 5.95289 19.2804 6.0298C19.3573 6.1067 19.4616 6.14991 19.5704 6.14991C19.6791 6.14991 19.7834 6.1067 19.8603 6.0298C19.9372 5.95289 19.9804 5.84859 19.9804 5.73983V3.85344C19.9804 3.62708 19.7967 3.44336 19.5704 3.44336ZM22.8768 3.44336C22.7681 3.44336 22.6638 3.48656 22.5869 3.56347C22.51 3.64038 22.4668 3.74468 22.4668 3.85344V5.73983C22.4668 5.84859 22.51 5.95289 22.5869 6.0298C22.6638 6.1067 22.7681 6.14991 22.8768 6.14991C22.9856 6.14991 23.0899 6.1067 23.1668 6.0298C23.2437 5.95289 23.2869 5.84859 23.2869 5.73983V3.85344C23.2869 3.74468 23.2437 3.64038 23.1668 3.56347C23.0899 3.48656 22.9856 3.44336 22.8768 3.44336ZM19.0234 16.9958H21.2652C21.4915 16.9958 21.6752 16.8121 21.6752 16.5857C21.6752 16.3593 21.4915 16.1756 21.2652 16.1756H19.0234C18.9146 16.1756 18.8103 16.2188 18.7334 16.2957C18.6565 16.3726 18.6133 16.4769 18.6133 16.5857C18.6133 16.6945 18.6565 16.7988 18.7334 16.8757C18.8103 16.9526 18.9146 16.9958 19.0234 16.9958ZM21.2652 22.6457H19.0234C18.9146 22.6457 18.8103 22.689 18.7334 22.7659C18.6565 22.8428 18.6133 22.9471 18.6133 23.0558C18.6133 23.2824 18.7967 23.4659 19.0234 23.4659H21.2652C21.3739 23.4659 21.4782 23.4227 21.5551 23.3458C21.632 23.2689 21.6752 23.1646 21.6752 23.0558C21.6752 22.9471 21.632 22.8428 21.5551 22.7659C21.4782 22.689 21.3739 22.6457 21.2652 22.6457Z" fill="#D6AE29"/>
<path d="M27.1507 12.8565H24.3991C24.3452 12.8565 24.2919 12.8671 24.2421 12.8877C24.1924 12.9083 24.1472 12.9385 24.1091 12.9766C24.071 13.0147 24.0408 13.0599 24.0202 13.1097C23.9996 13.1594 23.989 13.2128 23.989 13.2666C23.989 13.3754 24.0322 13.4797 24.1091 13.5566C24.186 13.6335 24.2903 13.6767 24.3991 13.6767H27.1507C27.1661 13.6767 27.1787 13.6891 27.1787 13.7047V14.6951C27.1787 14.7107 27.1661 14.7233 27.1507 14.7233H0.852066C0.844622 14.7233 0.837493 14.7203 0.832244 14.715C0.826996 14.7097 0.824056 14.7026 0.824071 14.6951V13.7047C0.824071 13.6894 0.836647 13.6768 0.852066 13.6768H22.7588C22.8675 13.6768 22.9718 13.6336 23.0487 13.5567C23.1257 13.4797 23.1689 13.3754 23.1689 13.2667C23.1689 13.04 22.9854 12.8566 22.7588 12.8566H9.58704V12.1652C10.0744 12.1449 10.4644 11.7421 10.4644 11.2498V10.6806C10.4644 10.5718 10.4212 10.4675 10.3443 10.3906C10.2674 10.3137 10.1631 10.2705 10.0543 10.2705C9.94555 10.2705 9.84125 10.3137 9.76434 10.3906C9.68744 10.4675 9.64423 10.5718 9.64423 10.6806V11.2498C9.64423 11.3028 9.60131 11.3459 9.54838 11.3459H3.39244C3.36696 11.3459 3.34253 11.3357 3.32451 11.3177C3.30649 11.2997 3.29635 11.2753 3.29632 11.2498V10.6806C3.29632 10.5718 3.25312 10.4675 3.17621 10.3906C3.0993 10.3137 2.995 10.2705 2.88624 10.2705C2.77748 10.2705 2.67317 10.3137 2.59627 10.3906C2.51936 10.4675 2.47616 10.5718 2.47616 10.6806V11.2498C2.47616 11.7421 2.86639 12.1449 3.35373 12.1652V12.8566H0.852121C0.384463 12.8565 0.00390625 13.237 0.00390625 13.7047V14.6951C0.00390625 15.1628 0.384463 15.5435 0.852066 15.5435H1.30611V26.7732C1.30611 27.4275 1.8384 27.9598 2.49283 27.9598H25.5099C26.1644 27.9598 26.6967 27.4275 26.6967 26.7731V15.5435H27.1507C27.6182 15.5435 27.9989 15.1629 27.9989 14.6951V13.7047C27.9989 13.237 27.6183 12.8566 27.1507 12.8566V12.8565ZM4.17395 12.1661H8.76687V12.8567H4.17395V12.1661ZM2.12627 26.7731V15.5435H13.5913V27.1396H2.49283C2.39564 27.1396 2.30244 27.1009 2.2337 27.0322C2.16497 26.9635 2.12633 26.8703 2.12627 26.7731ZM25.5099 27.1396H14.4115V21.7842H25.8767V26.7731C25.8766 26.8703 25.8379 26.9635 25.7692 27.0322C25.7004 27.101 25.6072 27.1396 25.5099 27.1396ZM25.8767 20.964H14.4115V15.5435H25.8767V20.964Z" fill="#D6AE29"/>
<path d="M12.0581 19.4988H3.80619C3.38966 19.4988 3.05093 19.8375 3.05093 20.254V25.5488C3.05093 25.9653 3.38966 26.304 3.80614 26.304H12.0582C12.4747 26.304 12.8134 25.9653 12.8134 25.5488V20.254C12.8134 19.8375 12.4746 19.4988 12.0581 19.4988ZM11.9932 25.4838H3.87109V20.3191H11.9932V25.4838ZM4.39053 18.8553C5.12928 18.8553 5.73013 18.2542 5.73013 17.5157C5.73013 16.7771 5.12928 16.1761 4.39053 16.1761C3.65194 16.1761 3.05093 16.7771 3.05093 17.5157C3.05093 18.2542 3.65194 18.8553 4.39053 18.8553ZM4.39053 16.9962C4.67693 16.9962 4.90997 17.2292 4.90997 17.5157C4.90997 17.8021 4.67693 18.0351 4.39053 18.0351C4.10407 18.0351 3.87109 17.8021 3.87109 17.5157C3.87109 17.2293 4.10407 16.9962 4.39053 16.9962ZM7.93217 18.8553C8.67075 18.8553 9.27177 18.2542 9.27177 17.5157C9.27177 16.7771 8.67075 16.1761 7.93217 16.1761C7.19358 16.1761 6.59256 16.7771 6.59256 17.5157C6.59256 18.2542 7.19358 18.8553 7.93217 18.8553ZM7.93217 16.9962C8.21857 16.9962 8.4516 17.2292 8.4516 17.5157C8.4516 17.8021 8.21857 18.0351 7.93217 18.0351C7.64576 18.0351 7.41273 17.8021 7.41273 17.5157C7.41273 17.2293 7.64576 16.9962 7.93217 16.9962ZM26.8794 0H15.5674C14.9501 0 14.448 0.502159 14.448 1.11942V8.41226C14.448 9.02952 14.9501 9.53184 15.5674 9.53184H26.8794C27.4968 9.53184 27.9989 9.02952 27.9989 8.41226V1.11936C27.9989 0.502214 27.4967 0 26.8794 0ZM15.2682 8.41226V1.11936C15.2683 1.04003 15.2998 0.963979 15.3559 0.90789C15.412 0.8518 15.4881 0.820251 15.5674 0.820165H20.8132V8.71168H15.5674C15.488 8.71158 15.412 8.68 15.3559 8.62386C15.2998 8.56773 15.2682 8.49163 15.2682 8.41226ZM27.1787 8.41226C27.1786 8.49163 27.1471 8.56773 27.091 8.62386C27.0349 8.68 26.9588 8.71158 26.8794 8.71168H21.6334V0.820165H26.8794C26.9588 0.820251 27.0349 0.851807 27.091 0.907909C27.1471 0.964011 27.1786 1.04008 27.1787 1.11942V8.41226ZM0.821501 5.176H12.6111C13.062 5.176 13.429 4.80928 13.429 4.35819V3.62365C13.429 3.17278 13.0622 2.80606 12.6111 2.80606H11.9884C11.8457 1.90049 11.0599 1.20592 10.115 1.20592H3.31786C2.37303 1.20592 1.58721 1.90049 1.44455 2.80606H0.821501C0.370629 2.80606 0.00390625 3.17278 0.00390625 3.62365V4.35841C0.00390625 4.80928 0.370629 5.176 0.821501 5.176ZM3.54428 3.62622C3.77065 3.62622 3.95437 3.4425 3.95437 3.21614C3.95437 2.98977 3.77065 2.80606 3.54428 2.80606H2.28309C2.41207 2.35628 2.8273 2.02608 3.31786 2.02608H10.115C10.6056 2.02608 11.0208 2.35628 11.1498 2.80606H5.21069C4.98427 2.80606 4.80061 2.98977 4.80061 3.21614C4.80061 3.4425 4.98427 3.62622 5.21069 3.62622L11.5595 3.62409C11.5875 3.62705 11.6158 3.62705 11.6438 3.62409L12.6088 3.62387L12.6111 4.35584L0.824071 4.35841L0.821501 3.62628L3.54428 3.62622Z" fill="#D6AE29"/>
</svg>
