<svg width="30" height="28" viewBox="0 0 30 28" fill="none" xmlns="http://www.w3.org/2000/svg">
<path d="M11.2674 8.86719C7.15051 8.86719 3.80078 12.2169 3.80078 16.3339C3.80078 20.4508 7.15051 23.8005 11.2674 23.8005C15.3844 23.8005 18.7341 20.4508 18.7341 16.3339C18.7341 12.2169 15.3844 8.86719 11.2674 8.86719ZM11.2674 22.8672C7.66478 22.8672 4.73411 19.9365 4.73411 16.3339C4.73411 12.7312 7.66478 9.80052 11.2674 9.80052C14.8701 9.80052 17.8008 12.7312 17.8008 16.3339C17.8008 19.9365 14.8701 22.8672 11.2674 22.8672Z" fill="#D6AE29"/>
<path d="M11.2661 11.2004C8.43535 11.2004 6.13281 13.5034 6.13281 16.3338C6.13281 19.1641 8.43535 21.4671 11.2661 21.4671C14.0965 21.4671 16.3995 19.1641 16.3995 16.3338C16.3995 13.5034 14.0965 11.2004 11.2661 11.2004ZM11.2661 20.5338C8.95008 20.5338 7.06615 18.6498 7.06615 16.3338C7.06615 14.0177 8.95008 12.1338 11.2661 12.1338C13.5822 12.1338 15.4661 14.0177 15.4661 16.3338C15.4661 18.6498 13.5822 20.5338 11.2661 20.5338Z" fill="#D6AE29"/>
<path d="M14.0674 15.8672C13.9437 15.8672 13.825 15.9164 13.7375 16.0039C13.6499 16.0914 13.6008 16.2101 13.6008 16.3339C13.6008 17.6205 12.554 18.6672 11.2674 18.6672C11.1437 18.6672 11.025 18.7164 10.9375 18.8039C10.8499 18.8914 10.8008 19.0101 10.8008 19.1339C10.8008 19.2576 10.8499 19.3763 10.9375 19.4638C11.025 19.5514 11.1437 19.6005 11.2674 19.6005C13.0683 19.6005 14.5341 18.1347 14.5341 16.3339C14.5341 16.2101 14.4849 16.0914 14.3974 16.0039C14.3099 15.9164 14.1912 15.8672 14.0674 15.8672Z" fill="#D6AE29"/>
<path d="M29.4664 21.4667H28.9134C28.9661 21.3201 28.9997 21.1647 28.9997 21V20.5333C28.9986 20.1878 28.8688 19.8551 28.6357 19.6C28.8688 19.3449 28.9986 19.0122 28.9997 18.6667V18.2C28.9997 17.4281 28.3716 16.8 27.5997 16.8H22.4669V1.86667C22.4669 0.8372 21.6297 0 20.6002 0H1.93354C0.904073 0 0.0668729 0.8372 0.0668729 1.86667V6.06433L0.0664062 6.06667L0.0668729 6.069V26.1333C0.0668729 27.1628 0.904073 28 1.93354 28H28.0664C29.0959 28 29.9331 27.1628 29.9331 26.1333V21.9333C29.9331 21.8096 29.8839 21.6909 29.7964 21.6033C29.7089 21.5158 29.5902 21.4667 29.4664 21.4667ZM20.5997 21V20.5333C20.5997 20.4096 20.6489 20.2909 20.7364 20.2034C20.8239 20.1158 20.9426 20.0667 21.0664 20.0667H27.5997C27.7235 20.0667 27.8422 20.1158 27.9297 20.2034C28.0172 20.2909 28.0664 20.4096 28.0664 20.5333V21C28.0664 21.1238 28.0172 21.2425 27.9297 21.33C27.8422 21.4175 27.7235 21.4667 27.5997 21.4667H21.0664C20.9426 21.4667 20.8239 21.4175 20.7364 21.33C20.6489 21.2425 20.5997 21.1238 20.5997 21ZM28.0664 18.2V18.6667C28.0664 18.7904 28.0172 18.9091 27.9297 18.9967C27.8422 19.0842 27.7235 19.1333 27.5997 19.1333H21.0664C20.9426 19.1333 20.8239 19.0842 20.7364 18.9967C20.6489 18.9091 20.5997 18.7904 20.5997 18.6667V18.2C20.5997 18.0762 20.6489 17.9575 20.7364 17.87C20.8239 17.7825 20.9426 17.7333 21.0664 17.7333H27.5997C27.7235 17.7333 27.8422 17.7825 27.9297 17.87C28.0172 17.9575 28.0664 18.0762 28.0664 18.2ZM1.93354 0.933333H20.6002C21.1145 0.933333 21.5335 1.3524 21.5335 1.86667V5.6H1.00021V1.86667C1.00021 1.3524 1.41881 0.933333 1.93354 0.933333ZM1.00021 26.1333V6.53333H21.5335V16.8H21.0664C20.2945 16.8 19.6664 17.4281 19.6664 18.2V18.6667C19.6664 19.0265 19.8069 19.3517 20.0304 19.6C19.7973 19.8551 19.6676 20.1878 19.6664 20.5333V21C19.6664 21.1647 19.7 21.3201 19.7527 21.4667H19.1997C19.076 21.4667 18.9573 21.5158 18.8698 21.6033C18.7822 21.6909 18.7331 21.8096 18.7331 21.9333V26.1333C18.7331 26.4745 18.832 26.7909 18.993 27.0667H1.93354C1.41881 27.0667 1.00021 26.6481 1.00021 26.1333ZM28.9997 26.1333C28.9997 26.6481 28.5807 27.0667 28.0664 27.0667H20.5997C20.085 27.0667 19.6664 26.6481 19.6664 26.1333V22.4H28.9997V26.1333Z" fill="#D6AE29"/>
<path d="M3.33359 4.66719C4.10546 4.66719 4.73359 4.03905 4.73359 3.26719C4.73359 2.49532 4.10546 1.86719 3.33359 1.86719C2.56173 1.86719 1.93359 2.49532 1.93359 3.26719C1.93359 4.03905 2.56173 4.66719 3.33359 4.66719ZM3.33359 2.80052C3.45736 2.80052 3.57606 2.84969 3.66358 2.9372C3.75109 3.02472 3.80026 3.14342 3.80026 3.26719C3.80026 3.39096 3.75109 3.50965 3.66358 3.59717C3.57606 3.68469 3.45736 3.73385 3.33359 3.73385C3.20983 3.73385 3.09113 3.68469 3.00361 3.59717C2.91609 3.50965 2.86693 3.39096 2.86693 3.26719C2.86693 3.14342 2.91609 3.02472 3.00361 2.9372C3.09113 2.84969 3.20983 2.80052 3.33359 2.80052ZM19.2003 4.66719C19.9721 4.66719 20.6003 4.03905 20.6003 3.26719C20.6003 2.49532 19.9721 1.86719 19.2003 1.86719C18.4284 1.86719 17.8003 2.49532 17.8003 3.26719C17.8003 4.03905 18.4284 4.66719 19.2003 4.66719ZM19.2003 2.80052C19.324 2.80052 19.4427 2.84969 19.5302 2.9372C19.6178 3.02472 19.6669 3.14342 19.6669 3.26719C19.6669 3.39096 19.6178 3.50965 19.5302 3.59717C19.4427 3.68469 19.324 3.73385 19.2003 3.73385C19.0765 3.73385 18.9578 3.68469 18.8703 3.59717C18.7828 3.50965 18.7336 3.39096 18.7336 3.26719C18.7336 3.14342 18.7828 3.02472 18.8703 2.9372C18.9578 2.84969 19.0765 2.80052 19.2003 2.80052ZM12.6669 4.66719H15.4669C16.2388 4.66719 16.8669 4.03905 16.8669 3.26719C16.8669 2.49532 16.2388 1.86719 15.4669 1.86719H12.6669C11.8951 1.86719 11.2669 2.49532 11.2669 3.26719C11.2669 4.03905 11.8951 4.66719 12.6669 4.66719ZM12.6669 2.80052H15.4669C15.5907 2.80052 15.7094 2.84969 15.7969 2.9372C15.8844 3.02472 15.9336 3.14342 15.9336 3.26719C15.9336 3.39096 15.8844 3.50965 15.7969 3.59717C15.7094 3.68469 15.5907 3.73385 15.4669 3.73385H12.6669C12.5432 3.73385 12.4245 3.68469 12.3369 3.59717C12.2494 3.50965 12.2003 3.39096 12.2003 3.26719C12.2003 3.14342 12.2494 3.02472 12.3369 2.9372C12.4245 2.84969 12.5432 2.80052 12.6669 2.80052Z" fill="#D6AE29"/>
</svg>
