<svg width="30" height="32" viewBox="0 0 30 32" fill="none" xmlns="http://www.w3.org/2000/svg">
<path d="M20.3423 21.1428C23.7474 15.7995 23.3194 16.4661 23.4175 16.3268C24.6572 14.5782 25.3125 12.5201 25.3125 10.375C25.3125 4.68625 20.6962 0 15 0C9.32237 0 4.6875 4.677 4.6875 10.375C4.6875 12.5188 5.3565 14.6307 6.63688 16.4029L9.65763 21.1429C6.42794 21.6392 0.9375 23.1182 0.9375 26.375C0.9375 27.5622 1.71237 29.2541 5.40387 30.5724C7.9815 31.493 11.3894 32 15 32C21.7516 32 29.0625 30.0955 29.0625 26.375C29.0625 23.1177 23.5785 21.6402 20.3423 21.1428ZM8.20306 15.3716C8.19276 15.3555 8.18198 15.3397 8.17075 15.3242C7.10531 13.8584 6.5625 12.1213 6.5625 10.375C6.5625 5.68638 10.3379 1.875 15 1.875C19.6524 1.875 23.4375 5.68806 23.4375 10.375C23.4375 12.1241 22.9049 13.8023 21.8971 15.2294C21.8068 15.3486 22.278 14.6166 15 26.0368L8.20306 15.3716ZM15 30.125C7.62537 30.125 2.8125 27.9573 2.8125 26.375C2.8125 25.3115 5.2855 23.5628 10.7655 22.8812L14.2094 28.2851C14.2941 28.4181 14.4109 28.5275 14.5491 28.6033C14.6873 28.6791 14.8423 28.7188 14.9999 28.7188C15.1575 28.7188 15.3126 28.6791 15.4508 28.6033C15.589 28.5275 15.7058 28.4181 15.7905 28.2851L19.2343 22.8812C24.7144 23.5628 27.1875 25.3115 27.1875 26.375C27.1875 27.9439 22.4179 30.125 15 30.125Z" fill="#070707"/>
<path d="M15 5.6875C12.4153 5.6875 10.3125 7.79031 10.3125 10.375C10.3125 12.9597 12.4153 15.0625 15 15.0625C17.5847 15.0625 19.6875 12.9597 19.6875 10.375C19.6875 7.79031 17.5847 5.6875 15 5.6875ZM15 13.1875C13.4492 13.1875 12.1875 11.9258 12.1875 10.375C12.1875 8.82419 13.4492 7.5625 15 7.5625C16.5508 7.5625 17.8125 8.82419 17.8125 10.375C17.8125 11.9258 16.5508 13.1875 15 13.1875Z" fill="#070707"/>
</svg>
