<svg width="20" height="20" viewBox="0 0 20 20" fill="none" xmlns="http://www.w3.org/2000/svg">
<path d="M1.66797 4.16797L7.42882 7.43849C9.53355 8.63339 10.4691 8.63339 12.5738 7.43849L18.3346 4.16797" stroke="#D6AE29" stroke-width="1.5" stroke-linejoin="round"/>
<path d="M8.7513 16.2487C8.36272 16.2436 7.97365 16.2362 7.58366 16.2264C4.95991 16.1604 3.64804 16.1274 2.70544 15.1807C1.76283 14.2339 1.73559 12.9559 1.68111 10.3999C1.66359 9.57795 1.66359 8.76095 1.6811 7.93906C1.73559 5.38297 1.76282 4.10493 2.70543 3.15819C3.64804 2.21145 4.95991 2.17847 7.58365 2.11251C9.20072 2.07186 10.8019 2.07187 12.419 2.11252C15.0427 2.17848 16.3546 2.21146 17.2971 3.15821C18.2398 4.10494 18.2671 5.38298 18.3215 7.93907C18.3296 8.31746 18.3339 8.49578 18.3346 8.7487" stroke="#D6AE29" stroke-width="1.5" stroke-linecap="round" stroke-linejoin="round"/>
<path d="M15.832 14.168C15.832 14.8583 15.2724 15.418 14.582 15.418C13.8917 15.418 13.332 14.8583 13.332 14.168C13.332 13.4776 13.8917 12.918 14.582 12.918C15.2724 12.918 15.832 13.4776 15.832 14.168ZM15.832 14.168V14.5846C15.832 15.275 16.3917 15.8346 17.082 15.8346C17.7724 15.8346 18.332 15.275 18.332 14.5846V14.168C18.332 12.0969 16.6531 10.418 14.582 10.418C12.5109 10.418 10.832 12.0969 10.832 14.168C10.832 16.2391 12.5109 17.918 14.582 17.918" stroke="#D6AE29" stroke-width="1.5" stroke-linecap="round" stroke-linejoin="round"/>
</svg>
