<svg width="37" height="25" viewBox="0 0 37 25" fill="none" xmlns="http://www.w3.org/2000/svg">
<rect x="0.519531" y="0.5" width="36.3636" height="24" rx="3" fill="#042A55"/>
<path d="M14.8125 6.21094H22.591V18.7885H14.8125V6.21094Z" fill="#FF5F00"/>
<path d="M15.8195 12.499C15.8186 11.3978 16.0732 10.3108 16.564 9.32032C17.0548 8.32982 17.7689 7.46176 18.6523 6.78185C17.5582 5.93866 16.2441 5.41433 14.8604 5.26878C13.4767 5.12324 12.0791 5.36235 10.8275 5.9588C9.57578 6.55524 8.52048 7.48495 7.78218 8.64166C7.04387 9.79838 6.65234 11.1354 6.65234 12.5C6.65234 13.8646 7.04387 15.2017 7.78218 16.3584C8.52048 17.5151 9.57578 18.4448 10.8275 19.0412C12.0791 19.6377 13.4767 19.8768 14.8604 19.7313C16.2441 19.5857 17.5582 19.0614 18.6523 18.2182C17.7686 17.5381 17.0543 16.6697 16.5635 15.6788C16.0727 14.6879 15.8183 13.6006 15.8195 12.499V12.499Z" fill="#EB001B"/>
<path d="M30.9986 17.4573V17.1996H31.1108V17.1462H30.8438V17.1996H30.9492V17.4573L30.9986 17.4573ZM31.517 17.4573V17.1463H31.4362L31.342 17.3684L31.2477 17.1462H31.1669V17.4573H31.2253V17.2218L31.3128 17.424H31.3734L31.4609 17.2218V17.4573H31.517Z" fill="#F79E1B"/>
<path d="M30.6523 12.5011C30.6523 13.8656 30.2607 15.2026 29.5224 16.3592C28.784 17.5158 27.7286 18.4454 26.4769 19.0417C25.2252 19.638 23.8276 19.8769 22.4439 19.7311C21.0603 19.5854 19.7463 19.0609 18.6523 18.2175C19.5354 17.5371 20.2492 16.6689 20.7401 15.6785C21.231 14.688 21.486 13.6012 21.486 12.5C21.486 11.3988 21.231 10.312 20.7401 9.32158C20.2492 8.33115 19.5354 7.46296 18.6523 6.78252C19.7463 5.93916 21.0603 5.41463 22.444 5.26889C23.8276 5.12316 25.2252 5.36209 26.4769 5.95838C27.7286 6.55467 28.784 7.48425 29.5224 8.64088C30.2607 9.79751 30.6523 11.1345 30.6523 12.499V12.5011Z" fill="#F79E1B"/>
</svg>
