<svg width="18" height="15" viewBox="0 0 18 15" fill="none" xmlns="http://www.w3.org/2000/svg">
<path d="M17.7051 1.9542L14.1337 0.525631C14.0484 0.491456 13.9533 0.491456 13.868 0.525631L10.2966 1.9542C10.2303 1.98074 10.1736 2.02648 10.1336 2.08555C10.0937 2.14462 10.0723 2.21431 10.0723 2.28563V5.97706C10.0741 6.65534 10.2506 7.32171 10.5848 7.91196C10.9189 8.50221 11.3995 8.99645 11.9801 9.34706L13.8173 10.4492C13.8727 10.4824 13.9362 10.5 14.0008 10.5C14.0655 10.5 14.1289 10.4824 14.1844 10.4492L15.7866 9.48777V13.4878C15.7864 13.6431 15.7246 13.7919 15.6148 13.9017C15.505 14.0115 15.3561 14.0733 15.2008 14.0735H1.37227C1.21698 14.0733 1.06811 14.0115 0.958312 13.9017C0.84851 13.7919 0.78674 13.6431 0.786551 13.4878V5.49992H9.00084C9.09556 5.49992 9.1864 5.46229 9.25338 5.39531C9.32035 5.32834 9.35798 5.23749 9.35798 5.14277C9.35798 5.04805 9.32035 4.95721 9.25338 4.89024C9.1864 4.82326 9.09556 4.78563 9.00084 4.78563H0.786551V3.94277C0.78674 3.78749 0.84851 3.63862 0.958312 3.52882C1.06811 3.41902 1.21698 3.35725 1.37227 3.35706H9.00084C9.09556 3.35706 9.1864 3.31943 9.25338 3.25246C9.32035 3.18548 9.35798 3.09464 9.35798 2.99992C9.35798 2.9052 9.32035 2.81436 9.25338 2.74738C9.1864 2.6804 9.09556 2.64277 9.00084 2.64277H1.37227C1.02754 2.64296 0.696992 2.77999 0.453236 3.02374C0.20948 3.2675 0.0724549 3.59805 0.0722656 3.94277V13.4856C0.0724549 13.8304 0.20948 14.1609 0.453236 14.4047C0.696992 14.6484 1.02754 14.7854 1.37227 14.7856H15.2008C15.5456 14.7854 15.8761 14.6484 16.1199 14.4047C16.3636 14.1609 16.5006 13.8304 16.5008 13.4856V8.99992C16.9457 8.63105 17.3043 8.16903 17.5511 7.64648C17.7979 7.12392 17.9271 6.55355 17.9294 5.97563V2.28563C17.9294 2.21431 17.908 2.14462 17.868 2.08555C17.8281 2.02648 17.7713 1.98074 17.7051 1.9542ZM17.2151 5.97706C17.2137 6.53206 17.0692 7.07732 16.7957 7.56025C16.5222 8.04319 16.1289 8.4475 15.6537 8.7342L14.0008 9.72635L12.348 8.7342C11.8728 8.4475 11.4794 8.04319 11.206 7.56025C10.9325 7.07732 10.788 6.53206 10.7866 5.97706V2.52706L14.0008 1.24135L17.2151 2.52706V5.97706Z" fill="#4A4C56"/>
<path d="M12.8248 4.95223C12.7917 4.91902 12.7523 4.89268 12.709 4.87469C12.6656 4.8567 12.6192 4.84742 12.5722 4.84739C12.5253 4.84736 12.4788 4.85657 12.4355 4.87449C12.3921 4.89242 12.3527 4.91871 12.3195 4.95187C12.2863 4.98503 12.2599 5.02441 12.2419 5.06775C12.224 5.11109 12.2147 5.15755 12.2146 5.20448C12.2146 5.2514 12.2238 5.29788 12.2418 5.34125C12.2597 5.38461 12.286 5.42402 12.3191 5.45723L13.272 6.40937C13.339 6.47633 13.4298 6.51394 13.5245 6.51394C13.6192 6.51394 13.71 6.47633 13.777 6.40937L15.682 4.50437C15.749 4.43731 15.7865 4.34639 15.7865 4.25162C15.7864 4.15685 15.7487 4.06598 15.6816 3.99902C15.6146 3.93205 15.5237 3.89446 15.4289 3.89453C15.3341 3.8946 15.2432 3.93231 15.1763 3.99937L13.5241 5.65223L12.8248 4.95223ZM2.57199 11.9294C2.47727 11.9294 2.38643 11.967 2.31945 12.034C2.25247 12.101 2.21484 12.1918 2.21484 12.2865C2.21484 12.3812 2.25247 12.4721 2.31945 12.5391C2.38643 12.606 2.47727 12.6437 2.57199 12.6437H5.42913C5.52385 12.6437 5.61469 12.606 5.68167 12.5391C5.74865 12.4721 5.78627 12.3812 5.78627 12.2865C5.78627 12.1918 5.74865 12.101 5.68167 12.034C5.61469 11.967 5.52385 11.9294 5.42913 11.9294H2.57199Z" fill="#4A4C56"/>
</svg>
