<svg width="87" height="21" viewBox="0 0 87 21" fill="none" xmlns="http://www.w3.org/2000/svg">
<path fill-rule="evenodd" clip-rule="evenodd" d="M67.3407 9.25127C67.0801 10.9455 65.7726 10.9455 64.5083 10.9455H63.7886L64.2932 7.78232C64.3237 7.59122 64.4902 7.45035 64.6862 7.45035H65.0158C65.8766 7.45035 66.6896 7.45035 67.1091 7.93569C67.3598 8.22609 67.4355 8.65648 67.3407 9.25127ZM66.7904 4.8313H62.0213C61.6953 4.8313 61.4177 5.06611 61.3667 5.38493L59.4386 17.4871C59.4004 17.7257 59.5868 17.9417 59.8311 17.9417H62.2781C62.5062 17.9417 62.7007 17.7773 62.7361 17.5541L63.2828 14.1233C63.3338 13.8045 63.6114 13.5696 63.9375 13.5696H65.4465C68.5877 13.5696 70.4009 12.0651 70.8748 9.08327C71.0881 7.77914 70.8833 6.75441 70.2662 6.03701C69.5879 5.24832 68.3861 4.8313 66.7904 4.8313Z" fill="#2790C3"/>
<path fill-rule="evenodd" clip-rule="evenodd" d="M33.3293 9.25127C33.0686 10.9455 31.7611 10.9455 30.4968 10.9455H29.7772L30.2818 7.78232C30.3124 7.59122 30.479 7.45035 30.6744 7.45035H31.0043C31.8651 7.45035 32.6783 7.45035 33.0973 7.93569C33.3483 8.22609 33.4242 8.65648 33.3293 9.25127ZM32.779 4.8313H28.0098C27.6838 4.8313 27.4062 5.06611 27.3554 5.38493L25.4268 17.4871C25.3888 17.7257 25.5753 17.9417 25.8195 17.9417H28.0966C28.4226 17.9417 28.7004 17.7069 28.7512 17.3882L29.2716 14.1233C29.3222 13.8045 29.6 13.5696 29.926 13.5696H31.4351C34.5763 13.5696 36.3893 12.0651 36.8632 9.08327C37.0764 7.77914 36.872 6.75441 36.2549 6.03701C35.5762 5.24832 34.3744 4.8313 32.779 4.8313Z" fill="#27346A"/>
<path fill-rule="evenodd" clip-rule="evenodd" d="M43.8477 13.5959C43.627 14.8873 42.5911 15.7542 41.2698 15.7542C40.6078 15.7542 40.0773 15.5434 39.7367 15.1442C39.399 14.7483 39.2717 14.1845 39.3788 13.5566C39.5843 12.2769 40.6368 11.382 41.9379 11.382C42.5865 11.382 43.1128 11.595 43.4604 11.9978C43.8105 12.4036 43.9477 12.9712 43.8477 13.5959ZM47.0302 9.19714H44.7467C44.5507 9.19714 44.3845 9.33777 44.3537 9.52929L44.2533 10.1612L44.0938 9.93214C43.5994 9.22174 42.497 8.98438 41.3964 8.98438C38.8734 8.98438 36.7183 10.8765 36.2988 13.5303C36.0806 14.8542 36.3904 16.1193 37.149 17.0023C37.8457 17.8137 38.8402 18.1514 40.025 18.1514C42.0589 18.1514 43.1867 16.8585 43.1867 16.8585L43.0845 17.4866C43.0466 17.7254 43.233 17.9416 43.4774 17.9416H45.5339C45.86 17.9416 46.1376 17.707 46.1882 17.3882L47.4228 9.65168C47.461 9.41284 47.2746 9.19714 47.0302 9.19714Z" fill="#27346A"/>
<path fill-rule="evenodd" clip-rule="evenodd" d="M77.8629 13.5959C77.6426 14.8873 76.6067 15.7542 75.2855 15.7542C74.6231 15.7542 74.0929 15.5434 73.752 15.1442C73.4143 14.7483 73.2873 14.1845 73.3945 13.5566C73.5999 12.2769 74.6524 11.382 75.9535 11.382C76.6018 11.382 77.1284 11.595 77.476 11.9978C77.8258 12.4036 77.963 12.9712 77.8629 13.5959ZM81.0455 9.19714H78.7619C78.5664 9.19714 78.3998 9.33777 78.3694 9.52929L78.2689 10.1612L78.1094 9.93214C77.6147 9.22174 76.5127 8.98438 75.4117 8.98438C72.8891 8.98438 70.7339 10.8765 70.3144 13.5303C70.0962 14.8542 70.406 16.1193 71.1643 17.0023C71.8613 17.8137 72.8558 18.1514 74.0406 18.1514C76.0741 18.1514 77.2019 16.8585 77.2019 16.8585L77.1001 17.4866C77.0619 17.7254 77.2483 17.9416 77.493 17.9416H79.5492C79.8752 17.9416 80.1529 17.707 80.2038 17.3882L81.4381 9.65168C81.4763 9.41284 81.2899 9.19714 81.0455 9.19714Z" fill="#2790C3"/>
<mask id="mask0_5698_1266" style="mask-type:alpha" maskUnits="userSpaceOnUse" x="0" y="0" width="87" height="21">
<path d="M0.0117188 20.9999H86.7319V0.174072H0.0117188V20.9999Z" fill="white"/>
</mask>
<g mask="url(#mask0_5698_1266)">
<path fill-rule="evenodd" clip-rule="evenodd" d="M59.1951 9.19702H56.8999C56.6806 9.19702 56.4751 9.30479 56.3517 9.48444L53.1858 14.0996L51.8436 9.66476C51.7598 9.38728 51.5016 9.19702 51.2092 9.19702H48.9528C48.6802 9.19702 48.4885 9.46218 48.5762 9.71737L51.1038 17.0593L48.7265 20.379C48.5398 20.6395 48.7283 20.9999 49.0508 20.9999H51.3439C51.5614 20.9999 51.7648 20.8944 51.8885 20.7175L59.5223 9.8147C59.7048 9.55381 59.5163 9.19702 59.1951 9.19702Z" fill="#27346A"/>
<path fill-rule="evenodd" clip-rule="evenodd" d="M83.7397 5.16369L81.7822 17.4871C81.7444 17.7259 81.9308 17.9417 82.1752 17.9417H84.1436C84.4697 17.9417 84.7473 17.7069 84.7982 17.3882L86.7282 5.28609C86.766 5.04725 86.5796 4.8313 86.3352 4.8313H84.1323C83.9367 4.8313 83.7702 4.97235 83.7397 5.16369Z" fill="#2790C3"/>
<path fill-rule="evenodd" clip-rule="evenodd" d="M9.03375 20.1419L9.67483 16.1188L9.7162 15.8959C9.74704 15.702 9.84738 15.5247 9.99849 15.397C10.1496 15.2693 10.3423 15.1989 10.541 15.1989H11.05C11.8986 15.1989 12.6781 15.1091 13.3672 14.9322C14.1024 14.7436 14.7564 14.4499 15.3107 14.0598C15.8984 13.6461 16.392 13.1114 16.778 12.4708C17.1853 11.7949 17.4842 10.9812 17.6669 10.0526C17.8282 9.23251 17.8585 8.49838 17.7571 7.87027C17.6497 7.20678 17.3914 6.64062 16.9895 6.18709C16.7458 5.91241 16.434 5.67441 16.0627 5.47967L16.054 5.47501L16.0538 5.46441C16.1834 4.64583 16.1785 3.96301 16.039 3.37522C15.8988 2.78616 15.615 2.25607 15.1707 1.75504C14.2501 0.716914 12.5757 0.19043 10.1942 0.19043H3.65361C3.435 0.19043 3.22281 0.267854 3.05648 0.408491C2.89016 0.549128 2.77998 0.744491 2.74569 0.958309L0.022306 18.0496C-0.00255722 18.2055 0.0426682 18.3639 0.146408 18.4835C0.250148 18.6038 0.401044 18.6728 0.560508 18.6728H4.61815L4.6145 18.6919L4.33586 20.4406C4.31442 20.5765 4.35386 20.7144 4.44411 20.8188C4.53433 20.9234 4.66575 20.9836 4.80463 20.9836H8.20789C8.39886 20.9836 8.58386 20.9159 8.72897 20.7931C8.87407 20.6703 8.97052 20.5 9.00029 20.3135L9.03375 20.1419Z" fill="#27346A"/>
<path fill-rule="evenodd" clip-rule="evenodd" d="M6.70314 5.48663C6.74621 5.21577 6.92177 4.99411 7.15819 4.8819C7.26577 4.83098 7.3858 4.80256 7.51164 4.80256H12.6384C13.2458 4.80256 13.8121 4.842 14.33 4.92453C14.4779 4.94809 14.6217 4.97521 14.7616 5.00598C14.9016 5.03674 15.0373 5.0709 15.1687 5.10909C15.2344 5.12795 15.299 5.1479 15.3626 5.1689C15.6169 5.25248 15.8535 5.3509 16.0712 5.465C16.328 3.84503 16.0695 2.74265 15.1841 1.74419C14.2093 0.64498 12.4483 0.174072 10.1952 0.174072H3.6546C3.19421 0.174072 2.80218 0.505617 2.73038 0.955738L0.00699402 18.047C-0.0468049 18.3842 0.216617 18.6891 0.561489 18.6891H4.59919L6.70314 5.48663Z" fill="#27346A"/>
<path fill-rule="evenodd" clip-rule="evenodd" d="M16.0693 5.46509C16.0498 5.58874 16.0281 5.71453 16.0024 5.84414C15.1401 10.2268 12.1891 11.742 8.42018 11.742H6.50098C6.04059 11.742 5.65177 12.0737 5.57998 12.5239L4.31859 20.4383C4.27166 20.7331 4.50207 21 4.80363 21H8.20713C8.60988 21 8.95282 20.71 9.0156 20.3161L9.04905 20.1449L9.69013 16.1214L9.73151 15.8991C9.79432 15.5052 10.1373 15.2152 10.54 15.2152H11.049C14.3462 15.2152 16.9279 13.8895 17.6824 10.0556C17.9975 8.45367 17.8346 7.11646 17.001 6.17632C16.7489 5.89209 16.4351 5.65685 16.0693 5.46509Z" fill="#2790C3"/>
<path fill-rule="evenodd" clip-rule="evenodd" d="M15.1649 5.10899C15.0335 5.0708 14.8978 5.03668 14.7578 5.00591C14.6178 4.97515 14.474 4.94799 14.3262 4.92447C13.8083 4.84194 13.242 4.80249 12.6346 4.80249H7.50783C7.382 4.80249 7.26196 4.83091 7.15438 4.8818C6.91796 4.99405 6.7424 5.2157 6.69933 5.48657L5.60964 12.3241L5.57812 12.5237C5.64992 12.0736 6.03873 11.7418 6.49912 11.7418H8.41832C12.1873 11.7418 15.1383 10.2267 16.0005 5.84399C16.0263 5.71438 16.0479 5.58859 16.0674 5.46494C15.8496 5.3508 15.613 5.25238 15.3588 5.1688C15.2952 5.1478 15.2306 5.12789 15.1649 5.10899Z" fill="#1F264F"/>
</g>
</svg>
