<svg width="28" height="26" viewBox="0 0 28 26" fill="none" xmlns="http://www.w3.org/2000/svg">
<path d="M1.57027 5.35428C0.402199 7.79032 0.410144 11.0874 2.568 14.8249C5.39979 19.7297 11.1111 24.2266 13.9977 25.0001C16.8844 24.2266 22.5957 19.7297 25.4275 14.8249C31.5804 4.16774 20.2657 -2.91454 13.9977 3.35338C11.293 0.648555 7.64913 0.431411 4.87392 1.9132" stroke="#D6AE29" stroke-width="1.25006" stroke-miterlimit="22.9256" stroke-linecap="round" stroke-linejoin="round"/>
<path fill-rule="evenodd" clip-rule="evenodd" d="M13.9963 18.3717C13.2884 18.3717 12.7037 19.0743 11.6813 19.0743C10.2638 19.0743 9.11465 17.9252 9.11465 16.5077C9.11465 15.572 9.61545 14.7532 10.3636 14.3048C11.0183 13.9123 11.3152 13.5695 11.6669 12.8117C12.0744 11.9333 12.9643 11.324 13.9964 11.324C15.0285 11.324 15.9184 11.9332 16.3259 12.8117C16.6775 13.5695 16.9744 13.9123 17.6292 14.3048C18.3773 14.7532 18.8781 15.572 18.8781 16.5077C18.8781 17.9252 17.729 19.0743 16.3115 19.0743C15.289 19.0744 14.7043 18.3717 13.9963 18.3717ZM11.0659 5.86886C11.8649 5.72606 12.6664 6.4709 12.8561 7.53252C13.0458 8.59414 12.552 9.57051 11.7531 9.7133C10.9541 9.8561 10.1526 9.11126 9.96288 8.04964C9.77312 6.98797 10.267 6.0116 11.0659 5.86886ZM6.99915 9.84472C7.68128 9.52209 8.5818 9.99529 9.01051 10.9017C9.43921 11.8081 9.23377 12.8045 8.55163 13.1271C7.86949 13.4497 6.96898 12.9765 6.54027 12.0701C6.11156 11.1637 6.31701 10.1673 6.99915 9.84472ZM16.9267 5.86886C16.1278 5.72606 15.3263 6.4709 15.1366 7.53252C14.9468 8.59414 15.4407 9.57051 16.2396 9.7133C17.0386 9.8561 17.84 9.11126 18.0298 8.04964C18.2196 6.98797 17.7257 6.0116 16.9267 5.86886ZM20.9935 9.84472C20.3114 9.52209 19.4109 9.99529 18.9822 10.9017C18.5535 11.8081 18.7589 12.8045 19.4411 13.1271C20.1232 13.4497 21.0237 12.9765 21.4524 12.0701C21.8811 11.1637 21.6757 10.1673 20.9935 9.84472Z" stroke="#D6AE29" stroke-width="1.25006" stroke-miterlimit="22.9256" stroke-linecap="round" stroke-linejoin="round"/>
<path d="M2.94531 3.36816H2.94581" stroke="#D6AE29" stroke-width="1.25004" stroke-miterlimit="2.6131" stroke-linecap="round" stroke-linejoin="round"/>
</svg>
