<svg width="32" height="33" viewBox="0 0 32 33" fill="none" xmlns="http://www.w3.org/2000/svg">
<path fill-rule="evenodd" clip-rule="evenodd" d="M19.1283 25.1891C18.4866 25.1891 17.3584 22.9281 14.1636 25.0958C14.039 25.18 13.8823 25.1762 13.7619 25.0845C12.4942 24.121 10.1994 23.6186 9.34258 24.9882C9.22204 25.181 8.98586 25.2253 8.81715 25.0868C7.96012 24.3851 6.09854 23.3949 5.18715 24.6745C5.15968 24.7126 5.12673 24.7452 5.08968 24.7709C3.61519 25.7875 1.87658 24.316 2.5021 23.7247C2.66031 23.5745 2.8965 23.5984 3.02884 23.7772C3.10138 23.8729 3.73797 24.6596 4.64917 24.0781C5.81699 22.5294 7.78598 23.323 8.96636 24.175C10.1854 22.7578 12.5219 23.2398 13.9777 24.2333C15.8908 22.9953 17.4109 22.9976 19.1193 24.2461C20.6613 23.0493 22.4912 23.0427 24.0011 24.229C27.3484 22.2017 27.4341 24.1202 29.2968 24.3077C30.298 24.4085 30.4912 23.2405 30.9758 23.7202C31.5291 24.2675 30.1881 25.2508 29.231 25.1547C26.984 24.9293 27.4056 23.057 24.1529 25.103C24.0225 25.1851 23.8614 25.171 23.7426 25.0679C22.4068 23.9014 20.7254 23.9143 19.3549 25.1013C19.2886 25.1602 19.2085 25.1893 19.1283 25.1893V25.1891ZM19.1283 28.7294C18.4881 28.7294 17.352 26.4675 14.1636 28.636C14.039 28.7207 13.8823 28.7166 13.7619 28.6248C12.4934 27.6613 10.1992 27.1588 9.34258 28.5282C9.22242 28.7203 8.98679 28.7655 8.81752 28.6271C7.9605 27.9254 6.09873 26.9355 5.18753 28.2148C5.16016 28.253 5.12719 28.2856 5.09005 28.3111C3.60788 29.3261 1.8792 27.8554 2.50248 27.2649C2.66068 27.1146 2.89631 27.1386 3.02921 27.3172C3.10082 27.4117 3.73778 28.2006 4.64973 27.6186C5.81774 26.0699 7.78654 26.8637 8.96674 27.7151C10.1859 26.2972 12.5221 26.7795 13.9781 27.7736C15.8904 26.5356 17.4105 26.5377 19.1197 27.7863C20.6616 26.5889 22.4912 26.5824 24.0011 27.7693C27.3469 25.7426 27.4299 27.657 29.297 27.848C30.2985 27.9507 30.491 26.7797 30.976 27.26C31.5289 27.8078 30.1887 28.7913 29.2312 28.6949C26.9861 28.4691 27.4016 26.5968 24.1531 28.6431C24.0226 28.7254 23.8616 28.7115 23.7428 28.608C22.407 27.4418 20.7257 27.4544 19.3551 28.6416C19.2901 28.6987 19.2102 28.7296 19.1279 28.7296L19.1283 28.7294ZM19.1283 32.2697C18.4945 32.2697 17.3512 30.0089 14.1636 32.1763C14.039 32.2607 13.8823 32.2567 13.7619 32.165C12.4942 31.2016 10.1994 30.6991 9.34258 32.0687C9.22242 32.2609 8.98679 32.3062 8.81752 32.1678C7.9605 31.4652 6.09836 30.4762 5.18753 31.7555C5.16025 31.7938 5.12726 31.8264 5.09005 31.8518C3.60731 32.8674 1.8792 31.3955 2.50248 30.8056C2.66068 30.6555 2.89631 30.6789 3.02921 30.8579C3.10082 30.9528 3.73778 31.7415 4.64973 31.1592C5.81755 29.611 7.78617 30.4044 8.96674 31.2558C10.1855 29.8379 12.5225 30.3206 13.9781 31.314C15.8912 30.0765 17.4112 30.0784 19.1197 31.3268C20.6611 30.1299 22.4915 30.1228 24.0011 31.31C27.3478 29.2827 27.432 31.199 29.297 31.3887C30.2983 31.4905 30.4908 30.3208 30.976 30.8007C31.5289 31.3479 30.189 32.3322 29.2312 32.2356C26.9831 32.0092 27.4056 30.1377 24.1531 32.1835C24.0226 32.2658 23.8616 32.2518 23.7428 32.1485C22.407 30.9823 20.7257 30.9945 19.3551 32.1818C19.2901 32.239 19.2102 32.27 19.1279 32.2701L19.1283 32.2697ZM21.1376 19.8425C21.0257 19.8425 20.9153 19.7861 20.841 19.6777L19.0602 17.076H6.76006C6.70697 17.076 6.65449 17.0631 6.60609 17.0384C6.55768 17.0137 6.51446 16.9775 6.47926 16.9325L2.79921 12.2142C2.58739 11.9428 2.75479 11.5124 3.07476 11.5071L5.28163 11.4712C5.40066 11.4729 5.51032 11.5299 5.58268 11.6347L7.62908 14.6119H18.1395C18.2551 14.6119 18.3644 14.6727 18.4357 14.7765L21.4334 19.1565C21.6265 19.4387 21.4401 19.8425 21.1374 19.8425H21.1376ZM6.92914 16.2254H18.4784L17.9562 15.4623H7.44594C7.38892 15.4622 7.33265 15.4474 7.2814 15.4191C7.23016 15.3907 7.18527 15.3495 7.15015 15.2985L5.1058 12.3245L3.9018 12.3441L6.92933 16.2254H6.92914Z" fill="#D6AE29"/>
<path fill-rule="evenodd" clip-rule="evenodd" d="M4.65458 19.8423C4.33704 19.8423 4.16027 19.4151 4.37097 19.1387L6.47792 16.3729C6.8009 15.9491 7.36775 16.5058 7.04534 16.9289L4.93838 19.695C4.86415 19.7926 4.75974 19.8423 4.65458 19.8423Z" fill="#D6AE29"/>
<path fill-rule="evenodd" clip-rule="evenodd" d="M21.415 19.8425H2.80389C2.31051 19.8425 2.31051 18.992 2.80389 18.992H21.415C21.9084 18.992 21.9086 19.8425 21.415 19.8425ZM0.659256 10.2707C0.304785 10.2707 0.273668 9.85581 0.192127 9.51027C-0.911399 4.83747 2.21641 0.270142 6.43332 0.270142C9.36262 0.270142 11.9371 2.50713 12.6934 5.71058C12.7664 6.01869 12.9653 6.54562 12.5334 6.67682L0.659256 10.2709V10.2707ZM6.43351 1.12007C2.73359 1.12007 -0.0611198 5.09668 0.924687 9.32421L11.9776 5.96468C11.3116 3.10848 9.03739 1.12007 6.43351 1.12007Z" fill="#D6AE29"/>
<path fill-rule="evenodd" clip-rule="evenodd" d="M3.8165 9.31099C3.69409 9.31099 3.57431 9.24337 3.50251 9.11876C1.60438 5.83047 4.52225 0.746852 4.55187 0.69603C4.65628 0.516773 4.86191 0.454257 5.03193 0.549733C5.0801 0.576951 9.84493 3.3851 9.65354 7.24901C9.6258 7.81272 8.87749 7.75807 8.90505 7.20137C9.04283 4.41811 5.98756 2.15815 4.9995 1.503C4.43302 2.63086 2.78364 6.32125 4.12916 8.65286C4.2945 8.93908 4.10686 9.31078 3.81631 9.31078L3.8165 9.31099Z" fill="#D6AE29"/>
<path fill-rule="evenodd" clip-rule="evenodd" d="M8.1981 15.4627C8.03258 15.4627 7.88093 15.3375 7.83613 15.1474L6.18693 8.1653C6.05909 7.62455 6.78359 7.40404 6.91143 7.94521L8.56063 14.9273C8.62474 15.1982 8.44404 15.4627 8.1981 15.4627ZM19.0669 7.34641C18.0745 7.34641 17.2676 6.43057 17.2676 5.30505C17.2676 4.17954 18.0749 3.26391 19.0669 3.26391C20.0591 3.26391 20.8666 4.17976 20.8666 5.30505C20.8666 6.43078 20.0593 7.34641 19.0669 7.34641ZM19.0669 4.11447C17.6856 4.11447 17.686 6.49606 19.0669 6.49606C20.4484 6.49606 20.4484 4.11447 19.0669 4.11447ZM19.0669 3.05871C18.5563 3.05871 18.692 2.24812 18.692 1.53173C18.692 0.971845 19.4418 0.971845 19.4418 1.53173C19.4418 2.24897 19.5775 3.05871 19.0669 3.05871Z" fill="#D6AE29"/>
<path fill-rule="evenodd" clip-rule="evenodd" d="M20.7322 3.84151C20.4017 3.84151 20.2298 3.38455 20.4673 3.11513C20.9142 2.6084 21.3234 1.92646 21.6844 2.33601C22.0458 2.74598 21.4435 3.20912 20.997 3.71669C20.9623 3.75632 20.9211 3.78775 20.8756 3.80918C20.8301 3.8306 20.7814 3.84159 20.7322 3.84151ZM22.3933 5.73062C21.7618 5.73062 21.0474 5.88457 21.0474 5.30534C21.0474 4.7261 21.7622 4.88005 22.3933 4.88005C22.8867 4.88005 22.8869 5.73062 22.3933 5.73062ZM21.4188 8.39906C21.159 8.39906 20.7623 7.83152 20.4665 7.49576C20.1175 7.09939 20.648 6.49826 20.997 6.89419C21.4435 7.40071 22.0454 7.86533 21.684 8.27488C21.6492 8.31437 21.6079 8.34569 21.5624 8.36703C21.5169 8.38838 21.4682 8.39933 21.419 8.39927L21.4188 8.39906ZM19.0665 9.50458C18.5558 9.50458 18.6916 8.69378 18.6916 7.97739C18.6916 7.41772 19.4414 7.41772 19.4414 7.97739C19.4414 8.69463 19.5771 9.50458 19.0665 9.50458ZM16.7143 8.39906C16.3829 8.39906 16.2123 7.94167 16.4491 7.6731C16.8956 7.16659 17.3052 6.48401 17.6662 6.89398C18.0269 7.30353 17.4274 7.76751 16.9794 8.27466C16.909 8.35433 16.8137 8.39907 16.7143 8.39906ZM16.7113 5.73062C16.0798 5.73062 15.3652 5.88457 15.3652 5.30534C15.3652 4.7261 16.0798 4.88005 16.7113 4.88005C17.2049 4.88005 17.2049 5.73062 16.7113 5.73062ZM17.4011 3.84151C17.1411 3.84151 16.7462 3.2744 16.4491 2.93779C16.0997 2.54185 16.6305 1.94028 16.9794 2.33644C17.4265 2.84401 18.0276 3.30714 17.6662 3.71669C17.6314 3.75626 17.5901 3.78765 17.5446 3.80907C17.4992 3.83049 17.4504 3.84151 17.4011 3.84151ZM30.7968 19.8426H21.4154C20.9219 19.8426 20.922 18.992 21.4154 18.992H30.7968C31.2902 18.992 31.2902 19.8426 30.7968 19.8426Z" fill="#D6AE29"/>
<path fill-rule="evenodd" clip-rule="evenodd" d="M24.3358 23.3702C24.1289 23.3702 23.9609 23.1795 23.9609 22.945V13.6285C23.9609 12.5283 24.7497 11.6339 25.7194 11.6339C27.3424 11.6339 27.9505 14.0538 27.1032 14.0538C26.8964 14.0538 26.7283 13.8632 26.7283 13.6285C26.7283 12.1221 24.7113 12.1223 24.7113 13.6285V22.9447C24.7107 23.1795 24.5426 23.3702 24.3358 23.3702ZM28.8202 23.3702C28.6133 23.3702 28.4453 23.1795 28.4453 22.945V13.6285C28.4453 12.5283 29.2341 11.6339 30.2038 11.6339C31.8266 11.6339 32.4349 14.0538 31.5874 14.0538C31.3806 14.0538 31.2125 13.8632 31.2125 13.6285C31.2125 12.1223 29.1955 12.1219 29.1955 13.6285V22.9447C29.1951 23.1795 29.027 23.3702 28.8201 23.3702H28.8202Z" fill="#D6AE29"/>
<path fill-rule="evenodd" clip-rule="evenodd" d="M28.8195 15.9454H24.3349C23.8414 15.9454 23.8416 15.0948 24.3349 15.0948H28.8195C29.3131 15.0948 29.3131 15.9454 28.8195 15.9454ZM28.8195 17.8938H24.3349C23.8414 17.8938 23.8416 17.0433 24.3349 17.0433H28.8195C29.3131 17.0433 29.3131 17.8938 28.8195 17.8938ZM28.8195 19.8425H24.3349C23.8414 19.8425 23.8416 18.9919 24.3349 18.9919H28.8195C29.3131 18.9919 29.3131 19.8425 28.8195 19.8425ZM28.8195 21.7903H24.3349C23.8414 21.7903 23.8416 20.9397 24.3349 20.9397H28.8195C29.3131 20.9397 29.3131 21.7903 28.8195 21.7903Z" fill="#D6AE29"/>
</svg>
