<svg width="32" height="32" viewBox="0 0 32 32" fill="none" xmlns="http://www.w3.org/2000/svg">
<path d="M29.9948 27.7333H30.3996C30.8239 27.7333 31.2309 27.5647 31.5309 27.2647C31.831 26.9646 31.9996 26.5576 31.9996 26.1333C31.9996 25.7089 31.831 25.302 31.5309 25.0019C31.2309 24.7019 30.8239 24.5333 30.3996 24.5333V24C30.3987 23.293 30.1175 22.6152 29.6176 22.1153C29.1177 21.6154 28.4399 21.3341 27.7329 21.3333H16.5692L20.0278 11.8218C20.1787 12.0915 20.2976 12.3779 20.382 12.6752C20.4027 12.7603 20.4442 12.8391 20.5027 12.9044C20.5612 12.9698 20.6349 13.0197 20.7173 13.0497C20.7996 13.0798 20.8882 13.0891 20.975 13.0768C21.0618 13.0645 21.1443 13.0309 21.215 12.9792C21.2284 12.9696 22.558 12.0159 23.7708 12.4581C24.9836 12.9002 25.39 14.4847 25.3937 14.4986C25.4144 14.5839 25.4558 14.6627 25.5143 14.7281C25.5728 14.7935 25.6464 14.8434 25.7288 14.8736C25.8112 14.9037 25.8998 14.913 25.9866 14.9007C26.0735 14.8884 26.156 14.8549 26.2268 14.8032C26.2396 14.793 27.5718 13.8399 28.783 14.2821C29.9942 14.7242 30.4022 16.3087 30.406 16.3226C30.4331 16.4338 30.4954 16.5333 30.5834 16.6064C30.6715 16.6794 30.7808 16.7223 30.895 16.7285H30.9238C31.0333 16.7285 31.1401 16.6949 31.2298 16.6321C31.3195 16.5693 31.3877 16.4804 31.4252 16.3776C33.2796 11.2751 30.6881 4.19035 22.2241 1.11035C17.3436 -0.665117 13.6609 0.00741622 11.431 0.88475C10.0523 1.40049 8.79863 2.20273 7.75271 3.23854C6.70678 4.27434 5.8924 5.52017 5.36329 6.89382C5.32422 7.00128 5.32071 7.11845 5.35329 7.22805C5.38587 7.33765 5.45282 7.43389 5.54425 7.50255C5.63568 7.57121 5.74676 7.60867 5.8611 7.60941C5.97544 7.61014 6.08699 7.5741 6.17929 7.50662C6.19263 7.49702 7.52383 6.54662 8.73556 6.98555C9.94729 7.42448 10.3548 9.01222 10.3585 9.02608C10.3792 9.11123 10.4207 9.18996 10.4791 9.25529C10.5375 9.32062 10.6111 9.37055 10.6934 9.40066C10.7758 9.43077 10.8642 9.44013 10.951 9.42791C11.0378 9.41569 11.1202 9.38228 11.191 9.33062C11.2049 9.32102 12.5345 8.36688 13.7473 8.80955C14.9601 9.25222 15.3665 10.8362 15.3702 10.8495C15.391 10.9347 15.4324 11.0134 15.4908 11.0788C15.5492 11.1441 15.6229 11.194 15.7052 11.2241C15.7875 11.2542 15.8759 11.2636 15.9627 11.2514C16.0495 11.2392 16.132 11.2057 16.2028 11.1541C16.458 10.9806 16.7326 10.8374 17.0209 10.7274L13.694 19.8736L7.21929 13.3989C6.71858 12.8994 6.04018 12.6188 5.33289 12.6188C4.62561 12.6188 3.94721 12.8994 3.44649 13.3989L2.88489 13.9605L2.73129 13.8063C2.42852 13.5136 2.02409 13.3495 1.60293 13.3487C1.18177 13.3478 0.776643 13.5101 0.472627 13.8015C0.322567 13.949 0.203331 14.1248 0.121856 14.3188C0.0403819 14.5128 -0.00170387 14.721 -0.00195202 14.9314C-0.00220017 15.1418 0.0393942 15.3501 0.120411 15.5443C0.201428 15.7384 0.320249 15.9145 0.469961 16.0624L8.93609 24.5333H6.52756C6.10754 24.5319 5.69142 24.6138 5.30327 24.7743C4.91512 24.9348 4.56264 25.1706 4.26623 25.4682L0.472627 29.2682C0.32266 29.4159 0.203563 29.5919 0.12227 29.786C0.0409764 29.9801 -0.000889017 30.1884 -0.000889017 30.3989C-0.000889017 30.6093 0.0409764 30.8177 0.12227 31.0118C0.203563 31.2059 0.32266 31.3819 0.472627 31.5296C0.620471 31.6786 0.796357 31.7969 0.99014 31.8776C1.18392 31.9583 1.39177 31.9999 1.60169 31.9999C1.81162 31.9999 2.01946 31.9583 2.21325 31.8776C2.40703 31.7969 2.58292 31.6786 2.73076 31.5296L6.52756 27.7333H10.8326L9.66889 30.9333H7.46623C7.32478 30.9333 7.18912 30.9895 7.0891 31.0895C6.98908 31.1895 6.93289 31.3252 6.93289 31.4666C6.93289 31.6081 6.98908 31.7437 7.0891 31.8437C7.18912 31.9438 7.32478 32 7.46623 32H14.9329C15.0743 32 15.21 31.9438 15.31 31.8437C15.41 31.7437 15.4662 31.6081 15.4662 31.4666C15.4662 31.3252 15.41 31.1895 15.31 31.0895C15.21 30.9895 15.0743 30.9333 14.9329 30.9333H13.0758L14.2396 27.7333H25.4694L29.271 31.5296C29.5705 31.829 29.9768 31.9972 30.4003 31.9971C30.8238 31.9971 31.23 31.8288 31.5294 31.5293C31.8289 31.2298 31.9971 30.8236 31.997 30.4C31.997 29.9765 31.8287 29.5703 31.5292 29.2709L29.9948 27.7333ZM19.1238 9.63035C18.3919 9.38524 17.5989 9.39331 16.8721 9.65328C17.6086 7.76598 18.5312 5.9567 19.6262 4.25222C20.934 2.30555 21.6838 2.04475 21.8604 2.11302C22.0369 2.18128 22.447 2.85595 22.1974 5.18768C21.9402 7.19659 21.4836 9.17489 20.8342 11.0933C20.4444 10.4275 19.842 9.91227 19.1238 9.63035ZM24.1372 11.4543C23.3855 11.2036 22.5707 11.2179 21.8284 11.4949C22.5142 9.4842 22.9927 7.40872 23.2566 5.30075C23.3591 4.4974 23.3648 3.68466 23.2737 2.87995C24.4932 3.82755 25.3728 5.14495 25.7804 6.63462C26.3549 8.67002 26.3661 10.8232 25.8129 12.8645C25.4242 12.2227 24.8346 11.727 24.1356 11.4543H24.1372ZM30.7937 14.6351C30.4044 14.0186 29.8272 13.5435 29.1473 13.2799C28.8112 13.1588 28.4565 13.0976 28.0993 13.0992C27.653 13.1052 27.211 13.1871 26.7921 13.3413C27.4471 11.0501 27.4497 8.62158 26.7996 6.32902C26.5702 5.57117 26.2458 4.8454 25.8342 4.16902C29.9025 7.02982 31.4129 11.1557 30.7921 14.6351H30.7937ZM9.09983 5.98288C8.40893 5.74832 7.66083 5.74271 6.96649 5.96688C8.07368 4.09286 9.7851 2.65093 11.8198 1.87782C13.6362 1.18462 15.5894 0.925114 17.5238 1.11995C16.7629 1.37455 16.0378 1.72549 15.366 2.16422C13.3968 3.50198 11.8394 5.36192 10.8684 7.53542C10.4761 6.82897 9.85113 6.28032 9.09983 5.98288ZM14.1132 7.80688C13.4037 7.56779 12.6352 7.5691 11.9265 7.81062C12.8136 5.8916 14.2051 4.24952 15.9526 3.05968C17.2226 2.18011 18.7433 1.73569 20.287 1.79302C19.6997 2.35122 19.1815 2.97793 18.7436 3.65968C17.5913 5.44483 16.6245 7.34304 15.8582 9.32475C15.4673 8.63342 14.8507 8.09751 14.1116 7.80688H14.1132ZM18.2321 10.5269C18.5945 10.5469 18.9429 10.6735 19.2337 10.8906L15.4342 21.3333H15.3756C15.3047 21.3332 15.2346 21.319 15.1693 21.2915C15.104 21.2641 15.0449 21.2239 14.9953 21.1733L14.5265 20.7045L18.2321 10.5269ZM4.20223 14.1535C4.5027 13.8536 4.90993 13.6851 5.33449 13.6851C5.75906 13.6851 6.16628 13.8536 6.46676 14.1535L14.2396 21.929C14.3883 22.0789 14.5653 22.1977 14.7603 22.2785C14.9553 22.3594 15.1645 22.4006 15.3756 22.4H27.7329C28.1572 22.4 28.5642 22.5685 28.8643 22.8686C29.1643 23.1686 29.3329 23.5756 29.3329 24V24.5333H13.4636L3.63956 14.7141L4.20223 14.1535ZM1.22196 15.3066C1.17165 15.2578 1.13172 15.1992 1.10459 15.1345C1.07746 15.0699 1.06369 15.0004 1.06408 14.9302C1.06448 14.8601 1.07905 14.7908 1.10691 14.7264C1.13478 14.662 1.17536 14.604 1.22623 14.5557C1.32592 14.458 1.45996 14.4032 1.59956 14.4032C1.73916 14.4032 1.8732 14.458 1.97289 14.5557L11.9542 24.5333H10.4449L1.22196 15.3066ZM5.77716 26.9781L1.97289 30.7733C1.87292 30.8729 1.73752 30.9289 1.59636 30.9289C1.4552 30.9289 1.3198 30.8729 1.21983 30.7733C1.17031 30.7243 1.13111 30.666 1.10456 30.6016C1.078 30.5372 1.06462 30.4682 1.06522 30.3986C1.06582 30.329 1.08037 30.2602 1.10803 30.1963C1.13569 30.1324 1.17588 30.0747 1.22623 30.0266L5.02356 26.2245C5.22055 26.0262 5.4549 25.8689 5.71305 25.7617C5.9712 25.6545 6.24804 25.5995 6.52756 25.6H30.3996C30.541 25.6 30.6767 25.6561 30.7767 25.7562C30.8767 25.8562 30.9329 25.9918 30.9329 26.1333C30.9329 26.2747 30.8767 26.4104 30.7767 26.5104C30.6767 26.6104 30.541 26.6666 30.3996 26.6666H6.52756C6.38803 26.6655 6.2497 26.6925 6.12079 26.7459C5.99188 26.7993 5.87502 26.8786 5.77716 26.9781ZM11.9404 30.9333H10.8038L11.9681 27.7333H13.1046L11.9404 30.9333ZM30.7729 30.7733C30.673 30.8721 30.5382 30.9276 30.3977 30.9276C30.2572 30.9276 30.1224 30.8721 30.0225 30.7733L26.9793 27.7333H28.4876L30.7766 30.0266C30.8268 30.075 30.8666 30.133 30.8939 30.1972C30.9211 30.2613 30.9351 30.3303 30.9351 30.4C30.9351 30.4696 30.9211 30.5386 30.8939 30.6027C30.8666 30.6669 30.8268 30.7249 30.7766 30.7733H30.7729Z" fill="#D6AE29"/>
</svg>
