<svg width="32" height="28" viewBox="0 0 32 28" fill="none" xmlns="http://www.w3.org/2000/svg">
<path d="M29.027 18.0336C29.027 18.2674 29.2165 18.457 29.4504 18.457C29.6842 18.457 29.8738 18.2674 29.8738 18.0336C29.8738 16.3218 30.2421 15.6282 30.5379 15.0709C30.7328 14.7038 30.917 14.3571 30.917 13.8608C30.917 12.7171 29.9119 11.2482 29.7973 11.0845C29.6632 10.893 29.3995 10.8465 29.2078 10.9804C29.0163 11.1144 28.9696 11.3783 29.1034 11.5699C29.3723 11.955 30.0701 13.117 30.0701 13.8608C30.0701 14.1462 29.9587 14.3561 29.79 14.6737C29.468 15.2803 29.027 16.1109 29.027 18.0336ZM26.5772 18.0336C26.5772 18.2674 26.7668 18.457 27.0006 18.457C27.2345 18.457 27.424 18.2674 27.424 18.0336C27.424 16.3218 27.7923 15.6282 28.0882 15.0709C28.2831 14.7038 28.4672 14.3571 28.4672 13.8608C28.4672 12.7171 27.4621 11.2482 27.3475 11.0845C27.2135 10.893 26.9497 10.8465 26.7581 10.9804C26.5665 11.1144 26.5198 11.3783 26.6536 11.5699C26.9225 11.955 27.6203 13.117 27.6203 13.8608C27.6203 14.1462 27.5089 14.3561 27.3402 14.6737C27.0182 15.2803 26.5772 16.1109 26.5772 18.0336ZM2.12621 18.0336C2.12621 18.2674 2.31579 18.457 2.54962 18.457C2.78346 18.457 2.97304 18.2674 2.97304 18.0336C2.97304 16.1109 2.532 15.2803 2.20998 14.6738C2.04128 14.3561 1.92984 14.1462 1.92984 13.8608C1.92984 13.117 2.62771 11.955 2.89666 11.57C3.03058 11.3784 2.98395 11.1145 2.79245 10.9805C2.6009 10.8464 2.33683 10.893 2.20275 11.0845C2.08816 11.2483 1.08301 12.7171 1.08301 13.8608C1.08301 14.3571 1.26712 14.7038 1.46203 15.0709C1.75792 15.6282 2.12621 16.3218 2.12621 18.0336ZM4.57597 18.0336C4.57597 18.2674 4.76555 18.457 4.99938 18.457C5.23322 18.457 5.4228 18.2674 5.4228 18.0336C5.4228 16.1109 4.98176 15.2803 4.65974 14.6738C4.49104 14.3561 4.3796 14.1462 4.3796 13.8608C4.3796 13.117 5.07747 11.955 5.3464 11.57C5.48032 11.3784 5.43371 11.1145 5.24221 10.9805C5.05066 10.8464 4.78658 10.893 4.65251 11.0845C4.53792 11.2483 3.53277 12.7171 3.53277 13.8608C3.53277 14.3571 3.71688 14.7038 3.91179 15.0709C4.2077 15.6282 4.57597 16.3218 4.57597 18.0336ZM31.5766 19.2528H24.7701C25.1531 18.7301 25.2784 18.0231 25.0416 17.3723L22.8793 11.3762C22.1774 9.44786 20.3271 8.15221 18.2749 8.15221H13.725C11.6728 8.15221 9.82249 9.44784 9.12022 11.3774L6.95877 17.3711C6.72162 18.0227 6.84691 18.73 7.22987 19.2529H0.423408C0.189568 19.2529 0 19.4424 0 19.6763C0 19.9101 0.189584 20.0997 0.423408 20.0997H11.9782V24.9454C11.9782 26.1701 12.9746 27.1665 14.1994 27.1665C14.9397 27.1665 15.5962 26.8021 16 26.2436C16.4038 26.8021 17.0603 27.1665 17.8006 27.1665C19.0253 27.1665 20.0218 26.1701 20.0218 24.9454V20.0997H31.5766C31.8104 20.0997 32 19.9101 32 19.6763C32 19.4424 31.8104 19.2528 31.5766 19.2528ZM11.938 19.2528H10.3679C10.482 19.0991 10.5732 18.9297 10.6386 18.7497C10.6395 18.7472 10.6404 18.7448 10.6412 18.7423L11.9517 14.9237L11.938 19.2528ZM15.5737 24.9453C15.5737 25.7031 14.9572 26.3197 14.1994 26.3197C13.4416 26.3197 12.8251 25.7031 12.8251 24.9453V19.672C12.8251 18.9142 13.4416 18.2977 14.1994 18.2977C14.9572 18.2977 15.5737 18.9142 15.5737 19.672V24.9453ZM19.1749 24.9453C19.1749 25.7031 18.5584 26.3197 17.8006 26.3197C17.0428 26.3197 16.4263 25.7031 16.4263 24.9453V19.672C16.4263 18.9142 17.0428 18.2977 17.8006 18.2977C18.5584 18.2977 19.1749 18.9142 19.1749 19.672V24.9453ZM20.0429 19.2528L20.0412 14.9032L21.3588 18.7423C21.3596 18.7448 21.3605 18.7472 21.3613 18.7497C21.4267 18.9297 21.5179 19.0991 21.632 19.2528H20.0429ZM23.6283 19.1134C23.3438 19.2286 23.0331 19.2235 22.7534 19.0992C22.4747 18.9752 22.2635 18.7496 22.1584 18.4636L20.0173 12.2245C19.9501 12.0287 19.7515 11.9099 19.547 11.9443C19.3429 11.9784 19.1933 12.155 19.1934 12.3621L19.1956 17.9453C18.814 17.6364 18.3286 17.4509 17.8006 17.4509C17.0602 17.4509 16.4038 17.8153 16 18.3738C15.5962 17.8153 14.9397 17.4509 14.1994 17.4509C13.6643 17.4509 13.1728 17.6411 12.789 17.9574L12.8066 12.3633C12.8073 12.156 12.6579 11.9788 12.4535 11.9444C12.2489 11.9102 12.05 12.0285 11.9827 12.2245L9.84158 18.4635C9.73645 18.7495 9.52526 18.9752 9.24656 19.0992C8.96693 19.2236 8.65619 19.2286 8.3716 19.1134C7.82093 18.8905 7.54414 18.2388 7.75498 17.6595L9.91643 11.6658C10.497 10.0707 12.0275 8.99903 13.725 8.99903H18.275C19.9724 8.99903 21.503 10.0707 22.0832 11.6646L24.2454 17.6607C24.4558 18.2388 24.179 18.8905 23.6283 19.1134ZM16 7.64495C17.8779 7.64495 19.4057 6.11717 19.4057 4.23928C19.4057 2.36139 17.8779 0.833618 16 0.833618C14.1221 0.833618 12.5943 2.36139 12.5943 4.23928C12.5943 6.11717 14.1221 7.64495 16 7.64495ZM16 1.68045C17.411 1.68045 18.5588 2.82832 18.5588 4.23927C18.5588 5.65021 17.411 6.7981 16 6.7981C14.589 6.7981 13.4412 5.65023 13.4412 4.23928C13.4412 2.82834 14.589 1.68045 16 1.68045Z" fill="#D6AE29"/>
</svg>
