<svg width="32" height="32" viewBox="0 0 32 32" fill="none" xmlns="http://www.w3.org/2000/svg">
<path d="M3.3989 2C3.02846 2.00185 2.67372 2.14983 2.41178 2.41178C2.14983 2.67372 2.00185 3.02846 2 3.3989C2 3.52288 2.04925 3.64179 2.13692 3.72946C2.22459 3.81713 2.34349 3.86638 2.46748 3.86638C2.59146 3.86638 2.71036 3.81713 2.79803 3.72946C2.8857 3.64179 2.93495 3.52288 2.93495 3.3989C2.93495 3.13076 3.13253 2.92966 3.3989 2.92966H28.6074C28.872 2.92966 29.0713 3.13076 29.0713 3.3989V26.7322C29.0732 26.794 29.0625 26.8556 29.0399 26.9132C29.0172 26.9707 28.983 27.0231 28.9394 27.067C28.8958 27.1109 28.8438 27.1455 28.7864 27.1686C28.729 27.1917 28.6675 27.2029 28.6056 27.2014H3.3989C3.33719 27.2026 3.27587 27.1913 3.21868 27.1681C3.16149 27.1449 3.10961 27.1103 3.06622 27.0664C3.02282 27.0225 2.9888 26.9702 2.96624 26.9128C2.94367 26.8553 2.93303 26.7939 2.93495 26.7322V5.26528C2.93495 5.1413 2.8857 5.02239 2.79803 4.93472C2.71036 4.84706 2.59146 4.7978 2.46748 4.7978C2.34349 4.7978 2.22459 4.84706 2.13692 4.93472C2.04925 5.02239 2 5.1413 2 5.26528V26.7339C2 27.5013 2.63153 28.1364 3.3989 28.1364H3.86814V29.5353C3.86791 29.5966 3.87977 29.6575 3.90305 29.7143C3.92633 29.7711 3.96057 29.8228 4.00381 29.8663C4.04706 29.9099 4.09846 29.9445 4.15509 29.9682C4.21172 29.9919 4.27246 30.0043 4.33385 30.0045H8.06838C8.19205 30.0036 8.31032 29.9537 8.39728 29.8657C8.48423 29.7778 8.53279 29.6589 8.53232 29.5353V28.1364H23.4704V29.5353C23.4702 29.5969 23.4822 29.6581 23.5056 29.7151C23.5292 29.7721 23.5637 29.824 23.6073 29.8676C23.6509 29.9112 23.7028 29.9458 23.7598 29.9693C23.8168 29.9928 23.878 30.0047 23.9396 30.0045H27.6742C27.7356 30.0043 27.7963 29.9919 27.8529 29.9682C27.9096 29.9445 27.961 29.9099 28.0042 29.8663C28.0475 29.8228 28.0817 29.7711 28.105 29.7143C28.1283 29.6575 28.1401 29.5966 28.1399 29.5353V28.1364H28.6074C29.3765 28.1364 30.0063 27.5013 30.0063 26.7339V3.3989C30.0049 3.02832 29.857 2.67331 29.595 2.41127C29.3329 2.14923 28.9779 2.00139 28.6074 2H3.3989ZM4.33385 3.86285C4.27246 3.86308 4.21172 3.8754 4.15509 3.89911C4.09846 3.92282 4.04706 3.95744 4.00381 4.00102C3.96057 4.04459 3.92633 4.09626 3.90305 4.15306C3.87977 4.20987 3.86791 4.2707 3.86814 4.33209V25.8007C3.86814 26.0583 4.07454 26.2682 4.33385 26.27H26.7375C26.9968 26.27 27.2049 26.0583 27.2032 25.8007V24.8658C27.2032 24.2431 26.27 24.2431 26.27 24.8658V25.335H4.80133V4.7978H26.27V6.66418H24.8711C24.8095 6.66418 24.7486 6.67633 24.6918 6.69993C24.6349 6.72354 24.5833 6.75813 24.5399 6.80173C24.4965 6.84532 24.4621 6.89707 24.4387 6.95399C24.4153 7.01091 24.4034 7.07189 24.4036 7.13342V9.93123C24.4036 9.99262 24.4157 10.0534 24.4392 10.1101C24.4627 10.1668 24.4971 10.2184 24.5405 10.2618C24.5839 10.3052 24.6355 10.3396 24.6922 10.3631C24.7489 10.3866 24.8097 10.3987 24.8711 10.3987H27.6724C27.7961 10.3982 27.9145 10.3488 28.0018 10.2612C28.0891 10.1735 28.1381 10.0549 28.1381 9.93123V7.13342C28.1383 7.07203 28.1265 7.0112 28.1032 6.95439C28.0799 6.89759 28.0457 6.84592 28.0024 6.80235C27.9592 6.75878 27.9078 6.72415 27.8512 6.70044C27.7945 6.67673 27.7338 6.66441 27.6724 6.66418H27.2032V4.33209C27.2036 4.20841 27.1551 4.08959 27.0681 4.00164C26.9812 3.91369 26.8629 3.86378 26.7392 3.86285H4.33385ZM25.3368 7.59737H27.2032V9.46728H25.3368V7.59737ZM19.7376 10.3987C17.1656 10.3987 15.0699 12.4962 15.0699 15.0682C15.0699 17.6402 17.1656 19.7324 19.7376 19.7324C20.9744 19.731 22.1601 19.2392 23.0348 18.3648C23.9095 17.4905 24.4017 16.3049 24.4036 15.0682C24.4022 13.8308 23.9103 12.6444 23.0356 11.7692C22.161 10.8939 20.975 10.401 19.7376 10.3987ZM26.7322 11.3266C26.6708 11.3273 26.6101 11.3401 26.5537 11.3642C26.4972 11.3883 26.4461 11.4234 26.4031 11.4673C26.3602 11.5112 26.3264 11.5631 26.3035 11.6201C26.2807 11.6771 26.2693 11.738 26.27 11.7994V19.7324H24.8711C24.8095 19.7324 24.7486 19.7445 24.6918 19.7681C24.6349 19.7917 24.5833 19.8263 24.5399 19.8699C24.4965 19.9135 24.4621 19.9652 24.4387 20.0222C24.4153 20.0791 24.4034 20.1401 24.4036 20.2016V23.0029C24.4041 23.1266 24.4535 23.2451 24.5411 23.3323C24.6288 23.4196 24.7474 23.4686 24.8711 23.4686H27.6724C27.7958 23.4682 27.914 23.419 28.0012 23.3317C28.0884 23.2445 28.1377 23.1263 28.1381 23.0029V20.2016C28.1383 20.1402 28.1265 20.0794 28.1032 20.0226C28.0799 19.9658 28.0457 19.9141 28.0024 19.8705C27.9592 19.827 27.9078 19.7923 27.8512 19.7686C27.7945 19.7449 27.7338 19.7326 27.6724 19.7324H27.2032V11.7994C27.2041 11.7372 27.1926 11.6754 27.1693 11.6177C27.146 11.5601 27.1113 11.5077 27.0674 11.4636C27.0235 11.4195 26.9712 11.3847 26.9137 11.3612C26.8561 11.3376 26.7944 11.3259 26.7322 11.3266ZM19.2702 11.3654V12.2668C19.2645 12.3314 19.2724 12.3964 19.2933 12.4578C19.3141 12.5192 19.3475 12.5755 19.3913 12.6233C19.4351 12.6711 19.4883 12.7092 19.5477 12.7353C19.607 12.7614 19.6711 12.7749 19.7359 12.7749C19.8007 12.7749 19.8648 12.7614 19.9241 12.7353C19.9834 12.7092 20.0367 12.6711 20.0805 12.6233C20.1243 12.5755 20.1577 12.5192 20.1785 12.4578C20.1994 12.3964 20.2072 12.3314 20.2016 12.2668V11.3672C20.8861 11.4501 21.5088 11.7165 22.0256 12.1187L21.3888 12.7555C21.3407 12.7976 21.3018 12.8491 21.2744 12.9068C21.2469 12.9645 21.2317 13.0273 21.2294 13.0911C21.2272 13.155 21.2381 13.2186 21.2615 13.2781C21.2848 13.3376 21.3201 13.3917 21.3652 13.437C21.4103 13.4823 21.4641 13.5179 21.5235 13.5415C21.5829 13.5652 21.6465 13.5765 21.7103 13.5746C21.7742 13.5727 21.837 13.5578 21.8949 13.5307C21.9528 13.5036 22.0045 13.4649 22.0468 13.417L22.6854 12.7784C23.0858 13.2935 23.3522 13.918 23.4369 14.5989H22.5355C22.4115 14.5989 22.2926 14.6482 22.2049 14.7359C22.1172 14.8235 22.068 14.9424 22.068 15.0664C22.068 15.1904 22.1172 15.3093 22.2049 15.397C22.2926 15.4846 22.4115 15.5339 22.5355 15.5339H23.4351C23.3522 16.2166 23.0858 16.8393 22.6854 17.3562L22.0468 16.7176C22.0034 16.6725 21.9513 16.6367 21.8937 16.6121C21.8361 16.5876 21.7742 16.5749 21.7116 16.5747C21.6957 16.5751 21.6798 16.5762 21.664 16.5782C21.576 16.588 21.4926 16.6225 21.4234 16.6778C21.3543 16.7331 21.3022 16.8069 21.2734 16.8906C21.2446 16.9744 21.2401 17.0646 21.2605 17.1507C21.281 17.2369 21.3255 17.3155 21.3888 17.3773L22.0256 18.0159C21.4968 18.4272 20.8665 18.6875 20.2016 18.7692V17.866C20.2021 17.804 20.1902 17.7425 20.1667 17.6852C20.1432 17.6278 20.1085 17.5757 20.0647 17.5319C20.0209 17.4881 19.9688 17.4534 19.9114 17.4299C19.854 17.4064 19.7926 17.3945 19.7306 17.395C19.6069 17.3964 19.4888 17.4467 19.4022 17.535C19.3156 17.6233 19.2675 17.7423 19.2684 17.866V18.7692C18.5857 18.6827 17.963 18.4164 17.4479 18.0159L18.0883 17.3773C18.1548 17.3113 18.1999 17.2268 18.2178 17.1349C18.2357 17.0429 18.2256 16.9476 18.1887 16.8615C18.1518 16.7753 18.0899 16.7023 18.0109 16.6518C17.932 16.6012 17.8397 16.5756 17.746 16.5782C17.6247 16.5818 17.5096 16.6324 17.425 16.7193L16.7899 17.3544C16.3785 16.8269 16.1176 16.1978 16.0349 15.5339H16.9363C17.0603 15.5339 17.1792 15.4846 17.2669 15.397C17.3545 15.3093 17.4038 15.1904 17.4038 15.0664C17.4038 14.9424 17.3545 14.8235 17.2669 14.7359C17.1792 14.6482 17.0603 14.5989 16.9363 14.5989H16.0349C16.1196 13.9162 16.3877 13.2935 16.7881 12.7784L17.425 13.417C17.4684 13.4606 17.52 13.4951 17.5768 13.5188C17.6336 13.5424 17.6945 13.5546 17.756 13.5546C17.8175 13.5547 17.8784 13.5427 17.9353 13.5192C17.9921 13.4958 18.0438 13.4613 18.0874 13.4179C18.1309 13.3745 18.1655 13.3229 18.1891 13.2661C18.2127 13.2093 18.2249 13.1484 18.225 13.0869C18.2251 13.0254 18.213 12.9644 18.1896 12.9076C18.1661 12.8507 18.1317 12.799 18.0883 12.7555L17.4479 12.1187C17.9758 11.7081 18.6048 11.4478 19.2684 11.3654H19.2702ZM9.93475 11.7994C8.13541 11.7994 6.66771 13.2671 6.66771 15.0664C6.66771 16.333 7.40685 17.4708 8.53232 18.0089V20.2016C8.53232 20.969 9.16739 21.6005 9.93652 21.6005C10.7056 21.6005 11.3337 20.969 11.3337 20.2016V18.0089C11.8916 17.7454 12.3635 17.3291 12.6944 16.8083C13.0254 16.2875 13.2019 15.6835 13.2036 15.0664C13.2036 13.2671 11.7341 11.7994 9.93475 11.7994ZM9.93475 12.7343C11.2296 12.7343 12.2686 13.7716 12.2686 15.0664C12.2686 15.8161 11.9123 16.5006 11.3337 16.9328V15.0682C11.3337 14.3008 10.7039 13.6657 9.93652 13.6657C9.16915 13.6657 8.53232 14.3008 8.53232 15.0682V16.931C8.24289 16.714 8.00801 16.4324 7.84634 16.1088C7.68466 15.7851 7.60063 15.4282 7.6009 15.0664C7.6009 13.7716 8.6417 12.7326 9.93475 12.7326V12.7343ZM19.7376 13.6657C19.3664 13.6681 19.011 13.8166 18.7485 14.0791C18.486 14.3416 18.3375 14.6969 18.3352 15.0682C18.3352 15.8355 18.9703 16.4671 19.7376 16.4671C20.1082 16.4657 20.4632 16.3179 20.7253 16.0558C20.9873 15.7938 21.1352 15.4388 21.1366 15.0682C21.1347 14.6974 20.9868 14.3423 20.725 14.0798C20.4632 13.8173 20.1084 13.6685 19.7376 13.6657ZM9.93652 14.5989C10.2011 14.5989 10.4005 14.8018 10.4005 15.0682V20.2016C10.4022 20.2631 10.3913 20.3242 10.3686 20.3814C10.3459 20.4385 10.3119 20.4905 10.2685 20.534C10.2251 20.5776 10.1733 20.6119 10.1162 20.6348C10.0591 20.6577 9.99799 20.6688 9.93652 20.6673C9.87459 20.6692 9.81292 20.6586 9.75525 20.6359C9.69759 20.6132 9.64513 20.5791 9.60108 20.5355C9.55702 20.492 9.52228 20.4399 9.49898 20.3825C9.47567 20.3251 9.46429 20.2635 9.46551 20.2016V15.0682C9.46551 14.8018 9.66838 14.5989 9.93652 14.5989ZM19.7376 14.5989C20.0023 14.5989 20.2016 14.8053 20.2016 15.0682C20.2016 15.331 20.0005 15.5339 19.7376 15.5339C19.473 15.5339 19.2684 15.331 19.2684 15.0682C19.2684 14.8053 19.4748 14.5989 19.7376 14.5989ZM25.3368 20.6673H27.2032V22.5337H25.3368V20.6673ZM4.8031 28.1364H7.60266V29.0713H4.80133L4.8031 28.1364ZM24.4018 28.1364H27.2032V29.0713H24.4054L24.4018 28.1364Z" fill="#D6AE29"/>
</svg>
