<svg width="20" height="20" viewBox="0 0 20 20" fill="none" xmlns="http://www.w3.org/2000/svg">
<path d="M8.61295 8.64844C7.71298 8.64844 7.26298 9.29844 7.16298 9.69844C7.06298 10.0984 7.06298 11.5484 7.12298 12.1484C7.32298 12.8984 7.82298 13.2084 8.31298 13.3084C8.76295 13.3484 10.6629 13.3334 11.2129 13.3334C12.0129 13.3484 12.6129 13.0484 12.8629 12.1484C12.9129 11.8484 12.9629 10.1984 12.8379 9.69844C12.5729 8.89844 11.9129 8.64844 11.4129 8.64844H8.61295Z" stroke="#4A4C56" stroke-linecap="round"/>
<path d="M8.54297 8.29748C8.54297 8.24748 8.5498 7.95963 8.55097 7.59748C8.55205 7.26657 8.52297 6.94748 8.68097 6.65548C9.27297 5.47748 10.973 5.59748 11.393 6.79748C11.4657 6.99505 11.4701 7.30825 11.468 7.59748C11.4652 7.96706 11.473 8.29748 11.473 8.29748" stroke="#4A4C56" stroke-linecap="round"/>
<path d="M17.5 9.32072V6.90154C17.5 5.53488 17.5 4.85154 17.1632 4.40571C16.8265 3.95988 16.0651 3.74344 14.5423 3.31055C13.5018 3.0148 12.5847 2.65849 11.8519 2.33321C10.8528 1.88972 10.3533 1.66797 10 1.66797C9.64667 1.66797 9.14717 1.88972 8.14809 2.33321C7.41532 2.65849 6.4982 3.01479 5.45778 3.31055C3.93494 3.74344 3.17352 3.95988 2.83676 4.40571C2.5 4.85154 2.5 5.53488 2.5 6.90154V9.32072C2.5 14.0084 6.71897 16.8209 8.82833 17.9341C9.33425 18.2011 9.58717 18.3346 10 18.3346C10.4128 18.3346 10.6657 18.2011 11.1717 17.9341C13.281 16.8209 17.5 14.0084 17.5 9.32072Z" stroke="#4A4C56" stroke-linecap="round"/>
</svg>
