<svg width="33" height="33" viewBox="0 0 33 33" fill="none" xmlns="http://www.w3.org/2000/svg">
<path d="M30.0671 19.4949V11.811C30.0667 11.4046 29.9055 11.015 29.6188 10.7277C29.3321 10.4403 28.9434 10.2787 28.5379 10.2783H21.7795L21.9231 9.07079L21.9236 9.0703L22.1556 7.11945C22.1889 6.83309 22.1289 6.54363 21.9846 6.29425C21.8403 6.04487 21.6194 5.84892 21.3549 5.73564L20.7428 5.47563L22.1498 2.14636C22.3077 1.77158 22.3109 1.34929 22.1586 0.97217C22.0063 0.595047 21.7109 0.293893 21.3373 0.134795C20.9607 -0.025327 20.5444 -0.028265 20.1658 0.125002C19.7872 0.278269 19.4901 0.571581 19.3309 0.949117L17.9239 4.27789L17.3117 4.01788C17.0465 3.90637 16.7524 3.88369 16.4733 3.95322C16.1942 4.02274 15.9449 4.18076 15.7626 4.40374L11.0042 10.2685C11.0017 10.2715 11.0003 10.2754 10.9978 10.2788H4.37954C3.9741 10.2792 3.58539 10.4408 3.2987 10.7281C3.01202 11.0155 2.85079 11.4051 2.8504 11.8115V19.4944C1.48248 19.8024 0.457031 21.0276 0.457031 22.4902V27.4349C0.457548 27.8541 0.623915 28.2559 0.919642 28.5524C1.21537 28.8488 1.61631 29.0155 2.03453 29.016H4.05954V31.2778H1.57091C1.47373 31.2778 1.38053 31.3165 1.31182 31.3854C1.2431 31.4543 1.2045 31.5477 1.2045 31.6451C1.2045 31.7425 1.2431 31.8359 1.31182 31.9048C1.38053 31.9736 1.47373 32.0123 1.57091 32.0123H31.3427C31.4398 32.0123 31.533 31.9736 31.6018 31.9048C31.6705 31.8359 31.7091 31.7425 31.7091 31.6451C31.7091 31.5477 31.6705 31.4543 31.6018 31.3854C31.533 31.3165 31.4398 31.2778 31.3427 31.2778H28.8545V29.016H30.8795C31.2978 29.0155 31.6987 28.8488 31.9944 28.5524C32.2901 28.2559 32.4565 27.8541 32.457 27.4349V22.4902C32.4565 21.0285 31.433 19.8048 30.0671 19.4949ZM20.0051 1.23508C20.0881 1.03824 20.243 0.885949 20.4408 0.805643C20.6387 0.725338 20.8551 0.727296 21.0515 0.81054C21.2462 0.893643 21.4001 1.05069 21.4795 1.24728C21.5589 1.44387 21.5573 1.66398 21.4751 1.85941L20.0676 5.18819L18.5981 4.56386L20.0051 1.23508ZM16.3303 4.86697C16.377 4.81164 16.4332 4.7652 16.4964 4.72986C16.5403 4.70489 16.5867 4.68432 16.6351 4.6711C16.6415 4.66914 16.6473 4.6662 16.6537 4.66473C16.7055 4.65249 16.7592 4.64955 16.8129 4.65102C16.8843 4.65347 16.9566 4.66522 17.0245 4.69411L17.9214 5.07508C17.938 5.08536 17.9507 5.10005 17.9693 5.10789L20.114 6.01867C20.1321 6.02651 20.1521 6.02553 20.1712 6.03042L21.0681 6.41139C21.3109 6.51422 21.4585 6.76934 21.4272 7.03229L21.2528 8.49787L15.4006 6.0128L16.3303 4.86697ZM11.5719 10.7317L14.9193 6.60579L21.1624 9.25686L20.5337 14.5375C20.5303 14.5687 20.5195 14.5987 20.5023 14.6249C20.485 14.6511 20.4618 14.6728 20.4345 14.6883C20.4076 14.7041 20.3773 14.7134 20.3462 14.7153C20.315 14.7173 20.2839 14.7119 20.2552 14.6995L18.367 13.8975L19.0104 12.3761C19.0464 12.2867 19.046 12.1868 19.0092 12.0978C18.9724 12.0088 18.9021 11.9378 18.8136 11.9003C18.7251 11.8627 18.6254 11.8615 18.536 11.8969C18.4466 11.9323 18.3747 12.0015 18.3357 12.0896L17.6923 13.611L16.2892 13.0151L17.302 10.6201C17.338 10.5308 17.3376 10.4308 17.3007 10.3418C17.2639 10.2528 17.1937 10.1819 17.1052 10.1443C17.0167 10.1067 16.917 10.1055 16.8276 10.1409C16.7382 10.1763 16.6662 10.2456 16.6273 10.3336L15.6145 12.7286L14.2114 12.1327L14.8549 10.6113C14.8909 10.522 14.8904 10.422 14.8536 10.333C14.8168 10.244 14.7466 10.1731 14.6581 10.1355C14.5696 10.0979 14.4699 10.0967 14.3805 10.1321C14.2911 10.1675 14.2191 10.2367 14.1802 10.3248L13.5368 11.8462L11.6486 11.0442C11.6197 11.0322 11.594 11.0135 11.5737 10.9897C11.5534 10.9658 11.5391 10.9375 11.5318 10.9071C11.5246 10.8767 11.5245 10.8451 11.5315 10.8147C11.5384 10.7843 11.5522 10.7559 11.5719 10.7317ZM3.58321 11.811C3.58321 11.3708 3.94034 11.0128 4.37954 11.0128H10.8122C10.8161 11.0368 10.8156 11.0608 10.8215 11.0848C10.8559 11.2258 10.9228 11.3568 11.0169 11.4672C11.111 11.5776 11.2296 11.6643 11.3632 11.7204L13.5886 12.6655L17.7436 14.4302L19.9689 15.3753C20.1022 15.4322 20.247 15.4571 20.3916 15.448C20.5362 15.4389 20.6767 15.3961 20.8019 15.3229C21.0584 15.174 21.2254 14.9189 21.2606 14.6241L21.6905 11.0123H28.537C28.9762 11.0123 29.3333 11.3703 29.3333 11.8105V19.3906H27.0127V17.5264C27.0125 17.2555 26.905 16.9958 26.714 16.8042C26.5229 16.6127 26.2639 16.5049 25.9936 16.5045H19.9147C19.3529 16.5045 18.8956 16.9628 18.8956 17.5264V19.3906H14.0185V17.5264C14.0182 17.2555 13.9108 16.9958 13.7197 16.8042C13.5287 16.6127 13.2696 16.5049 12.9994 16.5045H6.91898C6.35716 16.5045 5.89988 16.9628 5.89988 17.5264V19.3906H3.58321V11.811ZM26.2809 17.5269V19.3911H19.6284V17.5269C19.6284 17.3682 19.7569 17.2395 19.9147 17.2395H25.9946C26.1524 17.2395 26.2809 17.3682 26.2809 17.5269ZM13.2852 17.5269V19.3911H6.63269V17.5269C6.63269 17.3682 6.76118 17.2395 6.91898 17.2395H12.9989C13.1567 17.2395 13.2852 17.3682 13.2852 17.5269ZM6.21401 31.2773H4.79187V29.0155H7.37283L6.21401 31.2773ZM7.03818 31.2773L8.19749 29.0155H24.7166L25.8759 31.2773H7.03818ZM28.1212 31.2773H26.6991L25.5398 29.0155H28.1207L28.1212 31.2773ZM31.7237 27.4344C31.7236 27.6589 31.6346 27.8742 31.4762 28.0329C31.3178 28.1917 31.103 28.2809 30.879 28.281H28.4959C28.493 28.281 28.4906 28.2796 28.4876 28.2796H24.9389C24.9364 28.2796 24.9349 28.281 24.9325 28.281H7.98058C7.97814 28.281 7.97667 28.2796 7.97423 28.2796H4.42546C4.42253 28.2796 4.42009 28.281 4.41715 28.281H2.03453C1.81055 28.2809 1.59577 28.1917 1.43739 28.0329C1.27901 27.8742 1.18997 27.6589 1.18984 27.4344V26.5192H31.7237V27.4344ZM31.7237 25.7852H1.18984V22.4902C1.19049 21.8703 1.43647 21.2759 1.87382 20.8376C2.31116 20.3992 2.90414 20.1527 3.52263 20.152H29.3914C30.0098 20.1528 30.6027 20.3994 31.0399 20.8377C31.4772 21.2761 31.7231 21.8704 31.7237 22.4902V25.7852Z" fill="#D6AE29"/>
<path d="M7.9668 6.44561C7.96693 6.97523 8.17665 7.48317 8.54997 7.85799C8.92328 8.23281 9.42969 8.4439 9.95809 8.44494C11.0578 8.44494 11.9528 7.54786 11.9528 6.44561C11.9528 5.34337 11.0578 4.44629 9.95809 4.44629C9.42969 4.44733 8.92328 4.65841 8.54997 5.03323C8.17665 5.40805 7.96693 5.91599 7.9668 6.44561ZM11.22 6.44561C11.2196 6.78094 11.0865 7.10243 10.85 7.33954C10.6134 7.57666 10.2927 7.71004 9.95809 7.71043C9.62342 7.71043 9.30245 7.57717 9.06579 7.33997C8.82914 7.10277 8.69619 6.78106 8.69619 6.44561C8.69619 6.11016 8.82914 5.78845 9.06579 5.55125C9.30245 5.31405 9.62342 5.18079 9.95809 5.18079C10.2927 5.18118 10.6134 5.31457 10.85 5.55168C11.0865 5.7888 11.2196 6.11028 11.22 6.44561ZM23.0286 7.7829C23.0287 8.23447 23.2075 8.66756 23.5257 8.98719C23.844 9.30682 24.2757 9.4869 24.7262 9.48793C25.6642 9.48793 26.4273 8.72307 26.4273 7.7829C26.4273 6.84274 25.6642 6.07836 24.7262 6.07836C24.2758 6.07927 23.844 6.25924 23.5258 6.57879C23.2075 6.89834 23.0287 7.33138 23.0286 7.7829ZM25.6945 7.7829C25.6943 8.04022 25.5922 8.28693 25.4106 8.46888C25.2291 8.65083 24.983 8.75317 24.7262 8.75343C24.1942 8.75343 23.7614 8.31811 23.7614 7.7829C23.7614 7.24769 24.1942 6.81287 24.7262 6.81287C25.2602 6.81287 25.6945 7.24818 25.6945 7.7829ZM9.75144 14.8175C10.5033 14.8175 11.115 14.2044 11.115 13.4508C11.115 12.6972 10.5033 12.0842 9.75144 12.0842C9.39613 12.0937 9.05857 12.2419 8.81062 12.4971C8.56268 12.7524 8.42393 13.0946 8.42393 13.4508C8.42393 13.8071 8.56268 14.1493 8.81062 14.4045C9.05857 14.6598 9.39613 14.808 9.75144 14.8175ZM9.75144 12.8187C10.0993 12.8187 10.3821 13.1022 10.3821 13.4508C10.3821 13.7995 10.0993 14.083 9.75144 14.083C9.40506 14.083 9.12318 13.7995 9.12318 13.4508C9.12318 13.1022 9.40506 12.8187 9.75144 12.8187ZM23.8063 14.8175C24.5582 14.8175 25.1698 14.2044 25.1698 13.4508C25.1698 12.6972 24.5582 12.0842 23.8063 12.0842C23.451 12.0937 23.1134 12.2419 22.8655 12.4971C22.6175 12.7524 22.4788 13.0946 22.4788 13.4508C22.4788 13.8071 22.6175 14.1493 22.8655 14.4045C23.1134 14.6598 23.451 14.808 23.8063 14.8175ZM23.8063 12.8187C24.1537 12.8187 24.437 13.1022 24.437 13.4508C24.437 13.7995 24.1542 14.083 23.8063 14.083C23.4599 14.083 23.178 13.7995 23.178 13.4508C23.178 13.1022 23.4599 12.8187 23.8063 12.8187Z" fill="#D6AE29"/>
</svg>
