<svg width="18" height="16" viewBox="0 0 18 16" fill="none" xmlns="http://www.w3.org/2000/svg">
<path d="M16.4999 2.75003H12.75V2.00001C12.75 1.17275 12.0772 0.5 11.25 0.5H6.74997C5.92271 0.5 5.24997 1.17271 5.24997 2.00001V2.74999H1.50001C0.672712 2.75003 0 3.42274 0 4.25V13.9999C0 14.8272 0.672712 15.5 1.50001 15.5H16.5C17.3272 15.5 18 14.8272 18 13.9999V4.25C17.9999 3.42274 17.3272 2.75003 16.4999 2.75003ZM5.99999 2.00001C5.99999 1.58657 6.33654 1.25002 6.74997 1.25002H11.25C11.6634 1.25002 11.9999 1.58657 11.9999 2.00001V2.74999H5.99999V2.00001ZM17.2499 14C17.2499 14.4134 16.9134 14.75 16.5 14.75H1.50001C1.08657 14.75 0.75002 14.4134 0.75002 14V8.5414C0.971539 8.67056 1.22558 8.75001 1.50001 8.75001H7.49999V9.87501C7.49996 9.92427 7.50964 9.97304 7.52847 10.0186C7.54731 10.0641 7.57493 10.1054 7.60976 10.1403C7.64459 10.1751 7.68594 10.2027 7.73146 10.2215C7.77697 10.2404 7.82575 10.2501 7.875 10.25H10.125C10.1743 10.2501 10.223 10.2404 10.2685 10.2215C10.3141 10.2027 10.3554 10.1751 10.3902 10.1403C10.4251 10.1054 10.4527 10.0641 10.4715 10.0186C10.4904 9.97304 10.5 9.92427 10.5 9.87501V8.75001H16.5C16.7744 8.75001 17.0285 8.6706 17.25 8.5414V14H17.2499ZM8.24998 9.5V7.99999H9.74998V9.5H8.24998ZM17.2499 7.25001C17.2499 7.66344 16.9134 7.99999 16.5 7.99999H10.5V7.62498C10.5 7.57573 10.4903 7.52695 10.4715 7.48143C10.4527 7.43592 10.425 7.39457 10.3902 7.35974C10.3554 7.32491 10.314 7.29729 10.2685 7.27845C10.223 7.25962 10.1742 7.24994 10.125 7.24997H7.87497C7.82571 7.24994 7.77693 7.25962 7.73142 7.27845C7.68591 7.29729 7.64455 7.32491 7.60972 7.35974C7.57489 7.39457 7.54727 7.43592 7.52844 7.48143C7.5096 7.52695 7.49993 7.57573 7.49996 7.62498V7.99999H1.50001C1.08657 7.99999 0.75002 7.66344 0.75002 7.25001V4.25003C0.75002 3.8366 1.08657 3.50005 1.50001 3.50005H16.5C16.9134 3.50005 17.2499 3.8366 17.2499 4.25003V7.25001Z" fill="#4A4C56"/>
</svg>
