<svg width="23" height="23" viewBox="0 0 23 23" fill="none" xmlns="http://www.w3.org/2000/svg">
<path d="M1.5 21.4684C2.44975 21.4684 3.38858 21.5553 4.17843 20.9396C4.95232 20.3365 6.18304 20.3564 6.92654 20.9842C7.7373 21.6688 9.26776 21.6494 10.0969 21.0032C10.9013 20.3763 12.1209 20.304 12.9265 20.9842C13.8106 21.7306 15.3003 21.6241 16.1784 20.9396C16.9523 20.3365 18.183 20.3564 18.9265 20.9842C19.6427 21.5889 20.6197 21.4684 21.5 21.4684" stroke="#D6AE29" stroke-width="1.5" stroke-linecap="round" stroke-linejoin="round"/>
<path d="M7.5 18.5C8.69765 16.1088 10.9362 14.5 13.5 14.5C16.0638 14.5 18.3023 16.1088 19.5 18.5" stroke="#D6AE29" stroke-width="1.5" stroke-linecap="round" stroke-linejoin="round"/>
<path d="M10.5 14.6016C7.5 14.0448 4.89726 15.8366 3.5 18.5" stroke="#D6AE29" stroke-width="1.5" stroke-linecap="round" stroke-linejoin="round"/>
<path d="M11.5 14.5C11.5 11.5 12.3 6.66 15.5 4.5" stroke="#D6AE29" stroke-width="1.5" stroke-linecap="round" stroke-linejoin="round"/>
<path d="M15.0004 1.5C15.8755 1.5 16.8024 2.5972 15.5 4.5M15.5 4.5C16.2861 4.73357 18.708 5.81952 18.4828 8.5M15.5 4.5C14.9148 3.79569 12.8126 2.90012 11.5 4.30011M15.5 4.5C16.08 5.20922 16.5 7.5 15.5 8.5" stroke="#D6AE29" stroke-width="1.5" stroke-linecap="round" stroke-linejoin="round"/>
</svg>
