<svg width="32" height="32" viewBox="0 0 32 32" fill="none" xmlns="http://www.w3.org/2000/svg">
<g clip-path="url(#clip0_5471_9556)">
<path d="M4.063 26.5715H16.139C16.1475 26.5965 16.152 26.622 16.163 26.646C16.259 26.858 16.448 27.0135 16.675 27.0665L18.951 27.5995C18.7925 28.401 18.9885 29.2665 19.753 29.7435C19.7945 29.7675 19.8355 29.79 19.877 29.811C20.1504 29.9848 20.4676 30.0769 20.7915 30.0765C21.3495 30.0765 21.8635 29.8045 22.2565 29.4385L23.91 31.0935C23.9911 31.175 24.0899 31.2367 24.1987 31.2739C24.3076 31.3111 24.4235 31.3227 24.5375 31.3079C24.6515 31.2931 24.7606 31.2523 24.8563 31.1886C24.9521 31.1249 25.0318 31.04 25.0895 30.9405L26.075 29.246C26.144 29.1273 26.1791 28.992 26.1764 28.8547C26.1738 28.7174 26.1335 28.5835 26.06 28.4675L24.5625 26.104L25.68 24.443L29.2465 27.9085C29.3286 27.9882 29.4278 28.0481 29.5366 28.0836C29.6453 28.119 29.7607 28.1292 29.874 28.1132C29.9873 28.0972 30.0954 28.0556 30.1901 27.9914C30.2848 27.9273 30.3636 27.8423 30.4205 27.743L31.6525 25.587C31.721 25.467 31.755 25.3303 31.7508 25.1922C31.7465 25.054 31.7042 24.9197 31.6285 24.804L28.5235 20.0685L30.1385 17.129C31.1285 15.304 30.4465 13.665 29.2485 12.982C28.99 12.8433 28.7101 12.7485 28.4205 12.7015V10.243C28.4205 8.13955 26.709 6.42805 24.6055 6.42805H22.744L22.739 4.22205V4.22105C22.735 2.27155 21.148 0.685547 19.2 0.685547H8.852C7.9085 0.685547 7.0195 1.05555 6.349 1.72705C6.0198 2.05414 5.7588 2.44332 5.58113 2.87204C5.40347 3.30076 5.31267 3.76048 5.314 4.22455V4.22605L5.319 6.42855H4.063C1.9605 6.42855 0.25 8.14005 0.25 10.2435V22.757C0.25 24.86 1.9605 26.5715 4.063 26.5715ZM1.75 22.7565V20.816H16.474C16.506 20.829 21.397 22.059 21.397 22.059L20.574 23.883L17.7755 23.856C17.515 23.8605 17.2375 24.0065 17.106 24.2535L16.6705 25.0715H4.063C3.44949 25.0706 2.86141 24.8264 2.42778 24.3924C1.99415 23.9583 1.7504 23.3701 1.75 22.7565ZM28.8215 16.41L26.991 19.741C26.9254 19.8604 26.8935 19.9954 26.8988 20.1315C26.9041 20.2676 26.9463 20.3996 27.021 20.5135L30.121 25.242L29.597 26.1585L26.081 22.742C26.0024 22.6654 25.9078 22.6071 25.8041 22.571C25.7004 22.535 25.5901 22.5222 25.4809 22.5336C25.3717 22.5449 25.2663 22.5801 25.1723 22.6367C25.0782 22.6933 24.9977 22.7699 24.9365 22.861L23.044 25.673C22.9625 25.7939 22.918 25.9359 22.916 26.0817C22.9141 26.2274 22.9547 26.3706 23.033 26.4935L24.549 28.886L24.283 29.344L22.7245 27.784C22.6463 27.7057 22.5517 27.6457 22.4475 27.6082C22.3433 27.5708 22.2321 27.5568 22.1219 27.5674C22.0117 27.5779 21.9052 27.6127 21.8101 27.6693C21.7149 27.7259 21.6334 27.8028 21.5715 27.8945L21.5055 27.992C21.4949 28.0077 21.4849 28.0237 21.4755 28.04C21.3125 28.326 20.9925 28.577 20.7915 28.577C20.7524 28.5761 20.7142 28.5653 20.6805 28.5455C20.645 28.5206 20.6073 28.4989 20.568 28.4805L20.5255 28.4595C20.3285 28.3365 20.38 27.8475 20.5745 27.4845L20.624 27.378C20.6706 27.2769 20.6942 27.1667 20.693 27.0554C20.6917 26.9441 20.6658 26.8344 20.617 26.7343C20.5682 26.6343 20.4977 26.5463 20.4107 26.4768C20.3237 26.4073 20.2224 26.358 20.114 26.3325L17.966 25.8295L18.2155 25.361L21.0485 25.3885C21.3495 25.4045 21.617 25.218 21.7395 24.947L23.1335 21.8585C23.1786 21.7585 23.2013 21.6497 23.1998 21.54C23.1983 21.4302 23.1728 21.3221 23.1249 21.2233C23.0771 21.1245 23.0082 21.0374 22.923 20.9682C22.8378 20.8989 22.7385 20.8492 22.632 20.8225L17.8745 19.633L18.378 18.704L24.0295 18.8475C24.1653 18.8489 24.299 18.8143 24.4171 18.7473C24.5352 18.6803 24.6335 18.5833 24.702 18.466L26.5665 15.16C26.9355 14.515 27.437 14.16 27.979 14.16C28.172 14.16 28.3625 14.208 28.517 14.2925C29.07 14.607 29.3775 15.385 28.8215 16.41ZM6.8205 7.92805H10.1155V8.99755H6.8205V7.92805ZM9.5165 6.42805V4.97755C9.5165 4.85355 9.6215 4.74855 9.746 4.74855H18.319C18.443 4.74855 18.548 4.85355 18.548 4.97755V6.42805H17.1995H9.5165ZM17.9495 7.92805H21.245V8.99755H17.9495V7.92805ZM7.4105 2.78655C7.59904 2.59596 7.82355 2.44469 8.071 2.34153C8.31844 2.23836 8.58391 2.18534 8.852 2.18555H19.2C19.7404 2.18687 20.2582 2.40222 20.6402 2.78445C21.0221 3.16669 21.2371 3.68468 21.238 4.22505V4.22805L21.243 6.42805H20.048V4.97755C20.0475 4.51915 19.8651 4.07968 19.541 3.75554C19.2169 3.43141 18.7774 3.24908 18.319 3.24855H9.746C9.28752 3.24894 8.84792 3.43122 8.52367 3.75537C8.19943 4.07952 8.01703 4.51906 8.0165 4.97755V6.42805H6.8185L6.8135 4.22205C6.8135 3.68255 7.0255 3.17255 7.4105 2.78655ZM4.063 7.92805H5.3205V9.74755C5.3205 9.94646 5.39952 10.1372 5.54017 10.2779C5.68082 10.4185 5.87159 10.4975 6.0705 10.4975H10.8655C11.0644 10.4975 11.2552 10.4185 11.3958 10.2779C11.5365 10.1372 11.6155 9.94646 11.6155 9.74755V7.92805H16.45V9.74755C16.45 9.94646 16.529 10.1372 16.6697 10.2779C16.8103 10.4185 17.0011 10.4975 17.2 10.4975H21.9955C22.1944 10.4975 22.3852 10.4185 22.5258 10.2779C22.6665 10.1372 22.7455 9.94646 22.7455 9.74755V7.92805H24.605C25.2188 7.92871 25.8072 8.17282 26.2412 8.60683C26.6752 9.04083 26.9193 9.62927 26.92 10.243V12.8795C26.2635 13.154 25.686 13.679 25.263 14.419L23.618 17.336L17.958 17.192C17.8195 17.1873 17.6824 17.2216 17.5625 17.291C17.4425 17.3604 17.3445 17.4621 17.2795 17.5845L16.3415 19.3155H1.75V10.243C1.7504 9.62954 1.99415 9.04124 2.42778 8.60724C2.86141 8.17324 3.44949 7.92897 4.063 7.92805Z" fill="#070707"/>
</g>
<defs>
<clipPath id="clip0_5471_9556">
<rect width="32" height="32" fill="white"/>
</clipPath>
</defs>
</svg>
