<svg width="28" height="28" viewBox="0 0 28 28" fill="none" xmlns="http://www.w3.org/2000/svg">
<path d="M26.9061 5.08592H15.3203L19.4726 0.933567C19.6862 0.720013 19.6862 0.373733 19.4726 0.160124C19.259 -0.0533748 18.9128 -0.0533748 18.6992 0.160124L13.9999 4.85935L9.30078 0.160124C9.08717 -0.0533748 8.741 -0.0533748 8.52733 0.160124C8.31378 0.373678 8.31378 0.719958 8.52733 0.933567L12.6797 5.08592H1.09375C0.490654 5.08592 0 5.57657 0 6.17966V24.6333C0 25.2364 0.490654 25.7271 1.09375 25.7271H2.18027L3.20161 27.7041C3.24767 27.7933 3.31737 27.868 3.40307 27.9202C3.48877 27.9724 3.58717 28 3.68751 28H6.1813C6.38583 28 6.5733 27.8859 6.6672 27.7041L7.68854 25.7271H20.3115L21.3328 27.7041C21.3789 27.7933 21.4486 27.868 21.5343 27.9202C21.62 27.9724 21.7184 28 21.8187 28H24.3125C24.517 28 24.7045 27.8859 24.7984 27.7041L25.8197 25.7271H26.9063C27.5093 25.7271 28 25.2364 28 24.6333V6.17966C27.9999 5.57652 27.5093 5.08592 26.9061 5.08592ZM5.84826 26.9063H4.02055L3.41139 25.7271H6.45742L5.84826 26.9063ZM23.9794 26.9063H22.1517L21.5425 25.727H24.5886L23.9794 26.9063ZM26.9061 24.6333H1.09375V6.17966H26.9061L26.9069 24.6333L26.9061 24.6333Z" fill="#D6AE29"/>
<path d="M19.5436 7.37793H5.06853C3.49933 7.37793 2.22266 8.6546 2.22266 10.2238V20.3841C2.22266 21.9533 3.49933 23.23 5.06853 23.23H19.5436C21.1128 23.23 22.3895 21.9533 22.3895 20.3841V10.2238C22.3895 8.65455 21.1128 7.37793 19.5436 7.37793ZM21.2957 20.3841C21.2957 21.3503 20.5097 22.1363 19.5436 22.1363H5.06853C4.10242 22.1363 3.3164 21.3503 3.3164 20.3841V10.2238C3.3164 9.2577 4.10242 8.47168 5.06853 8.47168H13.8932L5.60364 16.7612C5.39009 16.9748 5.39009 17.3211 5.60364 17.5347C5.65437 17.5855 5.71465 17.6258 5.78101 17.6533C5.84737 17.6808 5.91851 17.6949 5.99034 17.6948C6.06216 17.6949 6.1333 17.6808 6.19966 17.6533C6.26602 17.6258 6.3263 17.5855 6.37703 17.5347L15.4401 8.47168H19.5436C20.5097 8.47168 21.2957 9.2577 21.2957 10.2238V20.3841ZM24.6862 15.0269C23.7816 15.0269 23.0456 15.7629 23.0456 16.6676C23.0456 17.5722 23.7816 18.3082 24.6862 18.3082C25.5909 18.3082 26.3268 17.5722 26.3268 16.6676C26.3268 15.7629 25.5909 15.0269 24.6862 15.0269ZM24.6862 17.2144C24.3847 17.2144 24.1394 16.9691 24.1394 16.6676C24.1394 16.366 24.3847 16.1207 24.6862 16.1207C24.9878 16.1207 25.2331 16.366 25.2331 16.6676C25.2331 16.9691 24.9878 17.2144 24.6862 17.2144ZM24.6862 19.9488C23.7816 19.9488 23.0456 20.6848 23.0456 21.5894C23.0456 22.494 23.7816 23.23 24.6862 23.23C25.5909 23.23 26.3268 22.494 26.3268 21.5894C26.3268 20.6848 25.5909 19.9488 24.6862 19.9488ZM24.6862 22.1363C24.3847 22.1363 24.1394 21.891 24.1394 21.5894C24.1394 21.2879 24.3847 21.0425 24.6862 21.0425C24.9878 21.0425 25.2331 21.2879 25.2331 21.5894C25.2331 21.891 24.9878 22.1363 24.6862 22.1363ZM25.647 10.2402H23.5925C23.2905 10.2402 23.0456 10.4851 23.0456 10.7871C23.0456 11.0891 23.2904 11.334 23.5925 11.334H25.647C25.949 11.334 26.1939 11.0891 26.1939 10.7871C26.1939 10.4851 25.949 10.2402 25.647 10.2402ZM25.647 8.01624H23.5925C23.2905 8.01624 23.0456 8.26113 23.0456 8.56311C23.0456 8.8651 23.2904 9.10999 23.5925 9.10999H25.647C25.949 9.10999 26.1939 8.8651 26.1939 8.56311C26.1939 8.26113 25.949 8.01624 25.647 8.01624ZM25.647 12.4642H23.5925C23.2905 12.4642 23.0456 12.7091 23.0456 13.011C23.0456 13.313 23.2904 13.5579 23.5925 13.5579H25.647C25.949 13.5579 26.1939 13.313 26.1939 13.011C26.1939 12.7091 25.949 12.4642 25.647 12.4642Z" fill="#D6AE29"/>
<path d="M15.2889 12.6836C15.0753 12.4701 14.7291 12.4701 14.5155 12.6836L9.51409 17.685C9.30054 17.8986 9.30054 18.2448 9.51409 18.4585C9.6209 18.5652 9.76084 18.6186 9.90079 18.6186C10.0407 18.6186 10.1807 18.5652 10.2875 18.4585L15.2889 13.457C15.5025 13.2435 15.5025 12.8972 15.2889 12.6836ZM8.3983 19.574C8.29556 19.4718 8.15665 19.4142 8.01172 19.4137C7.86789 19.4137 7.7268 19.4722 7.62508 19.574C7.52336 19.6757 7.46484 19.8168 7.46484 19.9606C7.46484 20.1044 7.5233 20.2455 7.62508 20.3472C7.7268 20.4489 7.86789 20.5075 8.01172 20.5075C8.15555 20.5075 8.29664 20.449 8.3983 20.3472C8.50002 20.2455 8.55859 20.1044 8.55859 19.9606C8.55859 19.8168 8.50008 19.6757 8.3983 19.574Z" fill="#D6AE29"/>
</svg>
