<svg width="37" height="25" viewBox="0 0 37 25" fill="none" xmlns="http://www.w3.org/2000/svg">
<g clip-path="url(#clip0_5471_7561)">
<path d="M7.53311 1.06323H16.5694C17.8304 1.06323 18.6184 2.10438 18.3228 3.37768L14.1132 21.6216C13.8178 22.8948 12.5502 23.936 11.2893 23.936H2.25305C0.992065 23.936 0.204062 22.8949 0.499603 21.6216L4.70907 3.37768C5.00461 2.09778 6.26553 1.06323 7.52644 1.06323H7.53311Z" fill="#D10429"/>
<path d="M15.7788 1.06323H26.175C27.4359 1.06323 26.8646 2.10438 26.5691 3.37768L22.3594 21.6216C22.0639 22.8948 22.1558 23.936 20.8949 23.936H10.4993C9.23183 23.936 8.4503 22.8949 8.75238 21.6216L12.962 3.37768C13.2575 2.09778 14.5184 1.06323 15.7859 1.06323H15.7793H15.7788Z" fill="#022E64"/>
<path d="M25.8102 1.06323H34.8471C36.1081 1.06323 36.8961 2.10438 36.6005 3.37768L32.391 21.6216C32.0954 22.8948 30.8279 23.936 29.567 23.936H20.5307C19.2632 23.936 18.4817 22.8949 18.7773 21.6216L22.9869 3.37768C23.2824 2.09778 24.5433 1.06323 25.8042 1.06323H25.8108H25.8102Z" fill="#076F74"/>
<path d="M24.2905 18.2636H25.1442L25.3872 17.4346H24.54L24.2905 18.2636ZM24.9735 15.9821L24.6779 16.9637C24.6779 16.9637 24.9997 16.7979 25.177 16.7448C25.3544 16.705 25.617 16.6718 25.617 16.6718L25.8206 15.9888H24.967L24.9735 15.9821ZM25.4003 14.5763L25.118 15.518C25.118 15.518 25.4332 15.372 25.6105 15.3257C25.7878 15.2793 26.0505 15.266 26.0505 15.266L26.254 14.5829H25.4069L25.4003 14.5763ZM27.2852 14.5763L26.1818 18.2568H26.4774L26.2475 19.0195H25.952L25.8798 19.2516H24.8289L24.9012 19.0195H22.7734L22.9836 18.3166H23.2003L24.3168 14.5763L24.5401 13.8203H25.6105L25.4989 14.1983C25.4989 14.1983 25.7812 13.9927 26.0571 13.9197C26.3264 13.8468 27.8763 13.8203 27.8763 13.8203L27.6464 14.5697H27.2786L27.2852 14.5763Z" fill="#FEFEFE"/>
<path d="M27.7265 13.8189H28.8692L28.8823 14.2499C28.8758 14.3229 28.9349 14.356 29.0728 14.356H29.3026L29.0925 15.0657H28.4751C27.9432 15.1055 27.7396 14.8735 27.7527 14.6148L27.733 13.8255L27.7265 13.8189ZM27.8671 17.1951H26.777L26.9608 16.5651H28.2086L28.3859 15.9881H27.1578L27.3679 15.2785H30.7829L30.5728 15.9881H29.4235L29.2462 16.5651H30.3954L30.2049 17.1951H28.9637L28.7405 17.4603H29.2462L29.3709 18.2561C29.3841 18.3357 29.3841 18.3888 29.4103 18.422C29.4366 18.4485 29.5876 18.4618 29.673 18.4618H29.824L29.5876 19.2377H29.2001C29.1411 19.2377 29.0491 19.2311 28.9243 19.2311C28.8061 19.2178 28.7274 19.1515 28.6485 19.1117C28.5763 19.0785 28.4712 18.9923 28.4449 18.8398L28.3267 18.044L27.762 18.8265C27.5846 19.0719 27.3417 19.2642 26.9279 19.2642H26.1398L26.35 18.5745H26.6521C26.7375 18.5745 26.8163 18.5414 26.8755 18.5081C26.9346 18.4816 26.987 18.4551 27.0396 18.369L27.8671 17.1951ZM15.9427 15.4689H18.8257L18.6155 16.1653H17.4663L17.289 16.7554H18.4711L18.2544 17.4717H17.0789L16.7899 18.4333C16.7571 18.5394 17.0723 18.5526 17.184 18.5526L17.775 18.4731L17.5385 19.2689H16.2119C16.1069 19.2689 16.0281 19.2556 15.9098 19.2291C15.7981 19.2025 15.7457 19.1495 15.6997 19.0766C15.6536 18.997 15.5748 18.9373 15.6274 18.7649L16.0083 17.4916H15.3516L15.5683 16.7621H16.225L16.4023 16.1719H15.7457L15.9558 15.4755L15.9427 15.4689ZM17.9346 14.2102H19.1167L18.9 14.933H17.2844L17.1071 15.0855C17.0283 15.1585 17.0086 15.132 16.9101 15.185C16.8182 15.2314 16.6277 15.3242 16.3781 15.3242H15.8593L16.0694 14.6279H16.2271C16.3584 14.6279 16.4505 14.6146 16.4963 14.5881C16.5489 14.555 16.608 14.482 16.6671 14.3626L16.9625 13.8188H18.1382L17.9346 14.2168V14.2102ZM20.1625 15.4039C20.1625 15.4039 20.4843 15.1055 21.036 15.0127C21.1608 14.9862 21.9488 14.9993 21.9488 14.9993L22.0671 14.6014H20.4055L20.1625 15.4105L20.1625 15.4039ZM21.7255 15.7089H20.0771L19.9786 16.0471H21.4103C21.581 16.0272 21.6139 16.0537 21.627 16.0405L21.732 15.7089H21.7255ZM19.5846 13.8255H20.5894L20.445 14.3362C20.445 14.3362 20.7602 14.0776 20.9835 13.9847C21.2068 13.9051 21.7058 13.8255 21.7058 13.8255L23.3345 13.8189L22.7763 15.6891C22.6844 16.0074 22.5727 16.213 22.507 16.3124C22.448 16.4053 22.3757 16.4915 22.2312 16.571C22.0933 16.644 21.9684 16.6904 21.8503 16.6971C21.7452 16.7037 21.5745 16.7103 21.3512 16.7103H19.7817L19.3416 18.1892C19.3023 18.3351 19.2826 18.4079 19.3088 18.4477C19.3285 18.4809 19.3876 18.5207 19.4599 18.5207L20.1494 18.4544L19.9129 19.2635H19.1381C18.8885 19.2635 18.7112 19.2569 18.5864 19.2501C18.4682 19.2369 18.3433 19.2501 18.258 19.1839C18.1858 19.1176 18.0742 19.0314 18.0807 18.9451C18.0873 18.8655 18.1201 18.7329 18.1727 18.5472L19.5846 13.8255Z" fill="#FEFEFE"/>
<path d="M22.5129 16.8021L22.421 17.253C22.3817 17.3922 22.3487 17.4984 22.2437 17.5912C22.132 17.6841 22.0073 17.7835 21.7052 17.7835L21.147 17.8101L21.1404 18.3141C21.1339 18.4532 21.1734 18.44 21.193 18.4665C21.2193 18.493 21.2389 18.4997 21.2652 18.513L21.4425 18.4996L21.9746 18.4732L21.7512 19.2159H21.1404C20.7136 19.2159 20.3918 19.2026 20.2932 19.1231C20.1882 19.0567 20.1751 18.9771 20.1751 18.8312L20.2144 16.855H21.193L21.1798 17.2595H21.4162C21.4951 17.2595 21.5543 17.2529 21.587 17.2329C21.6198 17.213 21.6396 17.1799 21.6527 17.1335L21.7512 16.8152H22.5196L22.5129 16.8021ZM8.59137 6.9021C8.55856 7.06126 7.92813 9.98582 7.92813 9.98582C7.79016 10.576 7.69167 11.0005 7.36332 11.2724C7.17287 11.4315 6.94955 11.5045 6.69349 11.5045C6.27972 11.5045 6.04332 11.2989 6.00391 10.9077L5.99731 10.775C5.99731 10.775 6.12208 9.98582 6.12208 9.97922C6.12208 9.97922 6.77884 7.31327 6.89707 6.96175C6.90361 6.94189 6.90361 6.92863 6.90361 6.92196C5.62295 6.93529 5.39316 6.92196 5.38002 6.9021C5.37342 6.92863 5.34061 7.09439 5.34061 7.09439L4.67071 10.0987L4.61157 10.3506L4.5 11.1863C4.5 11.4316 4.54595 11.6372 4.6445 11.803C4.95312 12.3468 5.8266 12.4264 6.31913 12.4264C6.95615 12.4264 7.55377 12.2871 7.95434 12.0417C8.65705 11.6239 8.8409 10.9674 8.99853 10.3905L9.07735 10.092C9.07735 10.092 9.75379 7.32659 9.87202 6.96848C9.87856 6.94855 9.87856 6.93529 9.88516 6.92869C8.95259 6.93529 8.68332 6.92869 8.59137 6.90876V6.9021ZM12.3375 12.3993C11.8843 12.3927 11.7201 12.3927 11.1882 12.4192L11.1685 12.3794C11.2144 12.1738 11.267 11.9749 11.3064 11.7693L11.3721 11.4907C11.4706 11.0597 11.5625 10.549 11.5756 10.3965C11.5888 10.3037 11.615 10.0716 11.3523 10.0716C11.2407 10.0716 11.1291 10.1246 11.0109 10.1777C10.9452 10.4098 10.8204 11.0597 10.7547 11.3515C10.6233 11.9749 10.6168 12.0478 10.5577 12.3529L10.5183 12.3927C10.0521 12.3861 9.88788 12.3861 9.34935 12.4126L9.32308 12.3661C9.41503 11.9948 9.50039 11.6234 9.58581 11.252C9.80906 10.2506 9.86821 9.86601 9.92723 9.35533L9.97324 9.32881C10.4986 9.25589 10.6234 9.23596 11.1947 9.12325L11.2407 9.17631L11.1553 9.49463C11.2538 9.43498 11.3458 9.37526 11.4443 9.32881C11.7135 9.19617 12.0091 9.15638 12.1733 9.15638C12.4228 9.15638 12.6987 9.22936 12.8103 9.52116C12.9154 9.77976 12.8496 10.0981 12.7052 10.7281L12.633 11.0465C12.4885 11.7494 12.4623 11.8754 12.3834 12.3529L12.3309 12.3927L12.3375 12.3993ZM14.1815 12.401C13.9057 12.401 13.7284 12.3944 13.5577 12.401C13.3869 12.401 13.2227 12.4144 12.9666 12.421L12.9535 12.401L12.9403 12.3745C13.0125 12.1092 13.0454 12.0164 13.0848 11.9236C13.1176 11.8307 13.1504 11.7379 13.2162 11.466C13.2949 11.1145 13.3475 10.8691 13.3803 10.6503C13.4197 10.4447 13.4394 10.2657 13.4657 10.0601L13.4854 10.0468L13.5051 10.0269C13.7809 9.98716 13.9517 9.96063 14.129 9.9341C14.3063 9.90757 14.4902 9.87445 14.7726 9.82139L14.7857 9.84792L14.7923 9.87445L14.6347 10.531C14.5822 10.7498 14.5297 10.9687 14.4837 11.1875C14.3851 11.6518 14.3392 11.8242 14.3195 11.9501C14.2933 12.0695 14.2866 12.1292 14.2472 12.368L14.2209 12.3878L14.1946 12.4078L14.1815 12.401ZM17.0971 10.7717C17.0774 10.891 16.9723 11.3354 16.8344 11.5211C16.7358 11.6603 16.6242 11.7466 16.4928 11.7466C16.4535 11.7466 16.2301 11.7466 16.2236 11.4083C16.2236 11.2426 16.2564 11.0701 16.2958 10.8844C16.4141 10.3472 16.5586 9.90294 16.9197 9.90294C17.2021 9.90294 17.2218 10.2345 17.0971 10.7717ZM18.2857 10.8247C18.4433 10.1218 18.3186 9.79017 18.1675 9.59122C17.9311 9.28616 17.5108 9.18671 17.0774 9.18671C16.8146 9.18671 16.1974 9.21324 15.7114 9.6642C15.3633 9.98912 15.1992 10.4335 15.1072 10.8579C15.0086 11.2889 14.897 12.0649 15.6063 12.3567C15.8229 12.4495 16.1382 12.476 16.3418 12.476C16.8607 12.476 17.3926 12.3302 17.7932 11.9057C18.1018 11.5609 18.2397 11.0436 18.2922 10.8247H18.2857ZM29.3553 12.4798C28.8036 12.4732 28.646 12.4732 28.1402 12.4997L28.1074 12.4599C28.2453 11.936 28.3832 11.4055 28.508 10.8749C28.6656 10.1852 28.705 9.89342 28.7576 9.48892L28.7969 9.45579C29.3421 9.37621 29.4931 9.35635 30.0645 9.25024L30.0776 9.29663C29.9725 9.73433 29.874 10.1654 29.7689 10.5964C29.5588 11.505 29.4865 11.9692 29.4078 12.4467L29.3553 12.4865V12.4798Z" fill="#FEFEFE"/>
<path d="M28.5582 10.8602C28.5319 10.9729 28.4268 11.4239 28.2889 11.6096C28.1969 11.7422 27.9737 11.8284 27.8489 11.8284C27.8095 11.8284 27.5928 11.8284 27.5796 11.4969C27.5796 11.331 27.6125 11.1586 27.6519 10.9729C27.7701 10.449 27.9147 10.0047 28.2758 10.0047C28.5582 10.0047 28.6829 10.3296 28.5582 10.8668V10.8602ZM29.6418 10.9133C29.7993 10.2103 29.1558 10.8536 29.0573 10.6215C28.8996 10.2567 28.9981 9.5272 28.3677 9.28185C28.1247 9.18235 27.5534 9.30838 27.0674 9.75934C26.7259 10.0777 26.5551 10.522 26.4632 10.9464C26.3646 11.3708 26.253 12.1534 26.9557 12.4253C27.1791 12.5247 27.3826 12.5513 27.5862 12.538C28.2956 12.4982 28.834 11.4172 29.2347 10.9928C29.5431 10.6546 29.5958 11.1188 29.6418 10.9133ZM21.3956 12.3991C20.9425 12.3924 20.7848 12.3924 20.2529 12.4189L20.2331 12.3792C20.2792 12.1735 20.3317 11.9747 20.3776 11.769L20.4367 11.4905C20.5353 11.0595 20.6337 10.5488 20.6402 10.3963C20.6534 10.3035 20.6797 10.0714 20.4235 10.0714C20.3119 10.0714 20.1938 10.1244 20.0821 10.1774C20.023 10.4096 19.8916 11.0595 19.8259 11.3513C19.7011 11.9747 19.688 12.0476 19.6289 12.3527L19.5895 12.3924C19.1233 12.3858 18.9591 12.3858 18.4206 12.4123L18.3943 12.3659C18.4862 11.9945 18.5716 11.6231 18.657 11.2518C18.8803 10.2503 18.9329 9.86576 18.9984 9.35509L19.0378 9.32856C19.5633 9.25564 19.6947 9.23572 20.2594 9.12301L20.3054 9.17606L20.2266 9.49439C20.3186 9.43473 20.4171 9.37502 20.509 9.32856C20.7783 9.19593 21.0738 9.15614 21.2379 9.15614C21.4875 9.15614 21.7568 9.22912 21.8749 9.52091C21.98 9.77952 21.9078 10.0978 21.7633 10.7279L21.691 11.0462C21.54 11.7492 21.5203 11.8751 21.4414 12.3526L21.389 12.3924L21.3956 12.3991ZM25.3302 6.90846L24.9494 6.91512C23.9642 6.92838 23.5702 6.92172 23.4126 6.90186C23.3995 6.97484 23.3732 7.10081 23.3732 7.10081C23.3732 7.10081 23.0186 8.74548 23.0186 8.75208C23.0186 8.75208 22.178 12.2536 22.1386 12.4194C22.9989 12.4061 23.3469 12.4061 23.498 12.4261C23.5309 12.2602 23.7278 11.2854 23.7344 11.2854C23.7344 11.2854 23.9052 10.5692 23.9118 10.5426C23.9118 10.5426 23.9642 10.4697 24.0168 10.4365H24.0956C24.8377 10.4365 25.6717 10.4365 26.3286 9.95245C26.7751 9.62087 27.0772 9.12345 27.2151 8.5266C27.2479 8.3807 27.2742 8.20827 27.2742 8.02925C27.2742 7.79711 27.2283 7.57169 27.0969 7.3926C26.7619 6.92172 26.0986 6.91512 25.3302 6.90846ZM25.8228 8.62611C25.744 8.99082 25.5076 9.30254 25.2055 9.44844C24.9559 9.57441 24.6538 9.58768 24.3386 9.58768H24.135L24.1481 9.50809C24.1481 9.50809 24.5225 7.86342 24.5225 7.87009L24.5356 7.78384L24.5422 7.71753L24.6932 7.73085C24.6932 7.73085 25.4681 7.79711 25.4813 7.79711C25.7833 7.91648 25.9147 8.22154 25.8228 8.62611ZM33.8957 9.17606L33.8498 9.12301C33.2916 9.23572 33.1865 9.25564 32.6742 9.32863L32.6349 9.36835C32.6349 9.37502 32.6283 9.38168 32.6283 9.39488V9.38828C32.2474 10.2835 32.2539 10.0912 31.9454 10.7942C31.9454 10.761 31.9454 10.7412 31.9387 10.708L31.8599 9.18266L31.814 9.12961C31.2229 9.24238 31.2098 9.26224 30.6712 9.33523L30.6318 9.37502C30.6252 9.39488 30.6252 9.41481 30.6252 9.43467L30.6318 9.44133C30.6975 9.79278 30.6844 9.7132 30.7501 10.2637C30.7829 10.5355 30.8223 10.8075 30.8551 11.0727C30.9076 11.5237 30.9405 11.7425 31.0062 12.4256C30.6383 13.0357 30.5529 13.2678 30.1984 13.8049L30.2181 13.8579C30.7501 13.8381 30.8683 13.8381 31.2623 13.8381L31.3477 13.7386C31.6432 13.0954 33.9024 9.18273 33.9024 9.18273L33.8957 9.17606ZM14.6846 9.61534C14.9867 9.40313 15.0261 9.11133 14.77 8.95884C14.5139 8.80627 14.0607 8.85273 13.7586 9.06494C13.4565 9.27056 13.4237 9.56229 13.6798 9.72145C13.9294 9.86741 14.3825 9.82756 14.6846 9.61534Z" fill="#FEFEFE"/>
<path d="M31.2631 13.8268L30.8229 14.5896C30.685 14.8482 30.4224 15.0472 30.0152 15.0472L29.3125 15.0339L29.5161 14.3442H29.654C29.7262 14.3442 29.7788 14.3376 29.8182 14.3177C29.8576 14.3044 29.8774 14.2779 29.9101 14.2381L30.1728 13.8203H31.2696L31.2631 13.8268Z" fill="#FEFEFE"/>
</g>
<defs>
<clipPath id="clip0_5471_7561">
<rect width="36.96" height="24" fill="white" transform="translate(0.0390625 0.5)"/>
</clipPath>
</defs>
</svg>
