<svg width="32" height="28" viewBox="0 0 32 28" fill="none" xmlns="http://www.w3.org/2000/svg">
<path d="M27.3125 14.7598H24.1801C23.7538 14.7598 23.3411 14.8181 22.9482 14.9252C22.1734 13.402 20.5914 12.3553 18.7684 12.3553H13.2316C11.4086 12.3553 9.82662 13.402 9.05175 14.9252C8.65032 14.8155 8.23603 14.7599 7.81987 14.7598H4.6875C2.10281 14.7598 0 16.8627 0 19.4473V24.4547C0 26.0055 1.26169 27.2672 2.8125 27.2672H29.1875C30.7383 27.2672 32 26.0055 32 24.4547V19.4473C32 16.8627 29.8972 14.7598 27.3125 14.7598ZM8.54406 17.043V25.3923H2.8125C2.29556 25.3923 1.875 24.9717 1.875 24.4548V19.4474C1.875 17.8966 3.13669 16.6349 4.6875 16.6349H7.81987C8.07438 16.6349 8.32081 16.6695 8.55544 16.7332C8.54825 16.8363 8.54445 16.9396 8.54406 17.043ZM21.5809 25.3923H10.4191V17.0429C10.4191 15.4921 11.6807 14.2304 13.2316 14.2304H18.7684C20.3193 14.2304 21.5809 15.4921 21.5809 17.0429V25.3923ZM30.125 24.4548C30.125 24.9717 29.7044 25.3923 29.1875 25.3923H23.4559V17.0429C23.4555 16.9395 23.4518 16.8362 23.4446 16.7331C23.6843 16.6679 23.9317 16.6349 24.1801 16.6348H27.3125C28.8633 16.6348 30.125 17.8965 30.125 19.4473V24.4548Z" fill="#070707"/>
<path d="M6.25131 5.90684C3.9545 5.90684 2.08594 7.7754 2.08594 10.0722C2.08588 12.369 3.9545 14.2376 6.25131 14.2376C8.54806 14.2376 10.4167 12.369 10.4167 10.0722C10.4167 7.7754 8.54812 5.90684 6.25131 5.90684ZM6.25125 12.3626C4.98831 12.3626 3.96087 11.3351 3.96087 10.0722C3.96087 8.80927 4.98831 7.78184 6.25125 7.78184C7.51419 7.78184 8.54163 8.80927 8.54163 10.0722C8.54163 11.3351 7.51419 12.3626 6.25125 12.3626ZM15.9976 0.733398C12.9291 0.733398 10.4327 3.22977 10.4327 6.29827C10.4327 9.36677 12.9291 11.8631 15.9976 11.8631C19.0661 11.8631 21.5624 9.36677 21.5624 6.29827C21.5624 3.22984 19.0661 0.733398 15.9976 0.733398ZM15.9976 9.98815C13.9629 9.98815 12.3077 8.3329 12.3077 6.29827C12.3077 4.26371 13.9629 2.6084 15.9976 2.6084C18.0322 2.6084 19.6874 4.26365 19.6874 6.29827C19.6874 8.3329 18.0322 9.98815 15.9976 9.98815ZM25.7438 5.90684C23.4471 5.90684 21.5784 7.7754 21.5784 10.0722C21.5785 12.369 23.4471 14.2376 25.7438 14.2376C28.0406 14.2376 29.9092 12.369 29.9092 10.0722C29.9092 7.7754 28.0406 5.90684 25.7438 5.90684ZM25.7438 12.3626C24.4809 12.3626 23.4534 11.3351 23.4534 10.0722C23.4535 8.80927 24.4809 7.78184 25.7438 7.78184C27.0068 7.78184 28.0342 8.80927 28.0342 10.0722C28.0342 11.3351 27.0068 12.3626 25.7438 12.3626Z" fill="#070707"/>
</svg>
