<svg width="28" height="26" viewBox="0 0 28 26" fill="none" xmlns="http://www.w3.org/2000/svg">
<path d="M25.4836 10.5089C25.0776 10.2729 24.7128 9.97231 24.4036 9.61893C24.4349 9.12695 24.5521 8.64424 24.7498 8.19268C25.1136 7.16643 25.5248 6.00393 24.8648 5.10018C24.2048 4.19643 22.9586 4.22518 21.8648 4.25018C21.3815 4.29991 20.8933 4.26694 20.4211 4.15268C20.1695 3.74332 19.9898 3.29391 19.8898 2.82393C19.5798 1.76768 19.2261 0.573932 18.1398 0.216432C17.0923 -0.121068 16.1223 0.621432 15.2648 1.27393C14.8948 1.61183 14.4661 1.87915 13.9998 2.06268C13.5287 1.88065 13.0952 1.61326 12.7211 1.27393C11.8661 0.625182 10.8998 -0.124818 9.84734 0.217682C8.76359 0.570182 8.40984 1.76768 8.09734 2.82393C7.99751 3.29239 7.81961 3.74072 7.57109 4.15018C7.09799 4.26413 6.60913 4.29793 6.12484 4.25018C5.02734 4.22018 3.79109 4.18768 3.12484 5.10018C2.45859 6.01268 2.87484 7.16643 3.23984 8.19143C3.4404 8.64232 3.55932 9.12523 3.59109 9.61768C3.28244 9.97153 2.91806 10.2726 2.51234 10.5089C1.59734 11.1339 0.558594 11.8452 0.558594 13.0002C0.558594 14.1552 1.59734 14.8639 2.51234 15.4914C2.91797 15.7274 3.28234 16.028 3.59109 16.3814C3.56266 16.8737 3.44712 17.357 3.24984 17.8089C2.88734 18.8339 2.47734 19.9964 3.13609 20.9002C3.79484 21.8039 5.03734 21.7752 6.13609 21.7502C6.6198 21.7004 7.10846 21.7334 7.58109 21.8477C7.83157 22.2575 8.01077 22.7068 8.11109 23.1764C8.42109 24.2327 8.77484 25.4264 9.86109 25.7839C10.0352 25.8398 10.217 25.8684 10.3998 25.8689C11.2789 25.7428 12.0958 25.3431 12.7348 24.7264C13.1049 24.3885 13.5336 24.1212 13.9998 23.9377C14.471 24.1197 14.9045 24.3871 15.2786 24.7264C16.1348 25.3802 17.1048 26.1264 18.1536 25.7827C19.2373 25.4302 19.5911 24.2327 19.9036 23.1777C20.0038 22.7083 20.183 22.2595 20.4336 21.8502C20.9049 21.7354 21.3922 21.7016 21.8748 21.7502C22.9723 21.7764 24.2086 21.8127 24.8748 20.9002C25.5411 19.9877 25.1248 18.8339 24.7598 17.8077C24.5607 17.3572 24.4418 16.8754 24.4086 16.3839C24.7174 16.0298 25.0823 15.7287 25.4886 15.4927C26.4036 14.8677 27.4423 14.1552 27.4423 13.0002C27.4423 11.8452 26.3998 11.1352 25.4836 10.5089Z" fill="#49ADF4"/>
<path d="M12.7501 16.4375C12.6269 16.4377 12.505 16.4136 12.3913 16.3664C12.2775 16.3191 12.1743 16.2499 12.0876 16.1625L9.58755 13.6625C9.42195 13.4848 9.3318 13.2497 9.33608 13.0069C9.34037 12.764 9.43876 12.5322 9.61053 12.3605C9.78229 12.1887 10.014 12.0903 10.2569 12.086C10.4998 12.0817 10.7348 12.1719 10.9126 12.3375L12.8376 14.2625L17.1876 11C17.3865 10.8508 17.6365 10.7868 17.8826 10.8219C18.1288 10.8571 18.3509 10.9886 18.5001 11.1875C18.6492 11.3864 18.7133 11.6364 18.6781 11.8826C18.643 12.1287 18.5115 12.3508 18.3126 12.5L13.3126 16.25C13.1502 16.3716 12.9529 16.4374 12.7501 16.4375Z" fill="white"/>
</svg>
