<svg width="38" height="25" viewBox="0 0 38 25" fill="none" xmlns="http://www.w3.org/2000/svg">
<rect x="0.855469" y="0.5" width="36.3636" height="24" rx="3" fill="#3264FF"/>
<path d="M19.4678 11.0617C19.4535 12.1729 20.4681 12.7931 21.2324 13.1617C22.0177 13.5401 22.2814 13.7826 22.2784 14.1209C22.2724 14.6387 21.652 14.8672 21.0713 14.8761C20.0582 14.8916 19.4693 14.6053 19.001 14.3887L18.636 16.0793C19.1059 16.2937 19.9758 16.4806 20.878 16.4888C22.9955 16.4888 24.381 15.4539 24.3885 13.8494C24.3967 11.8131 21.5434 11.7004 21.5628 10.7902C21.5696 10.5142 21.8356 10.2197 22.4185 10.1448C22.707 10.107 23.5035 10.078 24.4065 10.4897L24.7609 8.85404C24.2753 8.67897 23.6512 8.51132 22.8741 8.51132C20.881 8.51132 19.479 9.56025 19.4678 11.0617ZM28.1665 8.65227C27.7798 8.65227 27.4539 8.87555 27.3085 9.21827L24.2836 16.3686H26.3996L26.8207 15.2166H29.4066L29.6508 16.3686H31.5159L29.8884 8.65227H28.1665ZM28.4624 10.7368L29.0731 13.6343H27.4007L28.4624 10.7368ZM16.9022 8.65227L15.2342 16.3686H17.2506L18.9178 8.65227H16.9022ZM13.9192 8.65227L11.8204 13.9043L10.9714 9.43859C10.8718 8.94009 10.4784 8.65227 10.0415 8.65227H6.61046L6.5625 8.8763C7.26685 9.02762 8.0671 9.27168 8.5519 9.5328C8.84863 9.69229 8.9333 9.83175 9.03071 10.2108L10.6387 16.3686H12.7697L16.0367 8.65227H13.9192Z" fill="white"/>
</svg>
