<svg width="28" height="19" viewBox="0 0 28 19" fill="none" xmlns="http://www.w3.org/2000/svg">
<path d="M25.8162 6.5746C19.5441 0.63017 9.88551 0.317436 3.25705 5.6364C2.88949 5.93169 2.53066 6.24442 2.18304 6.5746C2.09395 6.65903 1.9891 6.72508 1.87448 6.76899C1.75986 6.8129 1.63772 6.8338 1.51502 6.8305C1.39232 6.8272 1.27148 6.79977 1.15938 6.74977C1.04729 6.69977 0.946136 6.62818 0.861708 6.53909C0.77728 6.45 0.711226 6.34515 0.667318 6.23053C0.623411 6.11591 0.602509 5.99377 0.605806 5.87107C0.612465 5.62327 0.717289 5.38827 0.897217 5.21776C1.28346 4.8527 1.67967 4.50757 2.0871 4.17988C9.43821 -1.72094 20.1459 -1.37457 27.1021 5.21776C27.1911 5.30219 27.2627 5.40334 27.3127 5.51543C27.3627 5.62753 27.3902 5.74837 27.3935 5.87107C27.3968 5.99377 27.3759 6.11591 27.332 6.23053C27.288 6.34515 27.222 6.45 27.1376 6.53909C27.0531 6.62818 26.952 6.69977 26.8399 6.74977C26.7278 6.79977 26.607 6.8272 26.4843 6.8305C26.3616 6.8338 26.2394 6.8129 26.1248 6.76899C26.0102 6.72508 25.9053 6.65903 25.8162 6.5746Z" fill="#D6AE29"/>
<path d="M4.61773 9.49381C9.79964 4.31066 18.1998 4.31066 23.3818 9.49381C23.5468 9.67095 23.6367 9.90525 23.6324 10.1473C23.6281 10.3894 23.5301 10.6204 23.3589 10.7916C23.1876 10.9628 22.9567 11.0609 22.7146 11.0652C22.4725 11.0694 22.2382 10.9796 22.061 10.8145C19.923 8.67654 17.0233 7.47544 13.9997 7.47544C10.9762 7.47544 8.07644 8.67654 5.93844 10.8145C5.85289 10.9063 5.74972 10.98 5.6351 11.031C5.52047 11.0821 5.39673 11.1096 5.27126 11.1118C5.14579 11.114 5.02116 11.0909 4.9048 11.0439C4.78844 10.9969 4.68275 10.927 4.59401 10.8382C4.50528 10.7495 4.43532 10.6438 4.38832 10.5274C4.34132 10.4111 4.31824 10.2865 4.32046 10.161C4.32267 10.0355 4.35013 9.91178 4.40121 9.79715C4.45228 9.68253 4.52592 9.57936 4.61773 9.49381Z" fill="#D6AE29"/>
<path d="M8.35601 13.5514C9.85303 12.0547 11.8833 11.2139 14.0002 11.2139C16.1171 11.2139 18.1473 12.0547 19.6443 13.5514C19.8094 13.7286 19.8993 13.9629 19.895 14.205C19.8907 14.4471 19.7926 14.678 19.6214 14.8492C19.4502 15.0205 19.2192 15.1185 18.9771 15.1228C18.7351 15.1271 18.5008 15.0372 18.3236 14.8721C17.7559 14.3043 17.0819 13.8539 16.34 13.5466C15.5982 13.2393 14.8031 13.0811 14.0002 13.0811C13.1972 13.0811 12.4021 13.2393 11.6603 13.5466C10.9185 13.8539 10.2445 14.3043 9.67672 14.8721C9.59117 14.964 9.48801 15.0376 9.37338 15.0887C9.25875 15.1397 9.13501 15.1672 9.00954 15.1694C8.88407 15.1716 8.75944 15.1486 8.64308 15.1016C8.52673 15.0546 8.42103 14.9846 8.33229 14.8959C8.24356 14.8071 8.1736 14.7014 8.1266 14.5851C8.07961 14.4687 8.05653 14.3441 8.05874 14.2186C8.06095 14.0931 8.08842 13.9694 8.13949 13.8548C8.19056 13.7402 8.2642 13.637 8.35601 13.5514ZM14.0002 19C14.4132 19 14.8094 18.8359 15.1014 18.5438C15.3935 18.2517 15.5576 17.8556 15.5576 17.4425C15.5576 17.0295 15.3935 16.6333 15.1014 16.3413C14.8094 16.0492 14.4132 15.8851 14.0002 15.8851C13.5871 15.8851 13.191 16.0492 12.8989 16.3413C12.6068 16.6333 12.4427 17.0295 12.4427 17.4425C12.4427 17.8556 12.6068 18.2517 12.8989 18.5438C13.191 18.8359 13.5871 19 14.0002 19Z" fill="#D6AE29"/>
</svg>
