<svg width="20" height="20" viewBox="0 0 20 20" fill="none" xmlns="http://www.w3.org/2000/svg">
<g id="Iconly/Light/Calendar">
<g id="Calendar">
<path id="Line_200" d="M2.57812 7.83932H17.4314" stroke="#777980" stroke-width="1.5" stroke-linecap="round" stroke-linejoin="round"/>
<path id="Line_201" d="M13.7025 11.0932H13.7102" stroke="#777980" stroke-width="1.5" stroke-linecap="round" stroke-linejoin="round"/>
<path id="Line_202" d="M10.0032 11.0932H10.011" stroke="#777980" stroke-width="1.5" stroke-linecap="round" stroke-linejoin="round"/>
<path id="Line_203" d="M6.30011 11.0932H6.30783" stroke="#777980" stroke-width="1.5" stroke-linecap="round" stroke-linejoin="round"/>
<path id="Line_204" d="M13.7025 14.3315H13.7102" stroke="#777980" stroke-width="1.5" stroke-linecap="round" stroke-linejoin="round"/>
<path id="Line_205" d="M10.0032 14.3315H10.011" stroke="#777980" stroke-width="1.5" stroke-linecap="round" stroke-linejoin="round"/>
<path id="Line_206" d="M6.30011 14.3315H6.30783" stroke="#777980" stroke-width="1.5" stroke-linecap="round" stroke-linejoin="round"/>
<path id="Line_207" d="M13.3704 1.66797V4.41029" stroke="#777980" stroke-width="1.5" stroke-linecap="round" stroke-linejoin="round"/>
<path id="Line_208" d="M6.636 1.66797V4.41029" stroke="#777980" stroke-width="1.5" stroke-linecap="round" stroke-linejoin="round"/>
<path id="Path" fill-rule="evenodd" clip-rule="evenodd" d="M13.5319 2.98437L6.4758 2.98438C4.02856 2.98438 2.5 4.34765 2.5 6.85356L2.5 14.3949C2.5 16.9402 4.02856 18.335 6.4758 18.335H13.5242C15.9791 18.335 17.5 16.9639 17.5 14.458V6.85356C17.5077 4.34765 15.9868 2.98437 13.5319 2.98437Z" stroke="#777980" stroke-width="1.5" stroke-linecap="round" stroke-linejoin="round"/>
</g>
</g>
</svg>
