<svg width="12" height="11" viewBox="0 0 12 11" fill="none" xmlns="http://www.w3.org/2000/svg">
<g id="Iconly/Curved/Camera">
<g id="Camera">
<path id="Stroke 2" fill-rule="evenodd" clip-rule="evenodd" d="M7.53243 5.72325C7.53243 4.94907 6.90465 4.32129 6.13047 4.32129C5.3563 4.32129 4.72852 4.94907 4.72852 5.72325C4.72852 6.49742 5.3563 7.12521 6.13047 7.12521C6.90465 7.12521 7.53243 6.49742 7.53243 5.72325Z" stroke="white" stroke-width="0.605581" stroke-linecap="round" stroke-linejoin="round"/>
<path id="Stroke 4" fill-rule="evenodd" clip-rule="evenodd" d="M6.13022 9.15682C9.71629 9.15682 10.1433 8.08236 10.1433 5.75421C10.1433 4.12235 9.92743 3.24917 8.56817 2.87382C8.44336 2.8344 8.30495 2.75933 8.19281 2.63593C8.0117 2.43746 7.87939 1.82798 7.4421 1.64358C7.0048 1.45966 5.2486 1.4681 4.81835 1.64358C4.38857 1.81953 4.24875 2.43746 4.06764 2.63593C3.9555 2.75933 3.81755 2.8344 3.69228 2.87382C2.33302 3.24917 2.11719 4.12235 2.11719 5.75421C2.11719 8.08236 2.54416 9.15682 6.13022 9.15682Z" stroke="white" stroke-width="0.605581" stroke-linecap="round" stroke-linejoin="round"/>
<path id="Stroke 11" d="M8.32047 4.16623H8.32448" stroke="white" stroke-width="0.648837" stroke-linecap="round" stroke-linejoin="round"/>
</g>
</g>
</svg>
