<svg width="16" height="16" viewBox="0 0 16 16" fill="none" xmlns="http://www.w3.org/2000/svg">
<g id="Frame">
<g id="Group">
<path id="Vector" d="M8.001 1.59961C6.23653 1.59961 4.80161 3.03533 4.80161 4.799V6.80021H4.40169C3.62983 6.80021 3.00195 7.42809 3.00195 8.19995V12.999C3.00195 13.7709 3.62983 14.3988 4.40169 14.3988H11.6003C12.3722 14.3988 13 13.7709 13 12.999V8.19995C13 7.42809 12.3722 6.80021 11.6003 6.80021H11.2004V4.799C11.2004 3.03533 9.76466 1.59961 8.001 1.59961ZM6.00138 4.799C6.00138 3.69681 6.89841 2.79938 8.001 2.79938C9.10359 2.79938 10.0006 3.69681 10.0006 4.799V6.80021H6.00138V4.799ZM5.80142 11.2034C5.46948 11.2034 5.20153 10.9354 5.20153 10.6035C5.20153 10.2715 5.46948 10.0036 5.80142 10.0036C6.13335 10.0036 6.4013 10.2715 6.4013 10.6035C6.4013 10.9354 6.13335 11.2034 5.80142 11.2034ZM8.001 11.2034C7.66906 11.2034 7.40111 10.9354 7.40111 10.6035C7.40111 10.2715 7.66906 10.0036 8.001 10.0036C8.33293 10.0036 8.60088 10.2715 8.60088 10.6035C8.60088 10.9354 8.33293 11.2034 8.001 11.2034ZM10.2006 11.2034C9.86864 11.2034 9.60069 10.9354 9.60069 10.6035C9.60069 10.2715 9.86864 10.0036 10.2006 10.0036C10.5325 10.0036 10.8005 10.2715 10.8005 10.6035C10.8005 10.9354 10.5325 11.2034 10.2006 11.2034Z" fill="#D6AE29"/>
</g>
</g>
</svg>
