<svg width="16" height="16" viewBox="0 0 16 16" fill="none" xmlns="http://www.w3.org/2000/svg">
<g id="Frame">
<g id="Group">
<path id="Vector" d="M12.5941 2.74487H10.1869V2.30719C10.1869 1.582 9.59903 0.994141 8.87384 0.994141H7.12311C6.39792 0.994141 5.81006 1.582 5.81006 2.30719V2.74487H3.4028C2.7985 2.74487 2.30859 3.23478 2.30859 3.83908V4.71445C2.30859 4.95618 2.50454 5.15213 2.74628 5.15213H13.2507C13.4924 5.15213 13.6884 4.95618 13.6884 4.71445V3.83908C13.6884 3.23478 13.1985 2.74487 12.5941 2.74487ZM6.68542 2.30719C6.68542 2.06592 6.88183 1.86951 7.12311 1.86951H8.87384C9.11511 1.86951 9.31152 2.06592 9.31152 2.30719V2.74487H6.68542V2.30719ZM3.13921 6.0275C3.1207 6.0275 3.10238 6.03126 3.08537 6.03854C3.06835 6.04583 3.05299 6.05649 3.04022 6.06989C3.02745 6.08329 3.01753 6.09914 3.01106 6.11648C3.00459 6.13382 3.00171 6.1523 3.0026 6.17078L3.36368 13.7493C3.39706 14.4507 3.97316 15 4.67509 15H11.3219C12.0238 15 12.5999 14.4507 12.6333 13.7493L12.9944 6.17078C12.9952 6.1523 12.9924 6.13382 12.9859 6.11648C12.9794 6.09914 12.9695 6.08329 12.9567 6.06989C12.944 6.05649 12.9286 6.04583 12.9116 6.03854C12.8946 6.03126 12.8763 6.0275 12.8577 6.0275H3.13921ZM9.74921 7.1217C9.74921 6.87988 9.94507 6.68402 10.1869 6.68402C10.4287 6.68402 10.6246 6.87988 10.6246 7.1217V12.8116C10.6246 13.0534 10.4287 13.2493 10.1869 13.2493C9.94507 13.2493 9.74921 13.0534 9.74921 12.8116V7.1217ZM7.56079 7.1217C7.56079 6.87988 7.75665 6.68402 7.99847 6.68402C8.24029 6.68402 8.43616 6.87988 8.43616 7.1217V12.8116C8.43616 13.0534 8.24029 13.2493 7.99847 13.2493C7.75665 13.2493 7.56079 13.0534 7.56079 12.8116V7.1217ZM5.37238 7.1217C5.37238 6.87988 5.56824 6.68402 5.81006 6.68402C6.05188 6.68402 6.24774 6.87988 6.24774 7.1217V12.8116C6.24774 13.0534 6.05188 13.2493 5.81006 13.2493C5.56824 13.2493 5.37238 13.0534 5.37238 12.8116V7.1217Z" fill="#D6AE29"/>
</g>
</g>
</svg>
