<svg width="16" height="16" viewBox="0 0 16 16" fill="none" xmlns="http://www.w3.org/2000/svg">
<g id="Icon">
<g id="arrow-right">
<path id="Vector" d="M2.21901 5.93974C2.21901 5.81307 2.26568 5.68641 2.36568 5.58641C2.55901 5.39307 2.87901 5.39307 3.07234 5.58641L7.41901 9.93307C7.73901 10.2531 8.25901 10.2531 8.57901 9.93307L12.9257 5.58641C13.119 5.39307 13.439 5.39307 13.6323 5.58641C13.8257 5.77974 13.8257 6.09974 13.6323 6.29307L9.28568 10.6397C8.94568 10.9797 8.48568 11.1731 7.99901 11.1731C7.51234 11.1731 7.05234 10.9864 6.71234 10.6397L2.36568 6.29307C2.27234 6.19307 2.21901 6.06641 2.21901 5.93974Z" fill="#777980"/>
</g>
</g>
</svg>
