<svg width="16" height="16" viewBox="0 0 16 16" fill="none" xmlns="http://www.w3.org/2000/svg">
<g clip-path="url(#clip0_4437_3436)">
<path d="M10.7501 9.58337C10.4275 9.58337 10.1668 9.84475 10.1668 10.1667V12.5001C10.1668 12.8215 9.90538 13.0834 9.58335 13.0834H7.83334V4.33334C7.83334 3.83516 7.51601 3.39008 7.03886 3.22441L6.86615 3.16663H9.58335C9.90538 3.16663 10.1668 3.42853 10.1668 3.75004V5.50005C10.1668 5.82197 10.4275 6.08335 10.7501 6.08335C11.0726 6.08335 11.3334 5.82197 11.3334 5.50005V3.75004C11.3334 2.78521 10.5482 2.00003 9.58335 2.00003H3.31251C3.29031 2.00003 3.27171 2.00995 3.25014 2.01285C3.22203 2.0105 3.19523 2 3.16671 2C2.52328 2.00003 2 2.52323 2 3.16666V13.6667C2 14.1649 2.31733 14.61 2.79448 14.7757L6.30503 15.9459C6.42403 15.9826 6.54237 16.0001 6.66671 16.0001C7.31014 16.0001 7.83331 15.4768 7.83331 14.8334V14.2501H9.58332C10.5482 14.2501 11.3333 13.4649 11.3333 12.5001V10.1667C11.3333 9.84475 11.0726 9.58337 10.75 9.58337H10.7501Z" fill="#D6AE29"/>
<path d="M15.8298 7.42135L13.4964 5.08804C13.4149 5.0064 13.3109 4.95079 13.1978 4.92824C13.0846 4.90569 12.9673 4.91721 12.8607 4.96135C12.6431 5.05183 12.5007 5.26471 12.5007 5.50044V7.25045H10.1674C9.84536 7.25045 9.58398 7.51172 9.58398 7.83375C9.58398 8.15578 9.84536 8.41705 10.1674 8.41705H12.5007V10.1671C12.5007 10.4028 12.6431 10.6157 12.8607 10.7061C12.9673 10.7503 13.0846 10.7618 13.1977 10.7393C13.3109 10.7167 13.4148 10.6612 13.4964 10.5795L15.8298 8.24615C16.0579 8.0181 16.0579 7.6494 15.8298 7.42135Z" fill="#D6AE29"/>
</g>
<defs>
<clipPath id="clip0_4437_3436">
<rect width="16" height="16" fill="white"/>
</clipPath>
</defs>
</svg>
