<svg width="25" height="16" viewBox="0 0 25 16" fill="none" xmlns="http://www.w3.org/2000/svg">
<path d="M8.29297 1.71094H16.0715V14.2885H8.29297V1.71094Z" fill="#FF5F00"/>
<path d="M9.29993 7.9983C9.29905 6.89708 9.55364 5.81008 10.0444 4.81958C10.5352 3.82908 11.2494 2.96103 12.1328 2.28112C11.0386 1.43793 9.72459 0.913597 8.34087 0.768052C6.95716 0.622508 5.5596 0.861621 4.30792 1.45806C3.05625 2.05451 2.00095 2.98421 1.26264 4.14093C0.524339 5.29765 0.132813 6.6347 0.132812 7.99929C0.132813 9.36387 0.524339 10.7009 1.26264 11.8576C2.00095 13.0144 3.05625 13.9441 4.30792 14.5405C5.5596 15.137 6.95716 15.3761 8.34087 15.2305C9.72459 15.085 11.0386 14.5607 12.1328 13.7175C11.2491 13.0373 10.5348 12.169 10.044 11.1781C9.55317 10.1872 9.29874 9.09982 9.29993 7.99826V7.9983Z" fill="#EB001B"/>
<path d="M24.1328 8.00032C24.1328 9.36485 23.7412 10.7018 23.0028 11.8585C22.2645 13.0151 21.2091 13.9447 19.9574 14.5409C18.7057 15.1372 17.3081 15.3762 15.9244 15.2304C14.5407 15.0847 13.2268 14.5601 12.1328 13.7168C13.0158 13.0363 13.7297 12.1682 14.2206 11.1777C14.7114 10.1873 14.9665 9.10048 14.9665 7.99929C14.9665 6.8981 14.7114 5.81128 14.2206 4.82085C13.7297 3.83042 13.0158 2.96223 12.1328 2.28179C13.2268 1.43843 14.5408 0.913901 15.9244 0.768162C17.3081 0.622423 18.7057 0.861354 19.9574 1.45764C21.2091 2.05393 22.2645 2.98352 23.0028 4.14015C23.7412 5.29677 24.1328 6.63377 24.1328 7.9983V8.00032Z" fill="#F79E1B"/>
</svg>
