<svg width="16" height="16" viewBox="0 0 16 16" fill="none" xmlns="http://www.w3.org/2000/svg">
<g id="Frame">
<g id="Group">
<path id="Vector" fill-rule="evenodd" clip-rule="evenodd" d="M12.0007 6.83301C10.2527 6.83301 8.83398 8.25167 8.83398 9.99967C8.83398 11.7477 10.2527 13.1663 12.0007 13.1663C13.7487 13.1663 15.1673 11.7477 15.1673 9.99967C15.1673 8.25167 13.7487 6.83301 12.0007 6.83301ZM12.5007 9.49967V8.66634C12.5007 8.53373 12.448 8.40656 12.3542 8.31279C12.2604 8.21902 12.1333 8.16634 12.0007 8.16634C11.868 8.16634 11.7409 8.21902 11.6471 8.31279C11.5533 8.40656 11.5007 8.53373 11.5007 8.66634V9.49967H10.6673C10.5347 9.49967 10.4075 9.55235 10.3138 9.64612C10.22 9.73989 10.1673 9.86707 10.1673 9.99967C10.1673 10.1323 10.22 10.2595 10.3138 10.3532C10.4075 10.447 10.5347 10.4997 10.6673 10.4997H11.5007V11.333C11.5007 11.4656 11.5533 11.5928 11.6471 11.6866C11.7409 11.7803 11.868 11.833 12.0007 11.833C12.1333 11.833 12.2604 11.7803 12.3542 11.6866C12.448 11.5928 12.5007 11.4656 12.5007 11.333V10.4997H13.334C13.4666 10.4997 13.5938 10.447 13.6875 10.3532C13.7813 10.2595 13.834 10.1323 13.834 9.99967C13.834 9.86707 13.7813 9.73989 13.6875 9.64612C13.5938 9.55235 13.4666 9.49967 13.334 9.49967H12.5007Z" fill="#D6AE29"/>
<path id="Vector_2" fill-rule="evenodd" clip-rule="evenodd" d="M10.436 6.49967H0.833984V10.6663C0.833984 11.1523 1.02732 11.619 1.37065 11.963C1.7148 12.3065 2.1811 12.4995 2.66732 12.4997H9.09532C8.49572 11.8049 8.1663 10.9174 8.16732 9.99967C8.16755 9.25961 8.38185 8.53541 8.78439 7.91439C9.18693 7.29337 9.76051 6.80205 10.436 6.49967ZM5.33465 9.49967H3.33398C3.20138 9.49967 3.0742 9.55235 2.98043 9.64612C2.88666 9.73989 2.83398 9.86707 2.83398 9.99967C2.83398 10.1323 2.88666 10.2595 2.98043 10.3532C3.0742 10.447 3.20138 10.4997 3.33398 10.4997H5.33465C5.46726 10.4997 5.59444 10.447 5.6882 10.3532C5.78197 10.2595 5.83465 10.1323 5.83465 9.99967C5.83465 9.86707 5.78197 9.73989 5.6882 9.64612C5.59444 9.55235 5.46726 9.49967 5.33465 9.49967ZM0.833984 5.49967H13.834V4.66634C13.834 4.18034 13.6407 3.71367 13.2973 3.36967C12.9532 3.0262 12.4869 2.83321 12.0007 2.83301H2.66732C2.18132 2.83301 1.71465 3.02634 1.37065 3.36967C1.02718 3.71382 0.834189 4.18012 0.833984 4.66634V5.49967Z" fill="#D6AE29"/>
</g>
</g>
</svg>
