<svg width="16" height="16" viewBox="0 0 16 16" fill="none" xmlns="http://www.w3.org/2000/svg">
<g id="Icon">
<g id="Group">
<path id="Vector" d="M14.7576 9.53418L13.4362 8.52793C13.4529 8.37275 13.4673 8.19135 13.4673 7.99943C13.4673 7.8075 13.4535 7.6261 13.4362 7.47093L14.7589 6.4641C15.0045 6.2751 15.0716 5.93968 14.9152 5.66028L13.541 3.345C13.3942 3.08368 13.0726 2.9495 12.7461 3.06675L11.1868 3.67632C10.8879 3.46632 10.5746 3.289 10.2505 3.14725L10.0133 1.53668C9.97434 1.231 9.70118 1 9.37832 1H6.62277C6.29988 1 6.02734 1.231 5.98898 1.532L5.75117 3.14843C5.43727 3.2861 5.12879 3.4611 4.81668 3.6775L3.2532 3.06618C2.96024 2.95593 2.60981 3.07957 2.46424 3.33975L1.08828 5.65793C0.925946 5.9251 0.993029 6.27218 1.24403 6.46585L2.5655 7.4721C2.54452 7.66868 2.53436 7.8396 2.53436 8.00003C2.53436 8.16045 2.54455 8.33135 2.5655 8.52853L1.24283 9.53535C0.997213 9.72493 0.93072 10.0604 1.08707 10.3392L2.46126 12.6544C2.60804 12.9152 2.92671 13.0505 3.25617 12.9327L4.81547 12.3231C5.11379 12.5325 5.42708 12.7099 5.75117 12.8522L5.98839 14.4622C6.02731 14.769 6.29988 15 6.62336 15H9.37891C9.7018 15 9.97496 14.769 10.0133 14.468L10.2511 12.8522C10.565 12.7139 10.8729 12.5395 11.1856 12.3225L12.7491 12.9338C12.8239 12.9624 12.9035 12.977 12.9839 12.977C13.2163 12.977 13.4302 12.8533 13.538 12.6608L14.9182 10.3333C15.0716 10.0603 15.0044 9.72493 14.7576 9.53418ZM8.00053 10.3333C6.67907 10.3333 5.6044 9.28682 5.6044 8C5.6044 6.71318 6.67907 5.66668 8.00053 5.66668C9.32199 5.66668 10.3967 6.71318 10.3967 8C10.3967 9.28682 9.32199 10.3333 8.00053 10.3333Z" fill="#D6AE29"/>
</g>
</g>
</svg>
