<svg width="16" height="16" viewBox="0 0 16 16" fill="none" xmlns="http://www.w3.org/2000/svg">
<path d="M11.8708 9.89018C11.9484 9.93631 12.0442 9.99038 12.1526 10.0516C12.6278 10.3196 13.3462 10.7249 13.8383 11.2066C14.1461 11.5078 14.4385 11.9048 14.4917 12.3912C14.5482 12.9084 14.3226 13.3938 13.8699 13.8251C13.0889 14.5691 12.1517 15.1654 10.9395 15.1654H5.0607C3.84849 15.1654 2.9113 14.5691 2.13034 13.8251C1.67766 13.3938 1.45202 12.9084 1.50855 12.3912C1.56172 11.9048 1.85415 11.5078 2.16193 11.2066C2.65404 10.7249 3.37238 10.3196 3.84759 10.0516C3.95603 9.99038 4.05182 9.93631 4.12936 9.89018C6.49872 8.47931 9.50151 8.47931 11.8708 9.89018Z" fill="#D6AE29"/>
<path d="M4.5 4.33203C4.5 2.39903 6.06701 0.832031 7.99999 0.832031C9.93299 0.832031 11.5 2.39903 11.5 4.33203C11.5 6.26502 9.93299 7.83203 7.99999 7.83203C6.06701 7.83203 4.5 6.26502 4.5 4.33203Z" fill="#D6AE29"/>
</svg>
