<svg width="20" height="20" viewBox="0 0 20 20" fill="none" xmlns="http://www.w3.org/2000/svg">
<g id="view-off-slash">
<path id="Vector" d="M16.1985 12.8662C16.969 12.1013 17.5639 11.3412 17.9527 10.7962C18.206 10.4409 18.3327 10.2632 18.3327 10.0003C18.3327 9.73741 18.206 9.55974 17.9527 9.20449C16.8143 7.60819 13.907 4.16699 9.99935 4.16699C9.24285 4.16699 8.52385 4.29596 7.84791 4.51555M5.6222 5.62318C3.942 6.75633 2.70114 8.28588 2.04605 9.20449C1.79269 9.55974 1.66602 9.73741 1.66602 10.0003C1.66602 10.2632 1.79269 10.4409 2.04605 10.7962C3.18443 12.3925 6.09167 15.8337 9.99935 15.8337C11.6583 15.8337 13.1369 15.2134 14.3765 14.3775" stroke="#777980" stroke-width="1.25" stroke-linecap="round" stroke-linejoin="round"/>
<path id="Vector_2" d="M8.21488 8.33301C7.77319 8.77467 7.5 9.38492 7.5 10.0589C7.5 11.4069 8.59275 12.4997 9.94075 12.4997C10.6147 12.4997 11.225 12.2265 11.6667 11.7848" stroke="#777980" stroke-width="1.25" stroke-linecap="round"/>
<path id="Vector_3" d="M2.5 2.5L17.5 17.5" stroke="#777980" stroke-width="1.25" stroke-linecap="round" stroke-linejoin="round"/>
</g>
</svg>
