<svg width="32" height="32" viewBox="0 0 32 32" fill="none" xmlns="http://www.w3.org/2000/svg">
<path d="M21.385 10C20.33 5.10002 18.08 2.00002 15.999 2.00002C13.918 2.00002 11.668 5.10002 10.613 10H21.385ZM9.99895 16C9.9987 17.3378 10.0879 18.6741 10.266 20H21.732C21.91 18.6741 21.9992 17.3378 21.999 16C21.9992 14.6622 21.91 13.3259 21.732 12H10.266C10.0879 13.3259 9.9987 14.6622 9.99895 16ZM10.613 22C11.668 26.9 13.918 30 15.999 30C18.08 30 20.33 26.9 21.385 22H10.613ZM23.433 10H29.733C28.7864 7.84579 27.3481 5.94337 25.5335 4.44536C23.7189 2.94735 21.5785 1.89545 19.284 1.37402C21.181 3.04302 22.669 6.12902 23.433 10ZM30.452 12H23.752C23.9169 13.327 23.9994 14.6629 23.999 16C23.9991 17.3372 23.9163 18.6731 23.751 20H30.451C31.1802 17.3832 31.1812 14.6168 30.452 12ZM19.284 30.626C21.5789 30.1049 23.7197 29.0531 25.5346 27.5551C27.3496 26.0571 28.7882 24.1545 29.735 22H23.435C22.669 25.871 21.181 28.957 19.284 30.626ZM8.56495 22H2.26495C3.21174 24.1545 4.65033 26.0571 6.46529 27.5551C8.28025 29.0531 10.4211 30.1049 12.716 30.626C10.817 28.957 9.32895 25.871 8.56495 22ZM12.714 1.37402C10.4191 1.89517 8.27825 2.94694 6.46329 4.44496C4.64833 5.94299 3.20974 7.84556 2.26295 10H8.56295C9.32895 6.12902 10.817 3.04302 12.714 1.37402ZM7.99895 16C7.99882 14.6628 8.08165 13.3269 8.24695 12H1.54695C0.817683 14.6168 0.817683 17.3832 1.54695 20H8.24695C8.08165 18.6731 7.99882 17.3372 7.99895 16Z" fill="#D6AE29"/>
</svg>
