<svg width="17" height="17" viewBox="0 0 17 17" fill="none" xmlns="http://www.w3.org/2000/svg">
<path d="M10.5938 9.2813C10.2309 9.2813 9.9376 9.57535 9.9376 9.93751V12.5626C9.9376 12.9242 9.64355 13.2188 9.28127 13.2188H7.3125V3.37501C7.3125 2.81456 6.95551 2.31384 6.41871 2.12746L6.22442 2.06246H9.28127C9.64355 2.06246 9.9376 2.3571 9.9376 2.71879V4.68756C9.9376 5.04972 10.2309 5.34377 10.5938 5.34377C10.9567 5.34377 11.25 5.04972 11.25 4.68756V2.71879C11.25 1.63336 10.3667 0.750031 9.28127 0.750031H2.22657C2.20159 0.750031 2.18068 0.761197 2.1564 0.764458C2.12478 0.761813 2.09463 0.75 2.06255 0.75C1.33869 0.750031 0.75 1.33863 0.75 2.06249V13.8751C0.75 14.4355 1.10699 14.9362 1.64379 15.1226L5.59316 16.4391C5.72703 16.4804 5.86017 16.5001 6.00005 16.5001C6.7239 16.5001 7.31247 15.9114 7.31247 15.1876V14.5314H9.28123C10.3667 14.5314 11.25 13.648 11.25 12.5626V9.93751C11.25 9.57535 10.9567 9.2813 10.5938 9.2813H10.5938Z" fill="#D6AE29"/>
<path d="M16.3078 6.84865L13.6827 4.22368C13.591 4.13183 13.4741 4.06927 13.3467 4.0439C13.2194 4.01853 13.0875 4.0315 12.9675 4.08116C12.7227 4.18295 12.5626 4.42243 12.5626 4.68763V6.65639H9.93759C9.5753 6.65639 9.28125 6.95032 9.28125 7.3126C9.28125 7.67489 9.5753 7.96882 9.93759 7.96882H12.5626V9.93758C12.5626 10.2028 12.7227 10.4423 12.9675 10.5441C13.0874 10.5937 13.2194 10.6067 13.3467 10.5813C13.474 10.556 13.591 10.4934 13.6827 10.4016L16.3078 7.77656C16.5644 7.52 16.5644 7.10521 16.3078 6.84865Z" fill="#D6AE29"/>
</svg>
