<svg width="19" height="19" viewBox="0 0 19 19" fill="none" xmlns="http://www.w3.org/2000/svg">
<path d="M6.5 6.3125C7.17386 6.31248 7.77478 6.31246 8.22088 6.37243C8.69173 6.43574 9.11683 6.57499 9.45838 6.9166C9.8 7.2582 9.93928 7.6833 10.0026 8.15413C10.0626 8.60023 10.0625 9.16213 10.0625 9.836V10.25C10.0625 10.5607 9.81065 10.8125 9.5 10.8125H3.5C3.18934 10.8125 2.9375 10.5607 2.9375 10.25V9.836C2.93748 9.16213 2.93746 8.60023 2.99743 8.15413C3.06074 7.6833 3.19999 7.2582 3.5416 6.9166C3.8832 6.57499 4.3083 6.43574 4.77914 6.37243C5.22523 6.31246 5.82614 6.31248 6.5 6.3125Z" fill="#D6AE29"/>
<path d="M11.1875 10.25C11.1875 9.1109 12.1109 8.1875 13.25 8.1875C14.3891 8.1875 15.3125 9.1109 15.3125 10.25C15.3125 11.3891 14.3891 12.3125 13.25 12.3125C12.1109 12.3125 11.1875 11.3891 11.1875 10.25Z" fill="#D6AE29"/>
<path d="M4.4375 3.5C4.4375 2.36092 5.36092 1.4375 6.5 1.4375C7.63909 1.4375 8.5625 2.36092 8.5625 3.5C8.5625 4.63909 7.63909 5.5625 6.5 5.5625C5.36092 5.5625 4.4375 4.63909 4.4375 3.5Z" fill="#D6AE29"/>
<path d="M1.57586 12.2295C1.71361 12.0462 1.93485 11.9375 2.17046 11.9375H8.03412C8.34957 11.9375 8.6297 12.1311 8.72945 12.4182L10.0283 16.1562H12.142C12.5469 16.1562 12.875 16.471 12.875 16.8594C12.875 17.2477 12.5469 17.5625 12.142 17.5625H3.10809L1.47512 12.863C1.40061 12.6486 1.4381 12.4129 1.57586 12.2295Z" fill="#D6AE29"/>
<path d="M10.2344 13.6954C10.2344 13.307 10.5625 12.9922 10.9673 12.9922H15.365C16.5794 12.9922 17.5639 13.9366 17.5639 15.1016V15.4532C17.5639 16.6181 16.5794 17.5625 15.365 17.5625H14.7344C14.3295 17.5625 14.0014 17.2478 14.0014 16.8594C14.0014 16.4711 14.3295 16.1563 14.7344 16.1563H15.365C15.7698 16.1563 16.098 15.8415 16.098 15.4532V15.1016C16.098 14.7133 15.7698 14.3984 15.365 14.3984H10.9673C10.5625 14.3984 10.2344 14.0837 10.2344 13.6954Z" fill="#D6AE29"/>
</svg>
