<svg width="512" height="512" viewBox="0 0 512 512" fill="none" xmlns="http://www.w3.org/2000/svg">
<path d="M183.406 464.15C183.185 464.15 182.972 464.064 182.813 463.91C182.654 463.755 182.561 463.546 182.553 463.324L173.883 196.128C173.877 195.938 173.935 195.752 174.047 195.598C174.159 195.444 174.32 195.332 174.503 195.28L287.443 163.142C287.82 163.034 288.223 163.198 288.418 163.538L457.879 459.476C457.953 459.605 457.992 459.751 457.992 459.899C457.992 460.048 457.953 460.194 457.879 460.323C457.805 460.452 457.699 460.559 457.571 460.635C457.443 460.71 457.298 460.75 457.149 460.752L183.417 464.149H183.406V464.15ZM175.61 196.739L184.232 462.433L455.678 459.066L287.269 164.968L175.612 196.741L175.61 196.739Z" fill="#D1DEF0"/>
<path d="M187.6 279.156C186.489 275.678 184.13 272.949 181.178 271.295L186.4 233.344L176.555 231.989L171.341 269.875C170.96 269.962 170.579 270.063 170.201 270.182C162.918 272.51 158.902 280.3 161.229 287.58C163.557 294.863 171.346 298.878 178.626 296.552C185.909 294.224 189.925 286.435 187.597 279.154L187.6 279.156Z" fill="#7A8593"/>
<path d="M174.426 298.066C168.203 298.066 162.411 294.079 160.419 287.843C157.953 280.126 162.225 271.838 169.944 269.372C170.147 269.307 170.357 269.246 170.577 269.188L175.713 231.875C175.778 231.407 176.208 231.081 176.675 231.146L186.521 232.501C186.745 232.532 186.948 232.651 187.084 232.83C187.221 233.011 187.281 233.238 187.25 233.462L182.104 270.848C185.11 272.69 187.34 275.528 188.417 278.897C190.883 286.614 186.612 294.902 178.892 297.368C177.45 297.831 175.944 298.066 174.429 298.066H174.426ZM177.285 232.952L172.187 269.993C172.163 270.165 172.088 270.325 171.971 270.453C171.854 270.581 171.701 270.67 171.531 270.708C171.137 270.799 170.787 270.892 170.461 270.997C163.64 273.176 159.863 280.501 162.044 287.323C163.805 292.833 168.925 296.358 174.424 296.358C175.732 296.358 177.059 296.158 178.37 295.74C185.192 293.56 188.968 286.235 186.787 279.414C185.782 276.27 183.642 273.652 180.761 272.038C180.454 271.867 180.285 271.524 180.333 271.177L185.439 234.071L177.285 232.948V232.952Z" fill="#535A63"/>
<path d="M347.563 228.033C345.235 220.751 337.446 216.735 330.165 219.061C329.786 219.182 329.419 219.32 329.058 219.47L302.838 191.63L295.604 198.443L321.867 226.331C320.42 229.39 320.082 232.982 321.193 236.46C323.521 243.743 331.31 247.758 338.591 245.432C345.873 243.104 349.889 235.315 347.563 228.035V228.033Z" fill="#7A8593"/>
<path d="M334.387 246.944C328.165 246.944 322.372 242.958 320.381 236.721C319.304 233.352 319.476 229.746 320.855 226.504L294.982 199.03C294.827 198.865 294.744 198.645 294.75 198.419C294.757 198.193 294.853 197.978 295.018 197.823L302.252 191.01C302.418 190.855 302.638 190.771 302.863 190.778C303.09 190.785 303.304 190.88 303.459 191.046L329.283 218.465C329.496 218.385 329.702 218.313 329.906 218.248C337.623 215.782 345.911 220.054 348.377 227.773C350.843 235.493 346.571 243.779 338.852 246.245C337.409 246.707 335.904 246.943 334.389 246.943L334.387 246.944ZM296.808 198.482L322.487 225.749C322.727 226.005 322.787 226.382 322.637 226.7C321.225 229.685 321 233.061 322.004 236.204C324.183 243.026 331.508 246.803 338.33 244.622C345.151 242.442 348.926 235.117 346.747 228.296C344.568 221.474 337.243 217.697 330.421 219.878C330.093 219.982 329.754 220.109 329.382 220.264C329.054 220.401 328.677 220.319 328.433 220.061L302.799 192.841L296.806 198.484L296.808 198.482Z" fill="#535A63"/>
<path d="M247.169 235.521C300.656 218.451 337.846 185.282 330.235 161.435C322.625 137.588 273.096 132.095 219.609 149.164C166.122 166.234 128.931 199.404 136.542 223.251C144.152 247.097 193.682 252.591 247.169 235.521Z" fill="#7A8593"/>
<path d="M188.403 246.202C183.626 246.202 179.019 245.961 174.625 245.477C164.352 244.342 155.788 241.922 149.17 238.285C142.222 234.467 137.718 229.467 135.788 223.423C133.856 217.38 134.624 210.695 138.071 203.556C141.355 196.755 146.929 189.817 154.638 182.934C170.409 168.856 193.4 156.532 219.377 148.229C245.354 139.928 271.232 136.634 292.245 138.957C302.517 140.092 311.081 142.512 317.7 146.149C324.647 149.967 329.15 154.967 331.082 161.01C333.014 167.054 332.246 173.739 328.798 180.878C325.514 187.679 319.94 194.616 312.231 201.499C296.46 215.578 273.47 227.902 247.492 236.204C226.949 242.77 206.464 246.202 188.403 246.204V246.202ZM278.457 139.938C260.576 139.938 240.277 143.343 219.897 149.857C194.144 158.089 171.372 170.288 155.775 184.209C148.233 190.942 142.794 197.7 139.607 204.298C136.358 211.031 135.619 217.291 137.412 222.904C139.206 228.518 143.439 233.189 149.991 236.79C156.413 240.318 164.764 242.669 174.812 243.78C179.149 244.26 183.697 244.497 188.413 244.497C206.294 244.497 226.593 241.092 246.972 234.578C272.726 226.347 295.498 214.147 311.095 200.226C318.637 193.493 324.076 186.735 327.262 180.137C330.512 173.404 331.251 167.144 329.457 161.531C327.663 155.918 323.431 151.247 316.879 147.646C310.457 144.118 302.106 141.766 292.057 140.655C287.72 140.175 283.172 139.938 278.457 139.938Z" fill="#535A63"/>
<path d="M411.972 103.564L36.5753 223.536L29.293 225.864L31.9178 234.08C37.2546 250.781 128.879 236.419 236.563 202.006C344.246 167.591 427.216 126.155 421.879 109.454L419.254 101.238L411.972 103.566V103.564Z" fill="#9CA9BA"/>
<path d="M55.6488 241.9C54.0138 241.9 52.4539 241.869 50.9691 241.806C39.2153 241.311 32.5337 238.799 31.1087 234.339L28.4838 226.123C28.4497 226.016 28.437 225.904 28.4463 225.793C28.4557 225.681 28.4869 225.572 28.5383 225.473C28.5896 225.373 28.6601 225.285 28.7456 225.212C28.8311 225.14 28.9301 225.085 29.0368 225.051L418.998 100.425C419.447 100.282 419.927 100.53 420.07 100.978L422.695 109.194C424.12 113.654 420.133 119.576 410.845 126.795C402.131 133.569 389.058 141.326 371.988 149.851C336.948 167.349 288.947 186.162 236.825 202.819C184.704 219.476 134.69 231.989 95.9961 238.054C79.6872 240.611 66.1465 241.9 55.6505 241.9H55.6488ZM30.368 226.417L32.7334 233.819C33.9008 237.473 40.2308 239.643 51.0408 240.099C61.9567 240.558 76.9924 239.304 95.7299 236.367C134.34 230.315 184.263 217.824 236.305 201.192C288.346 184.561 336.261 165.784 371.225 148.323C388.195 139.848 401.172 132.152 409.797 125.447C418.339 118.806 422.237 113.367 421.07 109.713L418.705 102.311L412.236 104.378L30.3663 226.417H30.368Z" fill="#535A63"/>
<path d="M233.889 193.911C341.588 159.54 424.574 118.137 419.244 101.434C413.913 84.7314 322.285 99.0544 214.586 133.425C106.887 167.797 23.9013 209.2 29.2318 225.903C34.5623 242.605 126.191 228.282 233.889 193.911Z" fill="#BECEE2"/>
<path d="M53.0211 233.684C51.3861 233.684 49.8262 233.653 48.3414 233.59C36.5876 233.095 29.906 230.583 28.4809 226.123C27.0558 221.664 31.0426 215.743 40.3303 208.522C49.0445 201.749 62.1176 193.992 79.1877 185.467C114.227 167.967 162.229 149.156 214.351 132.499C266.472 115.842 316.486 103.328 355.181 97.263C374.031 94.3088 389.18 93.0458 400.207 93.5117C411.96 94.0067 418.642 96.5189 420.067 100.978C421.492 105.438 417.505 111.358 408.218 118.579C399.503 125.353 386.43 133.11 369.36 141.635C334.321 159.135 286.319 177.946 234.197 194.603C182.076 211.26 132.062 223.773 93.3667 229.839C77.0578 232.395 63.5171 233.684 53.0211 233.684ZM395.517 95.1245C385.114 95.1245 371.668 96.408 355.444 98.9492C316.834 105.001 266.911 117.492 214.869 134.124C162.828 150.755 114.913 169.532 79.9489 186.993C62.9795 195.468 50.002 203.163 41.3765 209.869C32.8346 216.509 28.9366 221.949 30.104 225.603C31.2713 229.257 37.6013 231.427 48.4114 231.883C59.3272 232.344 74.3629 231.088 93.1004 228.151C131.71 222.099 181.634 209.608 233.675 192.976C285.717 176.345 333.631 157.568 368.596 140.107C385.565 131.632 398.543 123.936 407.168 117.231C415.71 110.59 419.608 105.151 418.441 101.497C417.273 97.8433 410.943 95.6724 400.133 95.2167C398.669 95.1553 397.129 95.1245 395.517 95.1245Z" fill="#535A63"/>
<path d="M87.084 213.332C85.9252 213.332 84.8159 213.313 83.7509 213.272C73.9564 212.91 68.6196 210.93 67.4335 207.22C66.2473 203.51 69.4474 198.803 77.2161 192.828C84.3551 187.337 95.0525 181.042 109.013 174.111C137.658 159.893 176.88 144.568 219.451 130.963C262.022 117.357 302.861 107.095 334.445 102.066C349.836 99.6148 362.204 98.5396 371.203 98.8724C380.998 99.2342 386.334 101.214 387.521 104.924C388.707 108.635 385.507 113.342 377.738 119.317C370.599 124.807 359.902 131.103 345.941 138.034C317.296 152.252 278.074 167.576 235.503 181.182C192.932 194.787 152.093 205.049 120.509 210.079C106.938 212.239 95.7181 213.33 87.084 213.33V213.332ZM367.863 100.523C359.325 100.523 348.197 101.606 334.715 103.753C303.215 108.769 262.465 119.011 219.974 132.591C177.481 146.171 138.345 161.459 109.774 175.642C95.9126 182.521 85.3108 188.759 78.2589 194.183C73.4256 197.9 67.9062 203.09 69.0599 206.703C70.2154 210.316 77.7213 211.343 83.8141 211.569C92.7024 211.896 104.96 210.83 120.241 208.396C151.741 203.38 192.491 193.138 234.982 179.558C277.475 165.979 316.61 150.69 345.182 136.508C359.043 129.628 369.645 123.39 376.697 117.967C381.53 114.249 387.05 109.059 385.896 105.446C384.74 101.833 377.234 100.806 371.142 100.581C370.095 100.542 369.003 100.523 367.863 100.523Z" fill="#535A63"/>
<path d="M331.555 127.795C265.425 168.501 193.619 191.449 116.14 196.639C112.242 196.9 108.991 193.693 109.182 189.792L110.761 157.684C113.085 110.392 144.51 69.5074 189.612 55.0929C234.714 40.6784 284.025 55.7619 313.345 92.9399L333.252 118.182C335.672 121.25 334.882 125.747 331.555 127.795Z" fill="white"/>
<path d="M115.705 197.507C113.78 197.507 111.918 196.751 110.534 195.391C109.79 194.659 109.208 193.778 108.828 192.806C108.448 191.834 108.278 190.792 108.329 189.749L109.908 157.641C110.485 145.915 112.843 134.405 116.919 123.431C120.907 112.693 126.476 102.636 133.468 93.5373C140.461 84.4408 148.746 76.4724 158.097 69.8539C167.653 63.0921 178.168 57.8509 189.351 54.2772C200.535 50.7034 212.141 48.8739 223.847 48.8414C235.303 48.8073 246.673 50.4952 257.645 53.8505C268.618 57.2058 278.986 62.1705 288.464 68.6064C298.148 75.1821 306.745 83.1898 314.015 92.4092L333.922 117.651C334.567 118.471 335.032 119.418 335.287 120.43C335.541 121.443 335.578 122.497 335.396 123.525C335.214 124.55 334.818 125.524 334.233 126.385C333.648 127.246 332.887 127.973 332.002 128.519C299.032 148.813 264.163 164.903 228.362 176.345C192.562 187.786 154.824 194.9 116.195 197.487C116.031 197.497 115.868 197.504 115.704 197.504L115.705 197.507ZM224.167 50.5498H223.852C212.322 50.5823 200.889 52.3845 189.872 55.9053C178.856 59.4262 168.496 64.5889 159.084 71.25C149.873 77.7695 141.71 85.6184 134.822 94.5801C127.934 103.542 122.448 113.449 118.52 124.029C114.504 134.837 112.181 146.176 111.613 157.727L110.034 189.834C109.954 191.456 110.573 193.038 111.731 194.174C112.301 194.735 112.984 195.168 113.734 195.447C114.484 195.725 115.284 195.841 116.083 195.789C154.573 193.21 192.174 186.122 227.844 174.723C263.513 163.325 298.256 147.291 331.107 127.07C331.788 126.65 332.372 126.091 332.822 125.43C333.272 124.768 333.577 124.019 333.717 123.232C334 121.634 333.587 119.986 332.582 118.712L312.675 93.4708C305.512 84.3896 297.044 76.4997 287.505 70.0229C278.17 63.6843 267.955 58.793 257.147 55.4872C246.439 52.2121 235.346 50.5515 224.167 50.5515V50.5498Z" fill="#535A63"/>
<path d="M318.914 100C254.704 138.873 185.171 161.094 110.318 166.665L109.182 189.792C108.991 193.695 112.242 196.9 116.14 196.639C193.621 191.449 265.425 168.501 331.555 127.795C334.883 125.747 335.672 121.248 333.252 118.182L318.914 100Z" fill="#7A8593"/>
<path d="M115.705 197.507C113.78 197.507 111.918 196.751 110.534 195.391C109.79 194.659 109.208 193.778 108.828 192.806C108.448 191.834 108.278 190.792 108.329 189.749L109.466 166.622C109.476 166.414 109.562 166.217 109.707 166.068C109.852 165.919 110.047 165.829 110.254 165.813C147.439 163.045 183.807 156.046 218.346 145.007C252.886 133.968 286.572 118.581 318.471 99.27C318.84 99.0464 319.316 99.1335 319.584 99.4714L333.922 117.653C335.227 119.308 335.765 121.45 335.396 123.527C335.214 124.551 334.818 125.526 334.233 126.387C333.648 127.247 332.887 127.974 332.002 128.521C299.032 148.815 264.163 164.905 228.362 176.346C192.562 187.788 154.824 194.901 116.195 197.489C116.031 197.499 115.868 197.506 115.704 197.506L115.705 197.507ZM111.133 167.46L110.032 189.834C109.952 191.456 110.572 193.038 111.729 194.174C112.3 194.735 112.982 195.168 113.732 195.446C114.482 195.725 115.283 195.841 116.081 195.789C154.571 193.21 192.173 186.122 227.842 174.723C263.511 163.325 298.254 147.29 331.106 127.07C331.786 126.65 332.371 126.091 332.82 125.43C333.27 124.768 333.575 124.019 333.715 123.232C333.998 121.634 333.585 119.986 332.58 118.712L318.708 101.123C286.888 120.32 253.299 135.632 218.865 146.637C184.431 157.641 148.188 164.647 111.132 167.463L111.133 167.46Z" fill="#535A63"/>
<path d="M359.931 49.7579V49.6965C359.927 49.7067 359.924 49.7169 359.922 49.7272C359.919 49.7169 359.915 49.7067 359.913 49.6965V49.7579C359.11 52.6746 357.251 54.7601 354.338 56.0145C357.251 57.2689 359.11 59.3545 359.913 62.2712V62.3326C359.917 62.3224 359.92 62.3121 359.922 62.3019C359.925 62.3121 359.929 62.3224 359.931 62.3326V62.2712C360.734 59.3545 362.593 57.2689 365.506 56.0145C362.593 54.7601 360.734 52.6746 359.931 49.7579ZM457.146 113.51V113.449C457.142 113.459 457.139 113.469 457.137 113.48C457.134 113.469 457.13 113.459 457.129 113.449V113.51C456.325 116.427 454.466 118.513 451.553 119.767C454.466 121.021 456.325 123.107 457.129 126.024V126.085C457.132 126.075 457.135 126.065 457.137 126.054C457.141 126.065 457.144 126.075 457.146 126.085V126.024C457.95 123.107 459.808 121.021 462.721 119.767C459.808 118.513 457.95 116.427 457.146 113.51ZM91.349 282.858V282.796C91.3456 282.807 91.3422 282.817 91.3405 282.827C91.337 282.817 91.3336 282.807 91.3319 282.796V282.858C90.5281 285.775 88.6695 287.86 85.7562 289.114C88.6695 290.369 90.5281 292.454 91.3319 295.371V295.433C91.3353 295.422 91.3388 295.412 91.3405 295.402C91.3439 295.412 91.3473 295.422 91.349 295.433V295.371C92.1528 292.454 94.0114 290.369 96.9247 289.114C94.0114 287.86 92.1528 285.775 91.349 282.858ZM123.113 27.7146V27.6532C123.11 27.6634 123.107 27.6736 123.105 27.6839C123.102 27.6736 123.098 27.6634 123.096 27.6532V27.7146C122.293 30.6313 120.434 32.7168 117.521 33.9712C120.434 35.2256 122.293 37.3112 123.096 40.2279V40.2893C123.1 40.2791 123.103 40.2688 123.105 40.2586C123.108 40.2688 123.112 40.2791 123.113 40.2893V40.2279C123.917 37.3112 125.776 35.2256 128.689 33.9712C125.776 32.7168 123.917 30.6313 123.113 27.7146ZM52.8056 149.816V149.755C52.8022 149.765 52.7988 149.775 52.7971 149.786C52.7937 149.775 52.7903 149.765 52.7886 149.755V149.816C51.9847 152.733 50.1262 154.819 47.2129 156.073C50.1262 157.327 51.9847 159.413 52.7886 162.33V162.391C52.792 162.381 52.7954 162.371 52.7971 162.36C52.8005 162.371 52.8039 162.381 52.8056 162.391V162.33C53.6095 159.413 55.468 157.327 58.3813 156.073C55.468 154.819 53.6095 152.733 52.8056 149.816ZM71.8776 61.8735V61.7489C71.8725 61.7711 71.8657 61.7899 71.8606 61.8121C71.8554 61.7899 71.8486 61.7711 71.8435 61.7489V61.8735C70.2358 67.7052 66.5187 71.878 60.6921 74.3868C66.5187 76.8956 70.2341 81.0684 71.8435 86.9001V87.0247C71.8486 87.0025 71.8554 86.9837 71.8606 86.9615C71.8657 86.9837 71.8725 87.0025 71.8776 87.0247V86.9001C73.4853 81.0684 77.2024 76.8956 83.029 74.3868C77.2024 71.878 73.487 67.7052 71.8776 61.8735ZM433.309 21.458V21.3334C433.304 21.3556 433.297 21.3743 433.292 21.3965C433.287 21.3743 433.28 21.3556 433.275 21.3334V21.458C431.667 27.2896 427.95 31.4624 422.123 33.9712C427.95 36.48 431.665 40.6528 433.275 46.4845V46.6091C433.28 46.5869 433.287 46.5681 433.292 46.546C433.297 46.5681 433.304 46.5869 433.309 46.6091V46.4845C434.916 40.6528 438.633 36.48 444.46 33.9712C438.633 31.4624 434.918 27.2896 433.309 21.458ZM412.835 198.77V198.646C412.83 198.668 412.824 198.687 412.818 198.709C412.813 198.687 412.807 198.668 412.801 198.646V198.77C411.194 204.602 407.477 208.775 401.65 211.284C407.477 213.792 411.192 217.965 412.801 223.797V223.922C412.807 223.899 412.813 223.881 412.818 223.858C412.824 223.881 412.83 223.899 412.835 223.922V223.797C414.443 217.965 418.16 213.792 423.987 211.284C418.16 208.775 414.445 204.602 412.835 198.77Z" fill="#9CA9BA"/>
<path d="M320.74 489.934C397.058 489.934 458.927 478.008 458.927 463.297C458.927 448.585 397.058 436.659 320.74 436.659C244.421 436.659 182.553 448.585 182.553 463.297C182.553 478.008 244.421 489.934 320.74 489.934Z" fill="#D1DEF0"/>
<path d="M53.3603 435.483L47.2129 416.246L71.1267 339.157L97.7524 330.648L117.444 392.264L128.875 388.61L135.468 409.242L124.037 412.896L129.829 431.019L105.99 438.637L100.198 420.514L53.3586 435.483H53.3603ZM83.9625 363.938L71.8589 406.832L95.2795 399.346L83.9625 363.938ZM401.648 303.893L403.7 283.8L456.427 222.689L484.236 225.529L477.665 289.881L489.603 291.099L487.403 312.648L475.465 311.429L473.533 330.356L448.636 327.815L450.568 308.888L401.648 303.893ZM458.291 250.537L430.056 285.02L454.516 287.517L458.291 250.537ZM263.576 286.263C273.546 280.265 285.071 280.33 298.149 286.454C311.226 292.577 318.653 301.387 320.435 312.887C322.215 324.384 319.546 337.736 312.431 352.932C305.232 368.306 296.646 378.991 286.674 384.988C276.7 390.984 265.176 390.921 252.1 384.797C239.022 378.674 231.593 369.862 229.814 358.364C228.033 346.865 230.744 333.428 237.943 318.054C245.058 302.858 253.602 292.258 263.576 286.263ZM296.898 320.531C297.209 314.805 294.316 310.514 288.22 307.659C282.124 304.804 276.973 305.33 272.776 309.234C268.576 313.141 264.388 319.555 260.21 328.479C257.396 334.488 255.421 339.623 254.288 343.887C253.153 348.15 253.098 352.003 254.127 355.446C255.153 358.89 257.788 361.603 262.029 363.59C266.27 365.577 270.04 365.862 273.345 364.445C276.645 363.029 279.57 360.52 282.12 356.919C284.667 353.319 287.348 348.515 290.162 342.504C294.34 333.58 296.584 326.255 296.897 320.529L296.898 320.531Z" fill="#ADB9C8"/>
</svg>
