<svg width="19" height="19" viewBox="0 0 19 19" fill="none" xmlns="http://www.w3.org/2000/svg">
<path d="M3.44589 7.45773C3.44592 4.13113 6.15814 1.4375 9.5 1.4375C12.8418 1.4375 15.5541 4.13116 15.5541 7.45777C15.5541 8.2316 15.6062 8.81555 15.963 9.34048C16.0126 9.4124 16.0784 9.50247 16.1503 9.60087C16.2753 9.77187 16.4185 9.968 16.5273 10.1379C16.7191 10.4377 16.9065 10.7993 16.971 11.2206C17.1812 12.5953 16.212 13.4852 15.2469 13.8841C11.8473 15.2886 7.15262 15.2886 3.75309 13.8841C2.78792 13.4852 1.81877 12.5953 2.02901 11.2206C2.09344 10.7993 2.28089 10.4377 2.47275 10.1379C2.58146 9.968 2.72477 9.7718 2.84968 9.60087C2.92159 9.50247 2.98743 9.41232 3.03703 9.3404C3.39378 8.81547 3.44582 8.23152 3.44589 7.45773Z" fill="#D6AE29"/>
<path fill-rule="evenodd" clip-rule="evenodd" d="M6.30756 13.8379C6.70788 13.7314 7.11864 13.9697 7.22503 14.3701C7.47994 15.3293 8.39053 16.0627 9.50015 16.0627C10.6099 16.0627 11.5204 15.3293 11.7754 14.3701C11.8817 13.9697 12.2925 13.7314 12.6928 13.8379C13.0931 13.9442 13.3315 14.355 13.225 14.7553C12.7922 16.384 11.2773 17.5627 9.50015 17.5627C7.72313 17.5627 6.20815 16.384 5.77534 14.7553C5.66896 14.355 5.90724 13.9442 6.30756 13.8379Z" fill="#D6AE29"/>
</svg>
