<svg width="19" height="19" viewBox="0 0 19 19" fill="none" xmlns="http://www.w3.org/2000/svg">
<g clip-path="url(#clip0_5471_22457)">
<path d="M10.3494 14.9169C10.3494 13.697 10.8243 12.5498 11.6871 11.6871C12.5498 10.8243 13.6966 10.3494 14.9169 10.3494C15.9185 10.3494 16.8709 10.67 17.6573 11.262C17.7009 10.625 17.728 9.91238 17.729 9.11469C17.7269 7.10832 17.5585 5.63914 17.3789 4.55949C17.0646 2.78059 15.4488 1.1648 13.6699 0.850508C12.5902 0.670508 11.1211 0.502109 9.11434 0.5C7.10797 0.502109 5.63844 0.670508 4.55879 0.850156C2.78023 1.16445 1.16445 2.78023 0.850156 4.55914C0.670508 5.63879 0.502461 7.10797 0.5 9.11434C0.502461 11.1207 0.670508 12.5902 0.850156 13.6699C1.16445 15.4488 2.78023 17.0646 4.55914 17.3789C5.63879 17.5585 7.10797 17.7266 9.11469 17.729C9.91238 17.728 10.625 17.7009 11.262 17.6573C10.67 16.8709 10.3494 15.9188 10.3494 14.9169ZM4.85797 4.6632H13.3711C13.9216 4.6632 14.3681 5.10969 14.3681 5.66023C14.3681 6.21078 13.9216 6.65727 13.3711 6.65727H4.85797C4.30742 6.65727 3.86094 6.21078 3.86094 5.66023C3.86094 5.10969 4.30742 4.6632 4.85797 4.6632ZM4.85797 10.8208C4.30742 10.8208 3.86094 10.3743 3.86094 9.82379C3.86094 9.27324 4.30742 8.82676 4.85797 8.82676H9.85543C10.406 8.82676 10.8525 9.27324 10.8525 9.82379C10.8525 10.3743 10.406 10.8208 9.85543 10.8208H4.85797Z" fill="#D6AE29"/>
<path d="M14.9171 11.332C12.9382 11.332 11.334 12.9362 11.334 14.9152C11.334 16.8941 12.9382 18.4983 14.9171 18.4983C16.8961 18.4983 18.5002 16.8941 18.5002 14.9152C18.5002 12.9362 16.8961 11.332 14.9171 11.332ZM15.5851 16.693C15.5851 17.0618 15.2859 17.361 14.9171 17.361C14.5483 17.361 14.2491 17.0618 14.2491 16.693V14.9306C14.2491 14.5618 14.5483 14.2627 14.9171 14.2627C15.2859 14.2627 15.5851 14.5618 15.5851 14.9306V16.693ZM15.5577 13.5008C15.533 13.64 15.4065 13.7666 15.2673 13.7912C15.1829 13.8053 15.0676 13.8183 14.9104 13.8186C14.7533 13.8186 14.6383 13.8053 14.5536 13.7912C14.4144 13.7666 14.2878 13.64 14.2632 13.5008C14.2491 13.4164 14.2361 13.3011 14.2358 13.144C14.2358 12.9868 14.2491 12.8719 14.2632 12.7871C14.2878 12.6479 14.4144 12.5214 14.5536 12.4968C14.638 12.4827 14.7533 12.4697 14.9104 12.4693C15.0676 12.4693 15.1825 12.4827 15.2673 12.4968C15.4065 12.5214 15.533 12.6479 15.5577 12.7871C15.5717 12.8715 15.5847 12.9868 15.5851 13.144C15.5851 13.3011 15.5717 13.4161 15.5577 13.5008Z" fill="#D6AE29"/>
</g>
<defs>
<clipPath id="clip0_5471_22457">
<rect width="18" height="18" fill="white" transform="translate(0.5 0.5)"/>
</clipPath>
</defs>
</svg>
