<svg width="19" height="19" viewBox="0 0 19 19" fill="none" xmlns="http://www.w3.org/2000/svg">
<path fill-rule="evenodd" clip-rule="evenodd" d="M7.81231 17.3352C8.01807 17.4833 8.23857 17.5386 8.44827 17.5625H10.5517C10.7614 17.5386 10.9819 17.4833 11.1877 17.3352C11.3934 17.1871 11.5155 16.9959 11.6043 16.8052C11.6841 16.6338 12.0864 15.4334 12.0864 15.4334C12.0864 15.4334 12.2828 15.1008 12.4442 14.9949C12.7611 14.7871 13.0808 14.742 13.2891 14.7871C13.2891 14.7871 14.7002 15.1844 14.8995 15.216C15.1211 15.2511 15.3636 15.2555 15.6143 15.1539C15.8649 15.0523 16.0355 14.8804 16.1697 14.7013L17.2487 12.8395C17.3331 12.6451 17.3954 12.4256 17.3688 12.1725C17.3421 11.9193 17.2353 11.7176 17.1122 11.5449C17.0016 11.3899 16.0694 10.3522 15.9081 10.1735C15.9081 10.1735 15.7131 9.87447 15.7131 9.49985C15.7131 9.06132 15.9081 8.82643 15.9081 8.82643C15.9081 8.82643 17.0016 7.60999 17.1122 7.45498C17.2353 7.28233 17.3421 7.08057 17.3688 6.82745C17.3954 6.57435 17.3331 6.35489 17.2487 6.1605C17.1728 5.98592 16.1697 4.29865 16.1697 4.29865C16.0355 4.11946 15.8649 3.94764 15.6143 3.84604C15.3636 3.7444 15.1211 3.74887 14.8995 3.78395C14.7002 3.81548 13.5365 4.14273 13.2891 4.21276C13.2891 4.21276 12.892 4.29865 12.4442 4.00497C12.2828 3.89913 12.1578 3.7461 12.0863 3.56654C12.0863 3.56654 11.6841 2.36622 11.6043 2.19486C11.5155 2.00407 11.3934 1.81285 11.1877 1.66481C10.9819 1.5167 10.7614 1.46141 10.5517 1.4375H8.44827C8.23857 1.46141 8.01807 1.5167 7.81231 1.66481C7.60663 1.81285 7.48455 2.00407 7.39568 2.19486C7.31585 2.36622 6.91368 3.56654 6.91368 3.56654C6.8422 3.7461 6.71717 3.89913 6.55578 4.00497C6.10795 4.29865 5.71095 4.21276 5.71095 4.21276C5.46347 4.14273 4.29981 3.81548 4.10052 3.78395C3.87888 3.74887 3.63642 3.7444 3.38569 3.84604C3.13506 3.94764 2.96451 4.11946 2.83024 4.29865C2.83024 4.29865 1.82718 5.98592 1.75132 6.1605C1.66687 6.35489 1.60457 6.57435 1.63125 6.82745C1.65792 7.08057 1.76464 7.28233 1.88782 7.45498C1.99843 7.60999 3.09189 8.82643 3.09189 8.82643C3.09189 8.82643 3.28693 9.06132 3.28693 9.49985C3.28693 9.87447 3.09191 10.1735 3.09191 10.1735C2.93062 10.3522 1.99843 11.3899 1.88783 11.5449C1.76464 11.7176 1.65792 11.9193 1.63125 12.1725C1.60457 12.4256 1.66687 12.6451 1.75133 12.8395L2.83023 14.7013C2.96451 14.8804 3.13506 15.0523 3.38571 15.1539C3.63643 15.2555 3.87889 15.2511 4.10053 15.216C4.29982 15.1844 5.71092 14.7871 5.71092 14.7871C5.91922 14.742 6.23895 14.7871 6.55582 14.9949C6.71718 15.1008 6.91365 15.4334 6.91365 15.4334C6.91365 15.4334 7.31585 16.6338 7.39568 16.8052C7.48455 16.9959 7.60663 17.1871 7.81231 17.3352ZM9.51462 12.125C10.9644 12.125 12.1396 10.9497 12.1396 9.5C12.1396 8.05025 10.9644 6.875 9.51462 6.875C8.06487 6.875 6.88965 8.05025 6.88965 9.5C6.88965 10.9497 8.06487 12.125 9.51462 12.125Z" fill="#D6AE29"/>
</svg>
