<svg width="19" height="19" viewBox="0 0 19 19" fill="none" xmlns="http://www.w3.org/2000/svg">
<path d="M4.28213 12.6875C4.78507 12.6875 5.20922 12.6875 5.54707 12.7253C5.89932 12.7648 6.24278 12.8526 6.5306 13.0925C6.83325 13.3447 6.95951 13.6681 7.01414 14.0068C7.06261 14.3072 7.06256 14.6775 7.06251 15.0845L7.0625 15.125L7.06251 15.1655C7.06256 15.5725 7.06261 15.9429 7.01414 16.2432C6.95951 16.5819 6.83325 16.9054 6.5306 17.1576C6.24278 17.3974 5.89932 17.4852 5.54707 17.5247C5.20922 17.5625 4.78505 17.5625 4.2821 17.5625H4.21791C3.71495 17.5625 3.2908 17.5625 2.95295 17.5247C2.60069 17.4852 2.25724 17.3974 1.96941 17.1576C1.66676 16.9054 1.54051 16.5819 1.48588 16.2432C1.43741 15.9429 1.43745 15.5725 1.4375 15.1655V15.125V15.0845C1.43745 14.6775 1.43741 14.3072 1.48588 14.0068C1.54051 13.6681 1.66676 13.3447 1.96941 13.0925C2.25724 12.8526 2.60069 12.7648 2.95295 12.7253C3.2908 12.6875 3.71495 12.6875 4.21789 12.6875H4.28213Z" fill="#D6AE29"/>
<path d="M14.7821 12.6875C15.2851 12.6875 15.7092 12.6875 16.0471 12.7253C16.3993 12.7648 16.7428 12.8526 17.0306 13.0925C17.3332 13.3447 17.4595 13.6681 17.5141 14.0068C17.5626 14.3072 17.5626 14.6775 17.5625 15.0845V15.125V15.1655C17.5626 15.5725 17.5626 15.9429 17.5141 16.2432C17.4595 16.5819 17.3332 16.9054 17.0306 17.1576C16.7428 17.3974 16.3993 17.4852 16.0471 17.5247C15.7092 17.5625 15.2851 17.5625 14.7821 17.5625H14.7179C14.215 17.5625 13.7908 17.5625 13.453 17.5247C13.1007 17.4852 12.7573 17.3974 12.4694 17.1576C12.1668 16.9054 12.0405 16.5819 11.9859 16.2432C11.9374 15.9429 11.9374 15.5725 11.9375 15.1655V15.125V15.0845C11.9374 14.6775 11.9374 14.3072 11.9859 14.0068C12.0405 13.6681 12.1668 13.3447 12.4694 13.0925C12.7573 12.8526 13.1007 12.7648 13.453 12.7253C13.7908 12.6875 14.215 12.6875 14.7179 12.6875H14.7821Z" fill="#D6AE29"/>
<path fill-rule="evenodd" clip-rule="evenodd" d="M5.73489 10.3484C6.2202 10.2741 6.80158 10.25 7.48077 10.25H11.5192C12.1984 10.25 12.7798 10.2741 13.2651 10.3484C13.7475 10.4222 14.1956 10.5538 14.5656 10.8115C15.3751 11.3752 15.5 12.3043 15.5 13.25C15.5 13.6642 15.1642 14 14.75 14C14.3358 14 14 13.6642 14 13.25C14 12.3342 13.846 12.1383 13.7083 12.0424C13.6047 11.9702 13.4122 11.8884 13.0383 11.8312C12.6672 11.7744 12.1765 11.75 11.5192 11.75H7.48077C6.8235 11.75 6.3328 11.7744 5.96175 11.8312C5.5878 11.8884 5.39527 11.9702 5.29166 12.0424C5.15394 12.1383 5 12.3342 5 13.25C5 13.6642 4.66421 14 4.25 14C3.83579 14 3.5 13.6642 3.5 13.25C3.5 12.3043 3.62498 11.3752 4.43442 10.8115C4.80438 10.5538 5.25249 10.4222 5.73489 10.3484Z" fill="#D6AE29"/>
<path fill-rule="evenodd" clip-rule="evenodd" d="M9.50002 1.4375C7.32538 1.4375 5.5625 3.20038 5.5625 5.375C5.5625 7.54962 7.32538 9.3125 9.50002 9.3125C11.6746 9.3125 13.4375 7.54962 13.4375 5.375C13.4375 3.20038 11.6746 1.4375 9.50002 1.4375ZM10.8741 4.66611C11.1039 4.32146 11.0107 3.85581 10.6661 3.62604C10.3215 3.39627 9.85582 3.48941 9.62602 3.83406L8.87602 4.95906C8.64629 5.3037 8.73944 5.76935 9.08407 5.99912C9.42869 6.22888 9.89436 6.13576 10.1241 5.79111L10.8741 4.66611Z" fill="#D6AE29"/>
</svg>
