<svg width="19" height="19" viewBox="0 0 19 19" fill="none" xmlns="http://www.w3.org/2000/svg">
<path d="M13.8547 11.6279C13.942 11.6798 14.0497 11.7406 14.1717 11.8095C14.7063 12.1111 15.5144 12.567 16.0681 13.1089C16.4144 13.4478 16.7433 13.8944 16.8032 14.4416C16.8668 15.0235 16.6129 15.5695 16.1037 16.0547C15.225 16.8917 14.1707 17.5625 12.8069 17.5625H6.19328C4.82955 17.5625 3.77521 16.8917 2.89663 16.0547C2.38736 15.5695 2.13352 15.0235 2.19712 14.4416C2.25693 13.8944 2.58592 13.4478 2.93217 13.1089C3.4858 12.567 4.29393 12.1111 4.82854 11.8095C4.95054 11.7406 5.0583 11.6798 5.14553 11.6279C7.81106 10.0407 11.1892 10.0407 13.8547 11.6279Z" fill="#D6AE29"/>
<path d="M5.5625 5.375C5.5625 3.20038 7.32538 1.4375 9.49999 1.4375C11.6746 1.4375 13.4375 3.20038 13.4375 5.375C13.4375 7.54962 11.6746 9.3125 9.49999 9.3125C7.32538 9.3125 5.5625 7.54962 5.5625 5.375Z" fill="#D6AE29"/>
</svg>
