<svg width="12" height="16" viewBox="0 0 12 16" fill="none" xmlns="http://www.w3.org/2000/svg">
<path fill-rule="evenodd" clip-rule="evenodd" d="M6.00054 4.87725C7.19474 4.87725 8.16282 3.90917 8.16282 2.71501C8.16282 1.52077 7.19474 0.552734 6.00054 0.552734C4.80638 0.552734 3.8383 1.52081 3.8383 2.71501C3.8383 3.90917 4.80638 4.87725 6.00054 4.87725ZM5.74158 13.8884V11.1774C5.74167 11.1713 5.74011 11.1653 5.73708 11.1601C5.73404 11.1548 5.72964 11.1505 5.72434 11.1475C5.71912 11.1444 5.71316 11.1427 5.70708 11.1427C5.701 11.1427 5.69504 11.1444 5.68982 11.1475L3.19654 12.587C3.15673 12.61 3.11149 12.6221 3.06548 12.6218C3.01948 12.6215 2.97438 12.6089 2.93486 12.5854L0.44438 11.1475C0.43916 11.1444 0.433197 11.1427 0.42712 11.1427C0.421044 11.1427 0.41508 11.1444 0.40986 11.1475C0.404561 11.1505 0.400159 11.1548 0.397119 11.1601C0.394078 11.1653 0.39251 11.1713 0.39258 11.1774V13.8884C0.39258 13.9011 0.39886 13.9119 0.40982 13.9183L3.04982 15.4425C3.05504 15.4456 3.061 15.4472 3.06708 15.4472C3.07316 15.4472 3.07912 15.4456 3.08434 15.4425L5.7243 13.9183C5.72961 13.9153 5.73403 13.911 5.73707 13.9057C5.74011 13.9004 5.74167 13.8945 5.74158 13.8884ZM3.08434 12.0553C3.07912 12.0584 3.07316 12.06 3.06708 12.06C3.061 12.06 3.05504 12.0584 3.04982 12.0553L0.7015 10.6995C0.69054 10.6931 0.68426 10.6823 0.68426 10.6696C0.68426 10.6569 0.69054 10.646 0.70154 10.6397L3.04986 9.28389C3.05508 9.28079 3.06105 9.27916 3.06712 9.27916C3.07319 9.27916 3.07916 9.28079 3.08438 9.28389L5.4327 10.6397C5.44366 10.6461 5.44998 10.6569 5.44998 10.6696C5.44998 10.6823 5.4437 10.6931 5.4327 10.6995L3.08434 12.0553ZM6.9655 10.9288L8.91662 12.0553C8.92184 12.0584 8.9278 12.06 8.93388 12.06C8.93996 12.06 8.94593 12.0584 8.95114 12.0553L11.2995 10.6995C11.3104 10.6931 11.3167 10.6823 11.3167 10.6696C11.3167 10.6569 11.3104 10.646 11.2995 10.6397L8.95114 9.28389C8.94592 9.28079 8.93996 9.27916 8.93388 9.27916C8.92781 9.27916 8.92184 9.28079 8.91662 9.28389L6.5683 10.6397C6.55734 10.6461 6.55106 10.6569 6.55106 10.6696C6.55106 10.6823 6.55734 10.6931 6.5683 10.6995L6.9655 10.9288ZM6.25942 13.2103V11.1774C6.25942 11.1647 6.2657 11.1538 6.27666 11.1475C6.28188 11.1444 6.28784 11.1427 6.29392 11.1427C6.3 11.1427 6.30596 11.1444 6.31118 11.1475L8.80446 12.587C8.84427 12.61 8.88951 12.6221 8.93552 12.6218C8.98152 12.6215 9.02662 12.6089 9.06614 12.5854L11.5566 11.1475C11.5618 11.1444 11.5678 11.1428 11.5739 11.1428C11.58 11.1428 11.5859 11.1444 11.5911 11.1475C11.6021 11.1538 11.6084 11.1647 11.6084 11.1774V13.8884C11.6085 13.8944 11.6069 13.9004 11.6039 13.9057C11.6008 13.911 11.5964 13.9153 11.5911 13.9183L8.95114 15.4425C8.94593 15.4456 8.93996 15.4472 8.93388 15.4472C8.9278 15.4472 8.92184 15.4456 8.91662 15.4425L6.27666 13.9183C6.27136 13.9153 6.26696 13.911 6.26392 13.9057C6.26089 13.9004 6.25933 13.8944 6.25942 13.8884V13.2103ZM6.00046 5.25237C3.63242 5.25237 1.68298 7.13501 1.5743 9.47742C1.57394 9.48361 1.57529 9.48979 1.5782 9.49527C1.58112 9.50075 1.58548 9.50533 1.59082 9.5085C1.6019 9.51526 1.61482 9.51541 1.62606 9.50893L3.04982 8.68694C3.05504 8.68383 3.06101 8.6822 3.06708 8.6822C3.07316 8.6822 3.07912 8.68383 3.08434 8.68694L5.98326 10.3606C5.98848 10.3637 5.99445 10.3654 6.00052 10.3654C6.0066 10.3654 6.01256 10.3637 6.01778 10.3606L8.91666 8.68694C8.92188 8.68383 8.92785 8.6822 8.93392 8.6822C8.94 8.6822 8.94596 8.68383 8.95118 8.68694L10.3749 9.50893C10.3803 9.51211 10.3864 9.51376 10.3926 9.51368C10.3988 9.5136 10.4049 9.51181 10.4102 9.5085C10.4155 9.50534 10.4199 9.50077 10.4228 9.49528C10.4257 9.4898 10.4271 9.48361 10.4267 9.47742C10.318 7.13501 8.36858 5.25237 6.00046 5.25237Z" fill="#D6AE29"/>
</svg>
