<svg width="19" height="19" viewBox="0 0 19 19" fill="none" xmlns="http://www.w3.org/2000/svg">
<path fill-rule="evenodd" clip-rule="evenodd" d="M4.64023 5.53473C5.91946 4.53606 7.57208 3.6875 9.5 3.6875C11.4279 3.6875 13.0805 4.53606 14.3598 5.53473C15.6402 6.53432 16.5865 7.71481 17.1159 8.45712L17.1558 8.51277C17.3457 8.77685 17.5625 9.07835 17.5625 9.5C17.5625 9.92165 17.3457 10.2232 17.1558 10.4872L17.1159 10.5429C16.5865 11.2852 15.6402 12.4657 14.3598 13.4653C13.0805 14.464 11.4279 15.3125 9.5 15.3125C7.57208 15.3125 5.91946 14.464 4.64023 13.4653C3.35985 12.4657 2.41344 11.2852 1.88406 10.5429L1.84414 10.4872C1.65428 10.2232 1.4375 9.92165 1.4375 9.5C1.4375 9.07835 1.65428 8.77685 1.84414 8.51277L1.88406 8.45712C2.41344 7.71481 3.35985 6.53432 4.64023 5.53473ZM6.875 9.5C6.875 10.9497 8.05025 12.125 9.5 12.125C10.9497 12.125 12.125 10.9497 12.125 9.5C12.125 8.05025 10.9497 6.875 9.5 6.875C8.05025 6.875 6.875 8.05025 6.875 9.5Z" fill="#D6AE29"/>
</svg>
