<svg width="20" height="20" viewBox="0 0 20 20" fill="none" xmlns="http://www.w3.org/2000/svg">
<g id="birthday-cake">
<path id="Vector" d="M11.25 3.7513C11.25 4.44166 10.6903 5.0013 10 5.0013C9.30967 5.0013 8.75 4.44166 8.75 3.7513C8.75 3.06094 10 1.66797 10 1.66797C10 1.66797 11.25 3.06094 11.25 3.7513Z" stroke="#777980" stroke-width="1.25" stroke-linejoin="round"/>
<path id="Vector_2" d="M10 5V7.5" stroke="#777980" stroke-width="1.25" stroke-linecap="round" stroke-linejoin="round"/>
<path id="Vector_3" d="M14.7226 11.6667C16.0266 11.6667 17.0837 10.7339 17.0837 9.58333C17.0837 8.43275 16.0266 7.5 14.7226 7.5H5.2781C3.9741 7.5 2.91699 8.43275 2.91699 9.58333C2.91699 10.7339 3.9741 11.6667 5.2781 11.6667C6.42039 11.6667 7.42045 10.9509 7.63922 10C7.85798 10.9509 8.85808 11.6667 10.0003 11.6667C11.1426 11.6667 12.1427 10.9509 12.3614 10C12.5802 10.9509 13.5802 11.6667 14.7226 11.6667Z" stroke="#777980" stroke-width="1.25" stroke-linejoin="round"/>
<path id="Vector_4" d="M4.16699 11.668L4.60107 13.8176C5.03809 15.982 5.25661 17.0641 5.99706 17.6994C6.73751 18.3346 7.78039 18.3346 9.86616 18.3346H10.1345C12.2202 18.3346 13.2632 18.3346 14.0036 17.6994C14.7441 17.0641 14.9626 15.982 15.3996 13.8176L15.8337 11.668" stroke="#777980" stroke-width="1.25" stroke-linecap="round" stroke-linejoin="round"/>
</g>
</svg>
