<svg width="20" height="21" viewBox="0 0 20 21" fill="none" xmlns="http://www.w3.org/2000/svg">
<g id="Phone">
<path id="Icon" d="M17.9995 14.4791V16.8877C18.0004 17.1113 17.9545 17.3327 17.8648 17.5375C17.775 17.7424 17.6434 17.9263 17.4783 18.0775C17.3132 18.2286 17.1183 18.3437 16.906 18.4154C16.6938 18.487 16.4689 18.5136 16.2457 18.4935C13.7702 18.225 11.3923 17.3808 9.30312 16.0286C7.35937 14.7959 5.71141 13.1512 4.47627 11.2113C3.11669 9.11679 2.27059 6.73206 2.00653 4.25036C1.98643 4.02834 2.01286 3.80457 2.08416 3.5933C2.15546 3.38203 2.27005 3.1879 2.42065 3.02325C2.57124 2.85861 2.75454 2.72706 2.95886 2.63699C3.16319 2.54691 3.38407 2.50029 3.60744 2.50008H6.02086C6.41128 2.49624 6.78977 2.63422 7.0858 2.8883C7.38182 3.14237 7.57517 3.49521 7.62981 3.88103C7.73168 4.65185 7.92059 5.4087 8.19295 6.13713C8.30118 6.4245 8.32461 6.73682 8.26045 7.03707C8.19629 7.33732 8.04723 7.61292 7.83093 7.83121L6.80925 8.85087C7.95446 10.8609 9.62206 12.5252 11.6361 13.6682L12.6578 12.6485C12.8765 12.4326 13.1527 12.2839 13.4535 12.2198C13.7544 12.1558 14.0673 12.1792 14.3552 12.2872C15.0851 12.559 15.8435 12.7476 16.6158 12.8492C17.0066 12.9042 17.3635 13.1007 17.6186 13.4012C17.8737 13.7017 18.0093 14.0853 17.9995 14.4791Z" stroke="#4A4C56" stroke-width="1.5" stroke-linecap="round" stroke-linejoin="round"/>
</g>
</svg>
