<svg width="16" height="17" viewBox="0 0 16 17" fill="none" xmlns="http://www.w3.org/2000/svg">
<g id="icons/Close/Line">
<path id="Shape" fill-rule="evenodd" clip-rule="evenodd" d="M2.41595 2.91205C2.74139 2.58661 3.26903 2.58661 3.59446 2.91205L8.00521 7.32279L12.416 2.91205C12.7414 2.58661 13.269 2.58661 13.5945 2.91205C13.9199 3.23748 13.9199 3.76512 13.5945 4.09056L9.18372 8.5013L13.5945 12.912C13.9199 13.2375 13.9199 13.7651 13.5945 14.0906C13.269 14.416 12.7414 14.416 12.416 14.0906L8.00521 9.67981L3.59446 14.0906C3.26903 14.416 2.74139 14.416 2.41595 14.0906C2.09052 13.7651 2.09052 13.2375 2.41595 12.912L6.8267 8.5013L2.41595 4.09056C2.09052 3.76512 2.09052 3.23748 2.41595 2.91205Z" fill="#09080D"/>
</g>
</svg>
