<svg width="17" height="17" viewBox="0 0 17 17" fill="none" xmlns="http://www.w3.org/2000/svg">
<g id="copy-01">
<path id="Vector" d="M6.5 10.5C6.5 8.6144 6.5 7.6716 7.08579 7.08579C7.6716 6.5 8.6144 6.5 10.5 6.5H11.1667C13.0523 6.5 13.9951 6.5 14.5809 7.08579C15.1667 7.6716 15.1667 8.6144 15.1667 10.5V11.1667C15.1667 13.0523 15.1667 13.9951 14.5809 14.5809C13.9951 15.1667 13.0523 15.1667 11.1667 15.1667H10.5C8.6144 15.1667 7.6716 15.1667 7.08579 14.5809C6.5 13.9951 6.5 13.0523 6.5 11.1667V10.5Z" stroke="#777980" stroke-width="1.5" stroke-linecap="round" stroke-linejoin="round"/>
<path id="Vector_2" d="M11.8329 6.4987C11.8313 4.5273 11.8015 3.50617 11.2277 2.80698C11.1169 2.67196 10.9931 2.54815 10.8581 2.43734C10.1205 1.83203 9.02467 1.83203 6.83301 1.83203C4.64135 1.83203 3.54553 1.83203 2.80796 2.43734C2.67293 2.54814 2.54913 2.67196 2.43831 2.80698C1.83301 3.54455 1.83301 4.64038 1.83301 6.83203C1.83301 9.0237 1.83301 10.1195 2.43831 10.8571C2.54912 10.9921 2.67293 11.1159 2.80796 11.2267C3.50715 11.8006 4.52828 11.8304 6.49967 11.832" stroke="#777980" stroke-width="1.5" stroke-linecap="round" stroke-linejoin="round"/>
</g>
</svg>
