<svg width="20" height="20" viewBox="0 0 20 20" fill="none" xmlns="http://www.w3.org/2000/svg">
<g id="ai-generative">
<path id="Vector" d="M8.33366 5C5.19096 5 3.61962 5 2.6433 5.97631C1.66699 6.95262 1.66699 8.524 1.66699 11.6667C1.66699 14.8093 1.66699 16.3807 2.6433 17.357C3.61962 18.3333 5.19096 18.3333 8.33366 18.3333H11.667C14.8097 18.3333 16.3811 18.3333 17.3573 17.357C18.3337 16.3807 18.3337 14.8093 18.3337 11.6667C18.3337 10.6918 18.3337 9.86825 18.3045 9.16667" stroke="#777980" stroke-width="1.25" stroke-linecap="round" stroke-linejoin="round"/>
<path id="Vector_2" d="M15.0003 1.66797L15.246 2.3318C15.5681 3.20228 15.7292 3.63751 16.0467 3.95501C16.3642 4.27251 16.7993 4.43356 17.6698 4.75566L18.3337 5.0013L17.6698 5.24694C16.7993 5.56904 16.3642 5.73009 16.0467 6.04759C15.7292 6.36509 15.5681 6.80033 15.246 7.6708L15.0003 8.33464L14.7547 7.6708C14.4326 6.80033 14.2715 6.36509 13.954 6.04759C13.6365 5.73009 13.2013 5.56904 12.3308 5.24694L11.667 5.0013L12.3308 4.75566C13.2013 4.43356 13.6365 4.27251 13.954 3.95501C14.2715 3.63751 14.4326 3.20228 14.7547 2.3318L15.0003 1.66797Z" stroke="#777980" stroke-width="1.25" stroke-linejoin="round"/>
</g>
</svg>
