<svg width="18" height="19" viewBox="0 0 18 19" fill="none" xmlns="http://www.w3.org/2000/svg">
<g id="Location">
<path id="Vector" d="M10.3481 17.3071C9.98671 17.6455 9.50366 17.8346 9.00093 17.8346C8.49821 17.8346 8.01515 17.6455 7.65374 17.3071C4.34418 14.1896 -0.0910308 10.7071 2.07189 5.65102C3.24136 2.91727 6.04862 1.16797 9.00093 1.16797C11.9532 1.16797 14.7605 2.91727 15.93 5.65102C18.0902 10.7007 13.6658 14.2004 10.3481 17.3071Z" stroke="#4A4C56" stroke-width="1.5"/>
<path id="Ellipse 1590" d="M11.9163 8.66667C11.9163 10.2775 10.6105 11.5833 8.99967 11.5833C7.38884 11.5833 6.08301 10.2775 6.08301 8.66667C6.08301 7.05584 7.38884 5.75 8.99967 5.75C10.6105 5.75 11.9163 7.05584 11.9163 8.66667Z" stroke="#4A4C56" stroke-width="1.5"/>
</g>
</svg>
