<svg width="20" height="21" viewBox="0 0 20 21" fill="none" xmlns="http://www.w3.org/2000/svg">
<g id="mail">
<g id="Vector">
<path fill-rule="evenodd" clip-rule="evenodd" d="M4.16673 5.29297C3.59144 5.29297 3.12507 5.75934 3.12507 6.33464V14.668C3.12507 15.2433 3.59144 15.7096 4.16673 15.7096H15.8334C16.4087 15.7096 16.8751 15.2433 16.8751 14.668V6.33464C16.8751 5.75934 16.4087 5.29297 15.8334 5.29297H4.16673ZM1.87507 6.33464C1.87507 5.06898 2.90108 4.04297 4.16673 4.04297H15.8334C17.0991 4.04297 18.1251 5.06898 18.1251 6.33464V14.668C18.1251 15.9336 17.0991 16.9596 15.8334 16.9596H4.16673C2.90108 16.9596 1.87507 15.9336 1.87507 14.668V6.33464Z" fill="#4A4C56"/>
<path fill-rule="evenodd" clip-rule="evenodd" d="M1.98003 5.98795C2.17151 5.70074 2.55955 5.62313 2.84675 5.8146L10.0001 10.5835L17.1534 5.8146C17.4406 5.62313 17.8286 5.70074 18.0201 5.98795C18.2116 6.27515 18.134 6.6632 17.8468 6.85467L10.3468 11.8547C10.1368 11.9946 9.86332 11.9946 9.65338 11.8547L2.15338 6.85467C1.86617 6.6632 1.78856 6.27515 1.98003 5.98795Z" fill="#4A4C56"/>
</g>
</g>
</svg>
