<svg width="16" height="17" viewBox="0 0 16 17" fill="none" xmlns="http://www.w3.org/2000/svg">
<g id="dots-horizontal">
<g id="Vector">
<path fill-rule="evenodd" clip-rule="evenodd" d="M9.33301 8.5C9.33301 7.76362 8.73605 7.16667 7.99967 7.16667C7.26329 7.16667 6.66634 7.76362 6.66634 8.5C6.66634 9.23638 7.2633 9.83333 7.99967 9.83333C8.73605 9.83333 9.33301 9.23638 9.33301 8.5Z" fill="#4A4C56"/>
<path fill-rule="evenodd" clip-rule="evenodd" d="M9.33301 13.1667C9.33301 12.4303 8.73605 11.8333 7.99967 11.8333C7.2633 11.8333 6.66634 12.4303 6.66634 13.1667C6.66634 13.903 7.2633 14.5 7.99967 14.5C8.73605 14.5 9.33301 13.903 9.33301 13.1667Z" fill="#4A4C56"/>
<path fill-rule="evenodd" clip-rule="evenodd" d="M9.33301 3.83333C9.33301 3.09695 8.73605 2.5 7.99967 2.5C7.26329 2.5 6.66634 3.09695 6.66634 3.83333C6.66634 4.56971 7.26329 5.16667 7.99967 5.16667C8.73605 5.16667 9.33301 4.56971 9.33301 3.83333Z" fill="#4A4C56"/>
</g>
</g>
</svg>
